<svg width="172" height="41" viewBox="0 0 172 41" fill="none" xmlns="http://www.w3.org/2000/svg">
<g clip-path="url(#clip0_8250_3229)">
<path d="M50.0859 28.6914H62.3958V25.1792H54.4611V11.95H50.0859V28.6914Z" fill="#0A0A0A"/>
<path d="M69.6896 26.3499C67.9346 26.3499 67.02 24.8982 67.02 22.7206C67.02 20.543 67.9346 19.0679 69.6896 19.0679C71.4446 19.0679 72.3839 20.543 72.3839 22.7206C72.3839 24.8982 71.4446 26.3499 69.6896 26.3499ZM69.7143 29.066C73.7928 29.066 76.4625 26.3265 76.4625 22.7206C76.4625 19.1148 73.7928 16.3752 69.7143 16.3752C65.6604 16.3752 62.9414 19.1148 62.9414 22.7206C62.9414 26.3265 65.6604 29.066 69.7143 29.066Z" fill="#0A0A0A"/>
<path d="M83.5219 32.8357C85.4005 32.8357 87.0566 32.4377 88.169 31.5011C89.1824 30.6347 89.8498 29.3235 89.8498 27.5206V16.703H85.9937V17.9908H85.9443C85.2027 16.984 84.0657 16.3518 82.3848 16.3518C79.2455 16.3518 77.0703 18.8338 77.0703 22.346C77.0703 26.0221 79.7152 28.0357 82.5578 28.0357C84.0904 28.0357 85.0544 27.4503 85.796 26.6542H85.8948V27.8484C85.8948 29.3001 85.178 30.143 83.4724 30.143C82.1376 30.143 81.4702 29.6045 81.2477 28.9723H77.3422C77.7377 31.4777 80.0365 32.8357 83.5219 32.8357ZM83.4971 25.2025C81.9893 25.2025 81.0006 24.0318 81.0006 22.2289C81.0006 20.4025 81.9893 19.2318 83.4971 19.2318C85.178 19.2318 86.0679 20.5899 86.0679 22.2055C86.0679 23.8913 85.2522 25.2025 83.4971 25.2025Z" fill="#0A0A0A"/>
<path d="M97.7794 26.3499C96.0244 26.3499 95.1098 24.8982 95.1098 22.7206C95.1098 20.543 96.0244 19.0679 97.7794 19.0679C99.5344 19.0679 100.474 20.543 100.474 22.7206C100.474 24.8982 99.5344 26.3499 97.7794 26.3499ZM97.8041 29.066C101.883 29.066 104.553 26.3265 104.553 22.7206C104.553 19.1148 101.883 16.3752 97.8041 16.3752C93.7503 16.3752 91.0312 19.1148 91.0312 22.7206C91.0312 26.3265 93.7503 29.066 97.8041 29.066Z" fill="#0A0A0A"/>
<path d="M105.729 28.6914H109.758V16.7031H105.729V28.6914ZM105.729 15.0407H109.758V11.95H105.729V15.0407Z" fill="#0A0A0A"/>
<path d="M111.506 32.6484H115.535V27.4503H115.584C116.375 28.4572 117.537 29.066 119.169 29.066C122.481 29.066 124.681 26.584 124.681 22.6972C124.681 19.0913 122.629 16.3518 119.267 16.3518C117.537 16.3518 116.301 17.0777 115.436 18.1547H115.362V16.703H111.506V32.6484ZM118.13 26.1157C116.4 26.1157 115.411 24.7811 115.411 22.8377C115.411 20.8942 116.301 19.4191 118.056 19.4191C119.787 19.4191 120.602 20.7772 120.602 22.8377C120.602 24.8747 119.663 26.1157 118.13 26.1157Z" fill="#0A0A0A"/>
<path d="M131.241 29.066C134.553 29.066 137 27.7079 137 25.0855C137 22.0181 134.38 21.4796 132.155 21.1284C130.549 20.8474 129.115 20.7303 129.115 19.8874C129.115 19.1381 129.881 18.7869 130.87 18.7869C131.982 18.7869 132.749 19.1147 132.897 20.1918H136.605C136.407 17.8269 134.479 16.3518 130.895 16.3518C127.904 16.3518 125.432 17.663 125.432 20.1918C125.432 23.0016 127.78 23.5635 129.98 23.9147C131.661 24.1957 133.194 24.3128 133.194 25.3899C133.194 26.1625 132.427 26.584 131.216 26.584C129.881 26.584 129.041 25.9986 128.893 24.8045H125.086C125.21 27.4503 127.533 29.066 131.241 29.066Z" fill="#0A0A0A"/>
<path d="M142.473 29.0426C144.228 29.0426 145.34 28.387 146.255 27.2163H146.329V28.6914H150.185V16.7031H146.156V23.3997C146.156 24.828 145.315 25.8114 143.931 25.8114C142.646 25.8114 142.028 25.0856 142.028 23.7743V16.7031H138.023V24.5704C138.023 27.2397 139.556 29.0426 142.473 29.0426Z" fill="#0A0A0A"/>
<path d="M151.938 28.6913H155.967V21.9713C155.967 20.543 156.708 19.5362 157.969 19.5362C159.18 19.5362 159.749 20.2855 159.749 21.5733V28.6913H163.778V21.9713C163.778 20.543 164.495 19.5362 165.78 19.5362C166.991 19.5362 167.56 20.2855 167.56 21.5733V28.6913H171.589V20.8942C171.589 18.2016 170.155 16.3518 167.288 16.3518C165.656 16.3518 164.297 17.0074 163.308 18.4591H163.259C162.616 17.1713 161.355 16.3518 159.699 16.3518C157.87 16.3518 156.659 17.1713 155.868 18.4123H155.794V16.703H151.938V28.6913Z" fill="#0A0A0A"/>
<path fill-rule="evenodd" clip-rule="evenodd" d="M8.91232 4.39659C7.43882 5.37255 6.10639 6.52645 4.94971 7.8254C9.67642 7.40972 15.6815 8.08847 22.6534 11.3905C30.0984 14.9166 36.0935 15.0358 40.2658 14.2735C39.8872 13.1877 39.4105 12.1442 38.846 11.1522C34.0699 11.6294 27.9469 10.9978 20.811 7.61816C16.2797 5.47201 12.2854 4.58794 8.91232 4.39659ZM36.056 7.39052C32.2843 3.39866 26.803 0.886475 20.7023 0.886475C18.9107 0.886475 17.1724 1.10316 15.5152 1.51036C17.7596 2.09046 20.1439 2.93914 22.6534 4.12771C27.8779 6.60211 32.3884 7.39882 36.056 7.39052ZM41.1578 18.0846C36.1173 19.0274 29.1568 18.8338 20.811 14.881C13.0086 11.1856 6.79857 11.2321 2.61029 12.1138C2.3941 12.1592 2.18301 12.207 1.97701 12.2568C1.42866 13.3865 0.990947 14.5744 0.676885 15.8079C1.01232 15.723 1.35894 15.6424 1.71657 15.567C6.79768 14.4975 13.9769 14.5439 22.6534 18.6534C30.4559 22.3488 36.6659 22.3023 40.8543 21.4206C40.9978 21.3905 41.1392 21.3592 41.2782 21.327C41.2935 21.0194 41.3011 20.7099 41.3011 20.3986C41.3011 19.6157 41.2525 18.8435 41.1578 18.0846ZM40.6057 25.4448C35.6141 26.2714 28.8563 25.9542 20.811 22.1438C13.0086 18.4484 6.79857 18.4949 2.61029 19.3766C1.68061 19.5722 0.844289 19.8105 0.106533 20.0622C0.104522 20.1741 0.103516 20.2863 0.103516 20.3986C0.103516 31.1749 9.3259 39.9108 20.7023 39.9108C30.2365 39.9108 38.2579 33.7751 40.6057 25.4448Z" fill="#0A0A0A"/>
</g>
<defs>
<clipPath id="clip0_8250_3229">
<rect width="172" height="40" fill="white" transform="translate(0 0.600098)"/>
</clipPath>
</defs>
</svg>
