<svg width="172" height="41" viewBox="0 0 172 41" fill="none" xmlns="http://www.w3.org/2000/svg">
<g clip-path="url(#clip0_8250_3232)">
<path d="M52.4707 28.0518H64.5633V24.5396H56.7687V11.3103H52.4707V28.0518Z" fill="#0A0A0A"/>
<path d="M71.7267 25.7102C70.0027 25.7102 69.1042 24.2585 69.1042 22.081C69.1042 19.9034 70.0027 18.4283 71.7267 18.4283C73.4508 18.4283 74.3735 19.9034 74.3735 22.081C74.3735 24.2585 73.4508 25.7102 71.7267 25.7102ZM71.751 28.4263C75.7576 28.4263 78.3801 25.6868 78.3801 22.081C78.3801 18.4751 75.7576 15.7356 71.751 15.7356C67.7687 15.7356 65.0977 18.4751 65.0977 22.081C65.0977 25.6868 67.7687 28.4263 71.751 28.4263Z" fill="#0A0A0A"/>
<path d="M85.3162 32.1963C87.1617 32.1963 88.7886 31.7983 89.8813 30.8617C90.8769 29.9953 91.5325 28.6841 91.5325 26.8812V16.0636H87.7444V17.3514H87.6959C86.9674 16.3446 85.8504 15.7124 84.1992 15.7124C81.1154 15.7124 78.9785 18.1944 78.9785 21.7066C78.9785 25.3826 81.5767 27.3963 84.3692 27.3963C85.8747 27.3963 86.8217 26.8109 87.5502 26.0148H87.6473V27.209C87.6473 28.6607 86.9431 29.5036 85.2676 29.5036C83.9564 29.5036 83.3008 28.9651 83.0822 28.3329H79.2456C79.6341 30.8383 81.8924 32.1963 85.3162 32.1963ZM85.2919 24.5631C83.8107 24.5631 82.8394 23.3924 82.8394 21.5895C82.8394 19.7631 83.8107 18.5924 85.2919 18.5924C86.9431 18.5924 87.8173 19.9505 87.8173 21.5661C87.8173 23.2519 87.016 24.5631 85.2919 24.5631Z" fill="#0A0A0A"/>
<path d="M99.3205 25.7102C97.5964 25.7102 96.698 24.2585 96.698 22.081C96.698 19.9034 97.5964 18.4283 99.3205 18.4283C101.045 18.4283 101.967 19.9034 101.967 22.081C101.967 24.2585 101.045 25.7102 99.3205 25.7102ZM99.3448 28.4263C103.351 28.4263 105.974 25.6868 105.974 22.081C105.974 18.4751 103.351 15.7356 99.3448 15.7356C95.3625 15.7356 92.6914 18.4751 92.6914 22.081C92.6914 25.6868 95.3625 28.4263 99.3448 28.4263Z" fill="#0A0A0A"/>
<path d="M107.129 28.0518H111.087V16.0635H107.129V28.0518ZM107.129 14.401H111.087V11.3103H107.129V14.401Z" fill="#0A0A0A"/>
<path d="M112.807 32.009H116.765V26.8109H116.813C117.59 27.8178 118.732 28.4265 120.334 28.4265C123.588 28.4265 125.749 25.9446 125.749 22.0578C125.749 18.4519 123.734 15.7124 120.431 15.7124C118.732 15.7124 117.517 16.4383 116.668 17.5153H116.595V16.0636H112.807V32.009ZM119.314 25.4763C117.615 25.4763 116.643 24.1417 116.643 22.1983C116.643 20.2548 117.517 18.7797 119.241 18.7797C120.941 18.7797 121.743 20.1378 121.743 22.1983C121.743 24.2353 120.82 25.4763 119.314 25.4763Z" fill="#0A0A0A"/>
<path d="M132.193 28.4265C135.447 28.4265 137.851 27.0685 137.851 24.4461C137.851 21.3787 135.277 20.8402 133.091 20.489C131.513 20.208 130.105 20.0909 130.105 19.248C130.105 18.4987 130.857 18.1475 131.829 18.1475C132.921 18.1475 133.674 18.4753 133.82 19.5524H137.462C137.268 17.1875 135.374 15.7124 131.853 15.7124C128.915 15.7124 126.486 17.0236 126.486 19.5524C126.486 22.3622 128.793 22.9241 130.954 23.2753C132.606 23.5563 134.111 23.6734 134.111 24.7505C134.111 25.5231 133.358 25.9446 132.169 25.9446C130.857 25.9446 130.032 25.3592 129.886 24.1651H126.146C126.268 26.8109 128.55 28.4265 132.193 28.4265Z" fill="#0A0A0A"/>
<path d="M143.226 28.403C144.95 28.403 146.043 27.7474 146.942 26.5766H147.014V28.0518H150.802V16.0635H146.844V22.7601C146.844 24.1884 146.019 25.1718 144.659 25.1718C143.396 25.1718 142.789 24.4459 142.789 23.1347V16.0635H138.855V23.9308C138.855 26.6001 140.361 28.403 143.226 28.403Z" fill="#0A0A0A"/>
<path d="M152.523 28.0519H156.481V21.3319C156.481 19.9036 157.21 18.8968 158.448 18.8968C159.638 18.8968 160.197 19.6461 160.197 20.9339V28.0519H164.155V21.3319C164.155 19.9036 164.859 18.8968 166.122 18.8968C167.311 18.8968 167.87 19.6461 167.87 20.9339V28.0519H171.828V20.2548C171.828 17.5622 170.42 15.7124 167.603 15.7124C166 15.7124 164.665 16.368 163.693 17.8197H163.645C163.013 16.5319 161.775 15.7124 160.148 15.7124C158.351 15.7124 157.161 16.5319 156.384 17.7729H156.311V16.0636H152.523V28.0519Z" fill="#0A0A0A"/>
<path fill-rule="evenodd" clip-rule="evenodd" d="M20.9267 39.7592C32.1024 39.7592 41.162 31.0233 41.162 20.247C41.162 9.47078 32.1024 0.734863 20.9267 0.734863C9.75104 0.734863 0.691406 9.47078 0.691406 20.247C0.691406 31.0233 9.75104 39.7592 20.9267 39.7592ZM27.2394 9.82446C27.5467 8.77199 26.4875 8.14962 25.5201 8.81418L12.0162 18.0905C10.9671 18.8112 11.1321 20.247 12.2641 20.247H15.82V20.2205H22.7504L17.1035 22.1418L14.614 30.6697C14.3067 31.7222 15.3659 32.3445 16.3333 31.6799L29.8372 22.4036C30.8863 21.6829 30.7212 20.247 29.5893 20.247H24.1968L27.2394 9.82446Z" fill="#0A0A0A"/>
</g>
<defs>
<clipPath id="clip0_8250_3232">
<rect width="172" height="40" fill="white" transform="translate(0 0.600098)"/>
</clipPath>
</defs>
</svg>
