<svg width="172" height="41" viewBox="0 0 172 41" fill="none" xmlns="http://www.w3.org/2000/svg">
<g clip-path="url(#clip0_8250_3226)">
<path d="M49.0371 29.6H60.3898V26.3673H52.4989V11.2727H49.0371V29.6Z" fill="#0A0A0A"/>
<path d="M67.2108 29.982C68.5854 29.982 69.7945 29.6765 70.8381 29.0656C71.8902 28.4462 72.709 27.5935 73.2945 26.5075C73.8884 25.4129 74.1854 24.1529 74.1854 22.7275C74.1854 21.3105 73.8926 20.059 73.3072 18.9729C72.7217 17.8784 71.9029 17.0214 70.8508 16.402C69.8072 15.7826 68.5939 15.4729 67.2108 15.4729C65.8532 15.4729 64.6526 15.7784 63.609 16.3893C62.5654 17.0002 61.7466 17.8529 61.1526 18.9475C60.5587 20.0335 60.2617 21.2935 60.2617 22.7275C60.2617 24.1444 60.5502 25.4002 61.1272 26.4947C61.7126 27.5808 62.5272 28.4335 63.5708 29.0529C64.6145 29.6723 65.8278 29.982 67.2108 29.982ZM67.2108 26.7493C66.1332 26.7493 65.3145 26.3887 64.7545 25.6675C64.2029 24.9378 63.9272 23.9578 63.9272 22.7275C63.9272 21.5311 64.1902 20.5638 64.7163 19.8256C65.2508 19.079 66.0823 18.7056 67.2108 18.7056C68.3054 18.7056 69.1284 19.0705 69.6799 19.8002C70.2399 20.5299 70.5199 21.5056 70.5199 22.7275C70.5199 23.9069 70.2442 24.8741 69.6926 25.6293C69.1496 26.3759 68.3223 26.7493 67.2108 26.7493Z" fill="#0A0A0A"/>
<path d="M81.0315 29.982C81.6764 29.982 82.2703 29.9056 82.8134 29.7529C83.3649 29.6002 83.8655 29.3838 84.3152 29.1038V30.4911C84.3322 31.0002 84.2006 31.4244 83.9206 31.7638C83.6491 32.1117 83.2843 32.3705 82.8261 32.5402C82.3679 32.7184 81.88 32.8075 81.3625 32.8075C80.8788 32.8075 80.4291 32.7014 80.0134 32.4893C79.6061 32.2772 79.2921 31.9675 79.0715 31.5602L75.8643 33.1129C76.3903 34.0038 77.1412 34.7208 78.117 35.2638C79.0928 35.8153 80.1661 36.0911 81.337 36.0911C82.3467 36.0911 83.2843 35.9553 84.1497 35.6838C85.0152 35.4208 85.7449 35.0178 86.3388 34.4747C86.9412 33.9317 87.3528 33.2402 87.5734 32.4002C87.6497 32.1032 87.7006 31.802 87.7261 31.4965C87.76 31.1996 87.777 30.8814 87.777 30.542V15.8547H84.7479V16.6184C84.2812 16.2535 83.7509 15.9735 83.157 15.7784C82.5715 15.5747 81.9225 15.4729 81.2097 15.4729C79.8946 15.4729 78.7491 15.7869 77.7734 16.4147C76.7976 17.0426 76.0382 17.9038 75.4952 18.9984C74.9606 20.0844 74.6934 21.3275 74.6934 22.7275C74.6934 24.102 74.9564 25.3365 75.4825 26.4311C76.017 27.5256 76.7594 28.3911 77.7097 29.0275C78.66 29.6638 79.7673 29.982 81.0315 29.982ZM81.5915 26.902C80.8449 26.902 80.234 26.7153 79.7588 26.342C79.2837 25.9687 78.9315 25.4681 78.7025 24.8402C78.4734 24.2038 78.3588 23.4996 78.3588 22.7275C78.3588 21.9638 78.4776 21.2681 78.7152 20.6402C78.9528 20.0038 79.3176 19.499 79.8097 19.1256C80.3103 18.7438 80.9467 18.5529 81.7188 18.5529C82.8049 18.5529 83.5812 18.939 84.0479 19.7111C84.5146 20.4747 84.7479 21.4802 84.7479 22.7275C84.7479 23.9747 84.5103 24.9844 84.0352 25.7565C83.5685 26.5202 82.754 26.902 81.5915 26.902Z" fill="#0A0A0A"/>
<path d="M95.9999 29.982C97.3745 29.982 98.5836 29.6765 99.6272 29.0656C100.679 28.4462 101.498 27.5935 102.083 26.5075C102.677 25.4129 102.974 24.1529 102.974 22.7275C102.974 21.3105 102.682 20.059 102.096 18.9729C101.511 17.8784 100.692 17.0214 99.6399 16.402C98.5963 15.7826 97.3829 15.4729 95.9999 15.4729C94.6423 15.4729 93.4417 15.7784 92.3981 16.3893C91.3545 17.0002 90.5357 17.8529 89.9417 18.9475C89.3478 20.0335 89.0508 21.2935 89.0508 22.7275C89.0508 24.1444 89.3393 25.4002 89.9163 26.4947C90.5017 27.5808 91.3163 28.4335 92.3599 29.0529C93.4036 29.6723 94.6169 29.982 95.9999 29.982ZM95.9999 26.7493C94.9223 26.7493 94.1035 26.3887 93.5435 25.6675C92.992 24.9378 92.7163 23.9578 92.7163 22.7275C92.7163 21.5311 92.9793 20.5638 93.5054 19.8256C94.0399 19.079 94.8714 18.7056 95.9999 18.7056C97.0945 18.7056 97.9175 19.0705 98.469 19.8002C99.029 20.5299 99.309 21.5056 99.309 22.7275C99.309 23.9069 99.0332 24.8741 98.4817 25.6293C97.9387 26.3759 97.1114 26.7493 95.9999 26.7493Z" fill="#0A0A0A"/>
<path d="M104.5 13.9456H107.962V10.8911H104.5V13.9456ZM104.5 29.6002H107.962V15.8547H104.5V29.6002Z" fill="#0A0A0A"/>
<path d="M110.225 35.7093H113.712V29.1038C114.162 29.3838 114.658 29.6002 115.201 29.7529C115.753 29.9056 116.351 29.982 116.996 29.982C118.26 29.982 119.368 29.6638 120.318 29.0275C121.268 28.3911 122.006 27.5256 122.532 26.4311C123.067 25.3365 123.334 24.102 123.334 22.7275C123.334 21.3275 123.063 20.0844 122.52 18.9984C121.985 17.9038 121.23 17.0426 120.254 16.4147C119.278 15.7869 118.133 15.4729 116.818 15.4729C116.105 15.4729 115.452 15.5747 114.858 15.7784C114.272 15.9735 113.746 16.2535 113.28 16.6184V15.8547H110.225V35.7093ZM116.436 26.902C115.282 26.902 114.468 26.5202 113.992 25.7565C113.517 24.9844 113.28 23.9747 113.28 22.7275C113.28 21.4802 113.513 20.4747 113.98 19.7111C114.455 18.939 115.231 18.5529 116.309 18.5529C117.081 18.5529 117.713 18.7438 118.205 19.1256C118.706 19.499 119.075 20.0038 119.312 20.6402C119.55 21.2681 119.669 21.9638 119.669 22.7275C119.669 23.4996 119.554 24.2038 119.325 24.8402C119.096 25.4681 118.744 25.9687 118.269 26.342C117.794 26.7153 117.183 26.902 116.436 26.902Z" fill="#0A0A0A"/>
<path d="M129.606 29.982C131.404 29.982 132.813 29.579 133.831 28.7729C134.849 27.9668 135.358 26.8596 135.358 25.4511C135.358 24.382 135.027 23.5378 134.366 22.9184C133.712 22.299 132.601 21.7856 131.031 21.3784C129.962 21.1068 129.164 20.8862 128.638 20.7165C128.121 20.5469 127.777 20.3814 127.607 20.2202C127.446 20.059 127.366 19.8596 127.366 19.622C127.366 19.2232 127.556 18.9178 127.938 18.7056C128.329 18.4935 128.842 18.4087 129.478 18.4511C130.827 18.5529 131.566 19.1299 131.693 20.182L135.231 19.5456C135.053 18.2984 134.442 17.3099 133.398 16.5802C132.355 15.842 131.023 15.4729 129.402 15.4729C127.739 15.4729 126.411 15.8632 125.418 16.6438C124.426 17.4244 123.929 18.4765 123.929 19.8002C123.929 20.8523 124.273 21.6838 124.96 22.2947C125.647 22.8972 126.831 23.4147 128.511 23.8475C129.504 24.1105 130.233 24.3226 130.7 24.4838C131.175 24.645 131.481 24.8105 131.616 24.9802C131.752 25.1414 131.82 25.3578 131.82 25.6293C131.82 26.062 131.65 26.4014 131.311 26.6475C130.972 26.885 130.488 27.0038 129.86 27.0038C129.096 27.0038 128.464 26.8214 127.964 26.4565C127.472 26.0917 127.153 25.5869 127.009 24.942L123.471 25.4765C123.7 26.9105 124.345 28.022 125.406 28.8111C126.475 29.5917 127.875 29.982 129.606 29.982Z" fill="#0A0A0A"/>
<path d="M141.744 30.0073C142.737 30.0073 143.602 29.8418 144.341 29.5109C145.079 29.18 145.698 28.7388 146.199 28.1873V29.6H149.253V15.8545H145.766V22.8291C145.766 23.6776 145.668 24.3648 145.473 24.8909C145.287 25.4085 145.045 25.803 144.748 26.0745C144.451 26.3376 144.133 26.5157 143.793 26.6091C143.454 26.7024 143.136 26.7491 142.839 26.7491C142.101 26.7491 141.528 26.5836 141.121 26.2527C140.722 25.9218 140.433 25.5103 140.255 25.0182C140.077 24.526 139.971 24.0382 139.937 23.5545C139.903 23.0624 139.886 22.6594 139.886 22.3454V15.8545H136.373V23.5673C136.373 23.7963 136.39 24.1612 136.424 24.6618C136.458 25.1624 136.556 25.7182 136.717 26.3291C136.878 26.9315 137.145 27.5127 137.519 28.0727C137.901 28.6327 138.431 29.0951 139.11 29.46C139.788 29.8248 140.667 30.0073 141.744 30.0073Z" fill="#0A0A0A"/>
<path d="M151.258 29.6001H154.745V21.2764C154.745 20.4874 154.961 19.8468 155.394 19.3546C155.835 18.854 156.416 18.6037 157.138 18.6037C157.893 18.6037 158.483 18.8583 158.907 19.3674C159.339 19.868 159.556 20.5722 159.556 21.4801V29.6001H163.018V21.2764C163.018 20.4874 163.234 19.8468 163.667 19.3546C164.108 18.854 164.689 18.6037 165.41 18.6037C166.166 18.6037 166.755 18.8583 167.179 19.3674C167.612 19.868 167.829 20.5722 167.829 21.4801V29.6001H171.29V20.5637C171.29 19.0619 170.887 17.8486 170.081 16.9237C169.284 15.9904 168.1 15.5237 166.53 15.5237C165.648 15.5237 164.838 15.7146 164.099 16.0964C163.361 16.4783 162.772 17.0001 162.33 17.6619C161.974 17.0171 161.465 16.4995 160.803 16.1092C160.141 15.7189 159.318 15.5237 158.334 15.5237C157.502 15.5237 156.739 15.6892 156.043 16.0201C155.347 16.3425 154.77 16.788 154.312 17.3564V15.8546H151.258V29.6001Z" fill="#0A0A0A"/>
<path d="M20 0.600098C8.9543 0.600098 0 9.5544 0 20.6001C11.0457 20.6001 20 11.6458 20 0.600098Z" fill="#0A0A0A"/>
<path d="M20 40.6001C31.0457 40.6001 40 31.6458 40 20.6001C28.9543 20.6001 20 29.5544 20 40.6001Z" fill="#0A0A0A"/>
<path d="M20 0.600098C31.0457 0.600098 40 9.5544 40 20.6001C28.9543 20.6001 20 11.6458 20 0.600098Z" fill="#0A0A0A"/>
<path d="M20 40.6001C8.9543 40.6001 -9.65645e-07 31.6458 0 20.6001C11.0457 20.6001 20 29.5544 20 40.6001Z" fill="#0A0A0A"/>
</g>
<defs>
<clipPath id="clip0_8250_3226">
<rect width="172" height="40" fill="white" transform="translate(0 0.600098)"/>
</clipPath>
</defs>
</svg>
