<svg width="172" height="41" viewBox="0 0 172 41" fill="none" xmlns="http://www.w3.org/2000/svg">
<g clip-path="url(#clip0_8250_3230)">
<path fill-rule="evenodd" clip-rule="evenodd" d="M54.5938 3.26222C54.5938 1.90672 55.6466 0.807861 56.9456 0.807861H61.0427C61.9672 0.807861 62.8632 1.1422 63.578 1.75397L64.8243 2.82058L64.8555 2.85025C64.8843 2.84013 64.913 2.83023 64.9419 2.82058C67.1904 2.06898 69.9186 1.92605 72.703 1.92605C75.4875 1.92605 78.2156 2.06898 80.4642 2.82058C80.4931 2.83023 80.5218 2.84013 80.5506 2.85025L80.5817 2.82058L81.8281 1.75397C82.5429 1.1422 83.4389 0.807861 84.3633 0.807861H88.4605C89.7594 0.807861 90.8123 1.90672 90.8123 3.26222V4.77947C90.8123 5.95337 90.3385 7.07297 89.507 7.86361L88.5015 8.8197C88.0107 9.28645 87.4215 9.62614 86.7816 9.81133L86.5438 9.88016C87.4754 12.2001 87.9901 14.6799 87.9901 16.686C87.9901 24.7556 83.2057 28.2408 78.99 31.3116C75.6701 33.7299 72.703 35.8912 72.703 39.8323C72.703 35.8912 69.7359 33.7299 66.4161 31.3116C62.2004 28.2408 57.4159 24.7556 57.4159 16.686C57.4159 14.6799 57.9306 12.2001 58.8623 9.88016L58.6245 9.81133C57.9846 9.62614 57.3954 9.28645 56.9046 8.8197L55.8991 7.86361C55.0676 7.07297 54.5938 5.95337 54.5938 4.77947V3.26222ZM75.7605 23.2832C75.7605 23.6688 75.5994 24.0384 75.3127 24.3111C75.0261 24.5837 74.6372 24.7369 74.2317 24.7369C73.8817 24.7369 73.544 24.6226 73.2738 24.416C73.7337 25.7009 74.9108 26.9183 76.7012 24.9605C78.2818 23.1413 76.6309 19.3043 75.0226 17.0274C74.4866 16.2685 73.6065 15.9032 72.703 15.9032C71.7996 15.9032 70.9195 16.2685 70.3834 17.0274C68.7751 19.3043 67.1243 23.1413 68.7049 24.9605C70.4952 26.9183 71.6723 25.7009 72.1323 24.416C71.8621 24.6226 71.5244 24.7369 71.1744 24.7369C70.7689 24.7369 70.38 24.5837 70.0934 24.3111C69.8067 24.0384 69.6456 23.6688 69.6456 23.2832H75.7605ZM66.8488 11.9251H62.5901L65.9464 14.7297C66.685 15.3467 67.7645 15.1495 68.2215 14.3139C68.7985 13.2588 68.0321 11.9251 66.8488 11.9251ZM78.5572 11.9251H82.816L79.4597 14.7297C78.7211 15.3467 77.6416 15.1495 77.1846 14.3139C76.6075 13.2588 77.3739 11.9251 78.5572 11.9251Z" fill="#0A0A0A"/>
<path d="M95.8848 28.45H99.6577V13.4354H95.8848V28.45ZM95.8848 11.0939H99.6577V7.52319H95.8848V11.0939Z" fill="#0A0A0A"/>
<path d="M102.09 33.3673H105.863V26.7527H105.918C106.723 28.0405 108.027 28.8893 110.024 28.8893C113.686 28.8893 116.183 25.8161 116.183 20.9576C116.183 16.2747 113.769 13.0259 109.996 13.0259C108.054 13.0259 106.723 13.9917 105.807 15.3088H105.724V13.4356H102.09V33.3673ZM109.22 25.582C106.972 25.582 105.78 23.7966 105.78 21.0747C105.78 18.382 106.723 16.2454 109.081 16.2454C111.411 16.2454 112.354 18.2356 112.354 21.0747C112.354 23.9137 111.134 25.582 109.22 25.582Z" fill="#0A0A0A"/>
<path d="M123.709 28.8893C127.26 28.8893 129.701 27.0747 129.701 24.06C129.701 20.5478 127.066 19.8454 124.68 19.3186C122.655 18.8795 120.768 18.7625 120.768 17.4747C120.768 16.3917 121.739 15.8064 123.209 15.8064C124.819 15.8064 125.789 16.3917 125.956 18.0015H129.368C129.091 14.9869 127.01 13.0259 123.265 13.0259C120.019 13.0259 117.467 14.5771 117.467 17.8259C117.467 21.1039 119.964 21.8356 122.516 22.3625C124.458 22.7722 126.261 22.9186 126.261 24.3527C126.261 25.4064 125.318 26.0795 123.653 26.0795C121.961 26.0795 120.796 25.3186 120.546 23.5917H117.051C117.273 26.782 119.575 28.8893 123.709 28.8893Z" fill="#0A0A0A"/>
<path d="M144.027 28.4502V13.4355H140.254V22.099C140.254 24.0892 139.172 25.4941 137.396 25.4941C135.787 25.4941 135.038 24.5282 135.038 22.7721V13.4355H131.293V23.4453C131.293 26.7234 133.068 28.8599 136.231 28.8599C138.228 28.8599 139.338 28.0697 140.309 26.6941H140.392V28.4502H144.027Z" fill="#0A0A0A"/>
<path d="M146.467 28.4503H150.24V19.7283C150.24 17.7381 151.266 16.4503 152.792 16.4503C154.179 16.4503 154.984 17.3283 154.984 19.0259V28.4503H158.756V19.7283C158.756 17.7381 159.727 16.4503 161.309 16.4503C162.696 16.4503 163.5 17.3283 163.5 19.0259V28.4503H167.273V18.3527C167.273 15.0747 165.581 13.0259 162.585 13.0259C160.782 13.0259 159.284 14.021 158.313 15.66H158.257C157.564 14.0795 156.121 13.0259 154.318 13.0259C152.348 13.0259 150.961 14.0795 150.184 15.4551H150.101V13.4356H146.467V28.4503Z" fill="#0A0A0A"/>
<path d="M0.632812 28.45H4.40571V7.52319H0.632812V28.45Z" fill="#0A0A0A"/>
<path d="M13.6302 28.8893C18.0412 28.8893 21.065 25.4356 21.065 20.9576C21.065 16.4795 18.0412 13.0259 13.6302 13.0259C9.21918 13.0259 6.19531 16.4795 6.19531 20.9576C6.19531 25.4356 9.21918 28.8893 13.6302 28.8893ZM13.6302 25.8454C11.2999 25.8454 10.0237 23.8844 10.0237 20.9576C10.0237 18.0308 11.2999 16.0405 13.6302 16.0405C15.9328 16.0405 17.2366 18.0308 17.2366 20.9576C17.2366 23.8844 15.9328 25.8454 13.6302 25.8454Z" fill="#0A0A0A"/>
<path d="M29.0882 33.5722C31.1966 33.5722 33.0276 33.0454 34.2205 31.8747C35.2747 30.8503 35.9127 29.4161 35.9127 27.3088V13.4356H32.2785V15.0161H32.2231C31.3631 13.7576 30.0592 13.0259 28.2837 13.0259C24.6773 13.0259 22.125 15.8942 22.125 20.3722C22.125 24.9088 25.2321 27.543 28.3947 27.543C30.1979 27.543 31.2798 26.782 32.1121 25.7869H32.1953V27.4259C32.1953 29.4747 31.1689 30.5576 29.0327 30.5576C27.285 30.5576 26.4805 29.8259 26.1753 28.8893H22.4302C22.8185 31.8161 25.2044 33.5722 29.0882 33.5722ZM29.0327 24.3527C27.0908 24.3527 25.8147 22.86 25.8147 20.3137C25.8147 17.7966 27.0908 16.2161 29.005 16.2161C31.2798 16.2161 32.3895 18.0893 32.3895 20.2844C32.3895 22.5088 31.4185 24.3527 29.0327 24.3527Z" fill="#0A0A0A"/>
<path d="M45.0833 28.8893C49.4942 28.8893 52.5181 25.4356 52.5181 20.9576C52.5181 16.4795 49.4942 13.0259 45.0833 13.0259C40.6723 13.0259 37.6484 16.4795 37.6484 20.9576C37.6484 25.4356 40.6723 28.8893 45.0833 28.8893ZM45.0833 25.8454C42.753 25.8454 41.4768 23.8844 41.4768 20.9576C41.4768 18.0308 42.753 16.0405 45.0833 16.0405C47.3859 16.0405 48.6897 18.0308 48.6897 20.9576C48.6897 23.8844 47.3859 25.8454 45.0833 25.8454Z" fill="#0A0A0A"/>
<path d="M167.104 10.1575C167.104 9.48398 167.62 8.93799 168.259 8.93799H170.571C171.209 8.93799 171.727 9.48398 171.727 10.1575C171.727 10.831 171.209 11.377 170.571 11.377H168.259C167.62 11.377 167.104 10.831 167.104 10.1575Z" fill="#0A0A0A"/>
</g>
<defs>
<clipPath id="clip0_8250_3230">
<rect width="172" height="40" fill="white" transform="translate(0 0.600098)"/>
</clipPath>
</defs>
</svg>
