<svg width="172" height="41" viewBox="0 0 172 41" fill="none" xmlns="http://www.w3.org/2000/svg">
<g clip-path="url(#clip0_1_3755)">
<path d="M51.8809 29.2083H63.9735V25.6961H56.1788V12.4668H51.8809V29.2083Z" fill="#0A0A0A"/>
<path d="M71.1379 26.8667C69.4138 26.8667 68.5154 25.415 68.5154 23.2375C68.5154 21.0599 69.4138 19.5848 71.1379 19.5848C72.8619 19.5848 73.7846 21.0599 73.7846 23.2375C73.7846 25.415 72.8619 26.8667 71.1379 26.8667ZM71.1622 29.5828C75.1687 29.5828 77.7912 26.8433 77.7912 23.2375C77.7912 19.6316 75.1687 16.8921 71.1622 16.8921C67.1799 16.8921 64.5088 19.6316 64.5088 23.2375C64.5088 26.8433 67.1799 29.5828 71.1622 29.5828Z" fill="#0A0A0A"/>
<path d="M84.7261 33.3526C86.5716 33.3526 88.1985 32.9545 89.2912 32.0179C90.2868 31.1516 90.9424 29.8404 90.9424 28.0374V17.2199H87.1544V18.5077H87.1058C86.3773 17.5008 85.2603 16.8687 83.6091 16.8687C80.5253 16.8687 78.3884 19.3506 78.3884 22.8628C78.3884 26.5389 80.9866 28.5526 83.7791 28.5526C85.2846 28.5526 86.2316 27.9672 86.9601 27.1711H87.0572V28.3652C87.0572 29.8169 86.353 30.6599 84.6776 30.6599C83.3663 30.6599 82.7107 30.1213 82.4921 29.4891H78.6555C79.0441 31.9945 81.3023 33.3526 84.7261 33.3526ZM84.7018 25.7194C83.2206 25.7194 82.2493 24.5487 82.2493 22.7457C82.2493 20.9194 83.2206 19.7487 84.7018 19.7487C86.353 19.7487 87.2272 21.1067 87.2272 22.7223C87.2272 24.4082 86.4259 25.7194 84.7018 25.7194Z" fill="#0A0A0A"/>
<path d="M98.7314 26.8667C97.0073 26.8667 96.1089 25.415 96.1089 23.2375C96.1089 21.0599 97.0073 19.5848 98.7314 19.5848C100.455 19.5848 101.378 21.0599 101.378 23.2375C101.378 25.415 100.455 26.8667 98.7314 26.8667ZM98.7557 29.5828C102.762 29.5828 105.384 26.8433 105.384 23.2375C105.384 19.6316 102.762 16.8921 98.7557 16.8921C94.7733 16.8921 92.1023 19.6316 92.1023 23.2375C92.1023 26.8433 94.7733 29.5828 98.7557 29.5828Z" fill="#0A0A0A"/>
<path d="M106.541 29.2083H110.499V17.22H106.541V29.2083ZM106.541 15.5575H110.499V12.4668H106.541V15.5575Z" fill="#0A0A0A"/>
<path d="M112.216 33.1652H116.174V27.9672H116.222C116.999 28.974 118.141 29.5828 119.743 29.5828C122.997 29.5828 125.158 27.1008 125.158 23.214C125.158 19.6082 123.143 16.8687 119.84 16.8687C118.141 16.8687 116.927 17.5945 116.077 18.6716H116.004V17.2199H112.216V33.1652ZM118.723 26.6326C117.024 26.6326 116.052 25.2979 116.052 23.3545C116.052 21.4111 116.927 19.936 118.651 19.936C120.35 19.936 121.152 21.294 121.152 23.3545C121.152 25.3916 120.229 26.6326 118.723 26.6326Z" fill="#0A0A0A"/>
<path d="M131.602 29.5828C134.856 29.5828 137.26 28.2247 137.26 25.6023C137.26 22.535 134.686 21.9965 132.501 21.6452C130.922 21.3643 129.514 21.2472 129.514 20.4043C129.514 19.655 130.267 19.3038 131.238 19.3038C132.331 19.3038 133.083 19.6316 133.229 20.7087H136.871C136.677 18.3438 134.783 16.8687 131.262 16.8687C128.324 16.8687 125.896 18.1799 125.896 20.7087C125.896 23.5184 128.203 24.0804 130.364 24.4316C132.015 24.7126 133.521 24.8296 133.521 25.9067C133.521 26.6794 132.768 27.1008 131.578 27.1008C130.267 27.1008 129.441 26.5155 129.295 25.3213H125.556C125.677 27.9672 127.96 29.5828 131.602 29.5828Z" fill="#0A0A0A"/>
<path d="M142.636 29.5592C144.36 29.5592 145.453 28.9036 146.352 27.7329H146.424V29.208H150.213V17.2197H146.255V23.9163C146.255 25.3446 145.429 26.328 144.069 26.328C142.806 26.328 142.199 25.6022 142.199 24.2909V17.2197H138.266V25.087C138.266 27.7563 139.771 29.5592 142.636 29.5592Z" fill="#0A0A0A"/>
<path d="M151.935 29.2082H155.893V22.4882C155.893 21.0599 156.621 20.053 157.859 20.053C159.049 20.053 159.608 20.8023 159.608 22.0901V29.2082H163.566V22.4882C163.566 21.0599 164.27 20.053 165.533 20.053C166.723 20.053 167.281 20.8023 167.281 22.0901V29.2082H171.239V21.4111C171.239 18.7184 169.831 16.8687 167.014 16.8687C165.411 16.8687 164.076 17.5243 163.104 18.976H163.056C162.425 17.6882 161.186 16.8687 159.559 16.8687C157.762 16.8687 156.572 17.6882 155.795 18.9291H155.723V17.2199H151.935V29.2082Z" fill="#0A0A0A"/>
<path fill-rule="evenodd" clip-rule="evenodd" d="M20.3378 39.9399C31.5135 39.9399 40.5731 31.204 40.5731 20.4277C40.5731 9.65143 31.5135 0.915527 20.3378 0.915527C9.16217 0.915527 0.102539 9.65143 0.102539 20.4277C0.102539 31.204 9.16217 39.9399 20.3378 39.9399ZM23.4611 15.9912C25.186 14.3279 25.186 11.6312 23.4611 9.96788C21.7362 8.30458 18.9395 8.30458 17.2146 9.96788C15.4897 11.6312 15.4897 14.3279 17.2146 15.9912L20.3378 19.0028L23.4611 15.9912ZM24.9388 23.4394C26.6637 25.1027 29.4604 25.1027 31.1853 23.4394C32.9102 21.7761 32.9102 19.0794 31.1853 17.4161C29.4604 15.7529 26.6637 15.7529 24.9388 17.4161L21.8156 20.4278L24.9388 23.4394ZM23.4611 30.8876C25.186 29.2243 25.186 26.5276 23.4611 24.8643L20.3378 21.8527L17.2146 24.8643C15.4897 26.5276 15.4897 29.2243 17.2146 30.8876C18.9395 32.5509 21.7362 32.5509 23.4611 30.8876ZM9.49033 23.4394C7.76543 21.7761 7.76543 19.0794 9.49033 17.4161C11.2153 15.7529 14.0119 15.7529 15.7369 17.4161L18.8601 20.4278L15.7369 23.4394C14.0119 25.1027 11.2153 25.1027 9.49033 23.4394Z" fill="#0A0A0A"/>
</g>
<defs>
<clipPath id="clip0_1_3755">
<rect width="172" height="40" fill="white" transform="translate(0 0.600098)"/>
</clipPath>
</defs>
</svg>
