<svg width="172" height="41" viewBox="0 0 172 41" fill="none" xmlns="http://www.w3.org/2000/svg">
<g clip-path="url(#clip0_8250_3227)">
<path d="M57.2386 10.884H53.2637V27.0473H64.2677V23.8802H57.2386V10.884Z" fill="#0A0A0A"/>
<path d="M64.6484 21.565C64.6484 25.0161 67.2177 27.3095 71.0957 27.3095C74.9495 27.3095 77.5187 25.0161 77.5187 21.565C77.5187 18.1139 74.9495 15.7986 71.0957 15.7986C67.2177 15.7986 64.6484 18.1139 64.6484 21.565ZM68.4053 21.5431C68.4053 19.905 69.4718 18.8129 71.0957 18.8129C72.6954 18.8129 73.7619 19.905 73.7619 21.5431C73.7619 23.2032 72.6954 24.2953 71.0957 24.2953C69.4718 24.2953 68.4053 23.2032 68.4053 21.5431Z" fill="#0A0A0A"/>
<path d="M78.1188 21.3902C78.1188 24.6883 80.4942 26.9162 83.8632 26.9162C85.4872 26.9162 86.8929 26.392 87.5958 25.5402V27.0473C87.5958 28.5544 86.5536 29.5591 84.7115 29.5591C83.0633 29.5591 81.9241 28.8602 81.8514 27.6152H78.0703C78.4097 30.6076 80.9789 32.617 84.4933 32.617C88.638 32.617 91.2557 30.1926 91.2557 26.3483V16.1262H87.8866L87.6928 17.2401C87.0141 16.3446 85.584 15.7549 83.936 15.7549C80.5426 15.7549 78.1188 18.0483 78.1188 21.3902ZM81.8999 21.3028C81.8999 19.7301 83.0633 18.6817 84.5418 18.6817C86.2627 18.6817 87.5231 19.7083 87.5231 21.3028C87.5231 22.8973 86.2869 23.9894 84.566 23.9894C83.0876 23.9894 81.8999 22.8973 81.8999 21.3028Z" fill="#0A0A0A"/>
<path d="M92.3438 21.565C92.3438 25.0161 94.913 27.3095 98.7911 27.3095C102.645 27.3095 105.214 25.0161 105.214 21.565C105.214 18.1139 102.645 15.7986 98.7911 15.7986C94.913 15.7986 92.3438 18.1139 92.3438 21.565ZM96.1007 21.5431C96.1007 19.905 97.1671 18.8129 98.7911 18.8129C100.391 18.8129 101.457 19.905 101.457 21.5431C101.457 23.2032 100.391 24.2953 98.7911 24.2953C97.1671 24.2953 96.1007 23.2032 96.1007 21.5431Z" fill="#0A0A0A"/>
<path d="M108.432 14.4225C109.595 14.4225 110.54 13.5706 110.54 12.5004C110.54 11.4301 109.595 10.6001 108.432 10.6001C107.244 10.6001 106.299 11.4301 106.299 12.5004C106.299 13.5706 107.244 14.4225 108.432 14.4225ZM106.541 27.0473H110.298V16.1262H106.541V27.0473Z" fill="#0A0A0A"/>
<path d="M112.486 32.2893H116.17V25.9551C116.873 26.7851 118.473 27.353 120.145 27.353C123.756 27.353 125.938 24.863 125.841 21.4119C125.744 17.8953 123.49 15.7766 120.121 15.7766C118.4 15.7766 116.776 16.4537 116.097 17.4585L115.903 16.1261H112.486V32.2893ZM116.243 21.5866C116.243 19.9485 117.454 18.8564 119.2 18.8564C120.969 18.8564 122.084 19.9703 122.084 21.5866C122.084 23.203 120.969 24.3169 119.2 24.3169C117.454 24.3169 116.243 23.2248 116.243 21.5866Z" fill="#0A0A0A"/>
<path d="M126.238 23.5961C126.335 25.8022 128.275 27.3311 131.328 27.3311C134.261 27.3311 136.298 25.9332 136.298 23.6835C136.298 22.0672 135.231 20.9969 133.243 20.56L131.086 20.0795C130.311 19.9048 129.826 19.73 129.826 19.1621C129.826 18.5942 130.334 18.2229 131.086 18.2229C131.934 18.2229 132.491 18.7253 132.468 19.4679H135.837C135.739 17.1963 133.825 15.7766 131.159 15.7766C128.469 15.7766 126.457 17.2182 126.457 19.4024C126.457 20.8658 127.354 22.0672 129.753 22.6351L131.885 23.1374C132.516 23.2903 132.782 23.5524 132.782 23.9237C132.782 24.4698 132.225 24.8193 131.28 24.8193C130.189 24.8193 129.607 24.3606 129.607 23.5961H126.238Z" fill="#0A0A0A"/>
<path d="M142.011 27.3312C143.49 27.3312 144.968 26.7196 145.719 25.8241L145.962 27.0473H149.476V16.1262H145.744V21.8052C145.744 23.4433 145.211 24.3388 143.49 24.3388C142.156 24.3388 141.284 23.7928 141.284 21.7615V16.1262H137.551V22.9846C137.551 25.5839 139.151 27.3312 142.011 27.3312Z" fill="#0A0A0A"/>
<path d="M155.394 27.0473V21.0844C155.394 19.2496 156.485 18.7254 157.551 18.7254C158.739 18.7254 159.514 19.3807 159.514 20.7349V27.0473H163.198V21.0844C163.198 19.2278 164.265 18.7036 165.331 18.7036C166.519 18.7036 167.319 19.3588 167.319 20.7349V27.0473H170.955V19.9049C170.955 17.4149 169.5 15.7549 166.373 15.7549C164.629 15.7549 163.198 16.5193 162.568 17.6988C161.841 16.5193 160.581 15.7549 158.569 15.7549C157.236 15.7549 156 16.3009 155.273 17.1746L155.128 16.1262H151.637V27.0473H155.394Z" fill="#0A0A0A"/>
<path d="M0 20.6001C0 11.172 0 6.45796 3.25017 3.52903C6.50034 0.600098 11.7314 0.600098 22.1935 0.600098C32.6557 0.600098 37.8867 0.600098 41.137 3.52903C44.3871 6.45796 44.3871 11.172 44.3871 20.6001C44.3871 30.0282 44.3871 34.7422 41.137 37.6712C37.8867 40.6001 32.6557 40.6001 22.1935 40.6001C11.7314 40.6001 6.50034 40.6001 3.25017 37.6712C0 34.7422 0 30.0282 0 20.6001Z" fill="#0A0A0A"/>
<path d="M26.6329 26.6001C27.2458 26.6001 27.7538 27.0522 27.6321 27.5935C27.4169 28.5495 26.8943 29.4356 26.1175 30.1356C25.077 31.0733 23.6658 31.6001 22.1942 31.6001C20.7227 31.6001 19.3115 31.0733 18.271 30.1356C17.4942 29.4356 16.9715 28.5495 16.7565 27.5935C16.6346 27.0522 17.1426 26.6001 17.7555 26.6001H26.6329Z" fill="#0A0A0A"/>
<path d="M28.9652 18.3766C28.3732 18.5195 28.0106 19.0776 28.3108 19.5591C28.6267 20.0659 29.0637 20.5082 29.5953 20.8515C30.43 21.3905 31.4463 21.6521 32.4711 21.5915C33.4958 21.531 34.4655 21.1522 35.215 20.5196C35.9646 19.887 36.4474 19.0397 36.5814 18.1222C36.7155 17.2047 36.4924 16.2737 35.9501 15.4878C35.4078 14.702 34.5799 14.1099 33.6075 13.8124C32.6351 13.5149 31.5783 13.5305 30.6173 13.8565C30.0052 14.0641 29.4561 14.3894 29.0053 14.8052C28.5771 15.2003 28.767 15.824 29.2977 16.1001L29.8607 16.393C30.7168 16.8385 30.548 17.9944 29.593 18.225L28.9652 18.3766Z" fill="#0A0A0A"/>
<path d="M15.4218 18.3766C16.0139 18.5195 16.3764 19.0776 16.0762 19.5591C15.7603 20.0659 15.3233 20.5082 14.7918 20.8515C13.9571 21.3905 12.9407 21.6521 11.916 21.5915C10.8913 21.531 9.92154 21.1522 9.17203 20.5196C8.42252 19.887 7.9396 19.0397 7.80556 18.1222C7.67152 17.2047 7.89465 16.2737 8.43693 15.4878C8.97921 14.702 9.8071 14.1099 10.7795 13.8124C11.7519 13.5149 12.8088 13.5305 13.7699 13.8565C14.3819 14.0641 14.931 14.3894 15.3818 14.8052C15.81 15.2003 15.62 15.824 15.0893 16.1001L14.5263 16.393C13.6702 16.8385 13.8391 17.9944 14.794 18.225L15.4218 18.3766Z" fill="#0A0A0A"/>
</g>
<defs>
<clipPath id="clip0_8250_3227">
<rect width="172" height="40" fill="white" transform="translate(0 0.600098)"/>
</clipPath>
</defs>
</svg>
