<svg width="172" height="41" viewBox="0 0 172 41" fill="none" xmlns="http://www.w3.org/2000/svg">
<g clip-path="url(#clip0_8250_3228)">
<path d="M51.8809 29.208H63.9735V25.6958H56.1788V12.4666H51.8809V29.208Z" fill="#0A0A0A"/>
<path d="M71.1369 26.8667C69.4129 26.8667 68.5144 25.415 68.5144 23.2375C68.5144 21.0599 69.4129 19.5848 71.1369 19.5848C72.8609 19.5848 73.7837 21.0599 73.7837 23.2375C73.7837 25.415 72.8609 26.8667 71.1369 26.8667ZM71.1612 29.5828C75.1678 29.5828 77.7903 26.8433 77.7903 23.2375C77.7903 19.6316 75.1678 16.8921 71.1612 16.8921C67.1789 16.8921 64.5078 19.6316 64.5078 23.2375C64.5078 26.8433 67.1789 29.5828 71.1612 29.5828Z" fill="#0A0A0A"/>
<path d="M84.7264 33.3526C86.5718 33.3526 88.1987 32.9545 89.2915 32.0179C90.287 31.1516 90.9427 29.8404 90.9427 28.0374V17.2199H87.1546V18.5077H87.106C86.3776 17.5008 85.2606 16.8687 83.6094 16.8687C80.5255 16.8687 78.3887 19.3506 78.3887 22.8628C78.3887 26.5389 80.9869 28.5526 83.7794 28.5526C85.2849 28.5526 86.2319 27.9672 86.9603 27.1711H87.0575V28.3652C87.0575 29.8169 86.3533 30.6599 84.6778 30.6599C83.3666 30.6599 82.7109 30.1213 82.4924 29.4891H78.6558C79.0443 31.9945 81.3026 33.3526 84.7264 33.3526ZM84.7021 25.7194C83.2209 25.7194 82.2496 24.5487 82.2496 22.7457C82.2496 20.9194 83.2209 19.7487 84.7021 19.7487C86.3533 19.7487 87.2275 21.1067 87.2275 22.7223C87.2275 24.4082 86.4261 25.7194 84.7021 25.7194Z" fill="#0A0A0A"/>
<path d="M98.7306 26.8667C97.0066 26.8667 96.1081 25.415 96.1081 23.2375C96.1081 21.0599 97.0066 19.5848 98.7306 19.5848C100.455 19.5848 101.377 21.0599 101.377 23.2375C101.377 25.415 100.455 26.8667 98.7306 26.8667ZM98.7549 29.5828C102.761 29.5828 105.384 26.8433 105.384 23.2375C105.384 19.6316 102.761 16.8921 98.7549 16.8921C94.7726 16.8921 92.1016 19.6316 92.1016 23.2375C92.1016 26.8433 94.7726 29.5828 98.7549 29.5828Z" fill="#0A0A0A"/>
<path d="M106.541 29.208H110.499V17.2197H106.541V29.208ZM106.541 15.5573H110.499V12.4666H106.541V15.5573Z" fill="#0A0A0A"/>
<path d="M112.217 33.1652H116.175V27.9672H116.223C117 28.974 118.142 29.5828 119.744 29.5828C122.998 29.5828 125.159 27.1008 125.159 23.214C125.159 19.6082 123.144 16.8687 119.841 16.8687C118.142 16.8687 116.928 17.5945 116.078 18.6716H116.005V17.2199H112.217V33.1652ZM118.724 26.6326C117.025 26.6326 116.053 25.2979 116.053 23.3545C116.053 21.4111 116.928 19.936 118.652 19.936C120.351 19.936 121.153 21.294 121.153 23.3545C121.153 25.3916 120.23 26.6326 118.724 26.6326Z" fill="#0A0A0A"/>
<path d="M131.603 29.5828C134.857 29.5828 137.261 28.2247 137.261 25.6023C137.261 22.535 134.687 21.9965 132.501 21.6452C130.923 21.3643 129.515 21.2472 129.515 20.4043C129.515 19.655 130.267 19.3038 131.239 19.3038C132.331 19.3038 133.084 19.6316 133.23 20.7087H136.872C136.678 18.3438 134.784 16.8687 131.263 16.8687C128.325 16.8687 125.897 18.1799 125.897 20.7087C125.897 23.5184 128.203 24.0804 130.365 24.4316C132.016 24.7126 133.521 24.8296 133.521 25.9067C133.521 26.6794 132.769 27.1008 131.579 27.1008C130.267 27.1008 129.442 26.5155 129.296 25.3213H125.557C125.678 27.9672 127.961 29.5828 131.603 29.5828Z" fill="#0A0A0A"/>
<path d="M142.636 29.5592C144.36 29.5592 145.453 28.9036 146.352 27.7329H146.424V29.208H150.213V17.2197H146.255V23.9163C146.255 25.3446 145.429 26.328 144.069 26.328C142.806 26.328 142.199 25.6022 142.199 24.2909V17.2197H138.266V25.087C138.266 27.7563 139.771 29.5592 142.636 29.5592Z" fill="#0A0A0A"/>
<path d="M151.936 29.2082H155.894V22.4882C155.894 21.0599 156.622 20.053 157.86 20.053C159.05 20.053 159.609 20.8023 159.609 22.0901V29.2082H163.567V22.4882C163.567 21.0599 164.271 20.053 165.534 20.053C166.724 20.053 167.282 20.8023 167.282 22.0901V29.2082H171.24V21.4111C171.24 18.7184 169.832 16.8687 167.015 16.8687C165.412 16.8687 164.077 17.5243 163.105 18.976H163.057C162.426 17.6882 161.187 16.8687 159.56 16.8687C157.763 16.8687 156.573 17.6882 155.796 18.9291H155.724V17.2199H151.936V29.2082Z" fill="#0A0A0A"/>
<path fill-rule="evenodd" clip-rule="evenodd" d="M20.3388 39.9399C31.5145 39.9399 40.5741 31.204 40.5741 20.4277C40.5741 9.65143 31.5145 0.915527 20.3388 0.915527C9.16315 0.915527 0.103516 9.65143 0.103516 20.4277C0.103516 31.204 9.16315 39.9399 20.3388 39.9399ZM23.4621 15.9912C25.1869 14.3279 25.1869 11.6312 23.4621 9.96788C21.7371 8.30458 18.9405 8.30458 17.2156 9.96788C15.4907 11.6312 15.4907 14.3279 17.2156 15.9912L20.3388 19.0028L23.4621 15.9912ZM24.9398 23.4394C26.6647 25.1027 29.4613 25.1027 31.1863 23.4394C32.9112 21.7761 32.9112 19.0794 31.1863 17.4161C29.4613 15.7529 26.6647 15.7529 24.9398 17.4161L21.8166 20.4278L24.9398 23.4394ZM23.4621 30.8876C25.1869 29.2243 25.1869 26.5276 23.4621 24.8643L20.3388 21.8527L17.2156 24.8643C15.4907 26.5276 15.4907 29.2243 17.2156 30.8876C18.9405 32.5509 21.7371 32.5509 23.4621 30.8876ZM9.4913 23.4394C7.76641 21.7761 7.76641 19.0794 9.4913 17.4161C11.2163 15.7529 14.0129 15.7529 15.7379 17.4161L18.8611 20.4278L15.7379 23.4394C14.0129 25.1027 11.2163 25.1027 9.4913 23.4394Z" fill="#0A0A0A"/>
</g>
<defs>
<clipPath id="clip0_8250_3228">
<rect width="172" height="40" fill="white" transform="translate(0 0.600098)"/>
</clipPath>
</defs>
</svg>
