<svg width="172" height="41" viewBox="0 0 172 41" fill="none" xmlns="http://www.w3.org/2000/svg">
<g clip-path="url(#clip0_8250_3231)">
<path d="M96.5371 30.1239H100.216V12.5353H96.5371V30.1239ZM96.5371 9.79248H100.216V5.60962H96.5371V9.79248Z" fill="#0A0A0A"/>
<path d="M102.588 35.8838H106.267V28.1352H106.321C107.105 29.6438 108.377 30.6381 110.324 30.6381C113.895 30.6381 116.33 27.0381 116.33 21.3467C116.33 15.8609 113.976 12.0552 110.297 12.0552C108.404 12.0552 107.105 13.1867 106.213 14.7295H106.131V12.5352H102.588V35.8838ZM109.54 26.7638C107.349 26.7638 106.186 24.6724 106.186 21.4838C106.186 18.3295 107.105 15.8267 109.405 15.8267C111.677 15.8267 112.596 18.1581 112.596 21.4838C112.596 24.8095 111.406 26.7638 109.54 26.7638Z" fill="#0A0A0A"/>
<path d="M123.668 30.6381C127.13 30.6381 129.511 28.5124 129.511 24.9809C129.511 20.8667 126.941 20.0438 124.614 19.4267C122.64 18.9124 120.8 18.7752 120.8 17.2667C120.8 15.9981 121.747 15.3124 123.181 15.3124C124.75 15.3124 125.697 15.9981 125.859 17.8838H129.186C128.916 14.3524 126.887 12.0552 123.235 12.0552C120.07 12.0552 117.581 13.8724 117.581 17.6781C117.581 21.5181 120.016 22.3752 122.505 22.9924C124.398 23.4724 126.156 23.6438 126.156 25.3238C126.156 26.5581 125.237 27.3467 123.614 27.3467C121.963 27.3467 120.827 26.4552 120.584 24.4324H117.176C117.392 28.1695 119.637 30.6381 123.668 30.6381Z" fill="#0A0A0A"/>
<path d="M143.479 30.124V12.5354H139.8V22.684C139.8 25.0154 138.745 26.6611 137.014 26.6611C135.445 26.6611 134.715 25.5297 134.715 23.4726V12.5354H131.062V24.2611C131.062 28.1011 132.794 30.604 135.878 30.604C137.826 30.604 138.907 29.6783 139.854 28.0669H139.935V30.124H143.479Z" fill="#0A0A0A"/>
<path d="M145.857 30.1238H149.536V19.9067C149.536 17.5752 150.538 16.0667 152.026 16.0667C153.378 16.0667 154.162 17.0952 154.162 19.0838V30.1238H157.841V19.9067C157.841 17.5752 158.788 16.0667 160.33 16.0667C161.683 16.0667 162.467 17.0952 162.467 19.0838V30.1238H166.146V18.2952C166.146 14.4552 164.496 12.0552 161.574 12.0552C159.816 12.0552 158.355 13.2209 157.408 15.1409H157.355C156.678 13.2895 155.272 12.0552 153.513 12.0552C151.593 12.0552 150.24 13.2895 149.483 14.9009H149.402V12.5352H145.857V30.1238Z" fill="#0A0A0A"/>
<path d="M0.650391 30.1239H4.32934V5.60962H0.650391V30.1239Z" fill="#0A0A0A"/>
<path d="M13.324 30.6381C17.6251 30.6381 20.5736 26.5924 20.5736 21.3467C20.5736 16.1009 17.6251 12.0552 13.324 12.0552C9.02277 12.0552 6.07422 16.1009 6.07422 21.3467C6.07422 26.5924 9.02277 30.6381 13.324 30.6381ZM13.324 27.0724C11.0517 27.0724 9.80727 24.7752 9.80727 21.3467C9.80727 17.9181 11.0517 15.5867 13.324 15.5867C15.5692 15.5867 16.8406 17.9181 16.8406 21.3467C16.8406 24.7752 15.5692 27.0724 13.324 27.0724Z" fill="#0A0A0A"/>
<path d="M28.3972 36.1238C30.4531 36.1238 32.2385 35.5067 33.4016 34.1352C34.4296 32.9352 35.0518 31.2552 35.0518 28.7867V12.5352H31.5082V14.3867H31.454C30.6154 12.9124 29.344 12.0552 27.6127 12.0552C24.0961 12.0552 21.6074 15.4152 21.6074 20.6609C21.6074 25.9752 24.6371 29.0609 27.721 29.0609C29.4793 29.0609 30.5343 28.1695 31.3458 27.0038H31.427V28.9238C31.427 31.3238 30.426 32.5924 28.3431 32.5924C26.6389 32.5924 25.8544 31.7352 25.5569 30.6381H21.905C22.2837 34.0667 24.6101 36.1238 28.3972 36.1238ZM28.3431 25.3238C26.4495 25.3238 25.2052 23.5752 25.2052 20.5924C25.2052 17.6438 26.4495 15.7924 28.3161 15.7924C30.5343 15.7924 31.6163 17.9867 31.6163 20.5581C31.6163 23.1638 30.6695 25.3238 28.3431 25.3238Z" fill="#0A0A0A"/>
<path d="M43.9958 30.6381C48.2969 30.6381 51.2455 26.5924 51.2455 21.3467C51.2455 16.1009 48.2969 12.0552 43.9958 12.0552C39.6947 12.0552 36.7461 16.1009 36.7461 21.3467C36.7461 26.5924 39.6947 30.6381 43.9958 30.6381ZM43.9958 27.0724C41.7235 27.0724 40.4792 24.7752 40.4792 21.3467C40.4792 17.9181 41.7235 15.5867 43.9958 15.5867C46.241 15.5867 47.5125 17.9181 47.5125 21.3467C47.5125 24.7752 46.241 27.0724 43.9958 27.0724Z" fill="#0A0A0A"/>
<path d="M167.482 9.64781C167.482 8.85883 167.987 8.21924 168.61 8.21924H170.864C171.487 8.21924 171.992 8.85883 171.992 9.64781C171.992 10.4368 171.487 11.0764 170.864 11.0764H168.61C167.987 11.0764 167.482 10.4368 167.482 9.64781Z" fill="#0A0A0A"/>
<path fill-rule="evenodd" clip-rule="evenodd" d="M73.5552 0.600098C82.2698 0.600098 89.3353 9.55441 89.3353 20.6001C89.3353 31.6458 82.2698 40.6001 73.5552 40.6001C64.8403 40.6001 57.7754 31.6458 57.7754 20.6001C57.7754 9.55441 64.8403 0.600098 73.5552 0.600098ZM72.9848 2.09669C71.1846 2.41779 69.4704 4.25118 68.1398 7.3175C67.7538 8.20693 67.4056 9.18956 67.1021 10.2505C68.9114 9.67427 70.899 9.33452 72.9848 9.28197V2.09669ZM65.7684 10.7309C66.1459 9.22968 66.6075 7.8485 67.1403 6.62075C67.7999 5.10069 68.5827 3.78805 69.4648 2.77987C64.6686 4.54533 60.8881 9.33689 59.4952 15.4158C60.2906 14.2979 61.3262 13.3057 62.5256 12.4697C63.4943 11.7944 64.584 11.2092 65.7684 10.7309ZM65.3895 12.4212C64.9348 14.7144 64.6668 17.2335 64.6253 19.8772H58.9561C59.2095 17.5955 60.656 15.4229 63.0754 13.7365C63.7771 13.2473 64.5523 12.8059 65.3895 12.4212ZM65.7662 19.8772C65.8133 16.9921 66.1411 14.2835 66.6833 11.8903C68.5715 11.2031 70.7085 10.7877 72.9848 10.728V13.8509C72.1357 16.6063 70.4037 18.8013 68.2296 19.8772H65.7662ZM64.6253 21.323H58.9561C59.2095 23.6047 60.656 25.7772 63.0754 27.4637C63.7771 27.9529 64.5523 28.3943 65.3895 28.779C64.9348 26.4858 64.6668 23.9667 64.6253 21.323ZM66.6833 29.3099C66.1411 26.9167 65.8133 24.2081 65.7662 21.323H68.2296C70.4037 22.3989 72.1357 24.5939 72.9848 27.3493V30.4722C70.7085 30.4125 68.5715 29.9971 66.6833 29.3099ZM65.7684 30.4693C64.584 29.991 63.4943 29.4058 62.5256 28.7305C61.3262 27.8945 60.2906 26.9023 59.4952 25.7844C60.8881 31.8633 64.6686 36.6549 69.4648 38.4203C68.5827 37.4121 67.7999 36.0995 67.1403 34.5794C66.6075 33.3517 66.1459 31.9705 65.7684 30.4693ZM72.9848 39.1035C71.1846 38.7824 69.4704 36.949 68.1398 33.8827C67.7538 32.9933 67.4056 32.0106 67.1021 30.9497C68.9114 31.5259 70.899 31.8657 72.9848 31.9182V39.1035ZM77.6456 38.4203C78.5276 37.4121 79.3103 36.0995 79.9699 34.5794C80.5025 33.3517 80.9649 31.9705 81.342 30.4693C82.5263 29.991 83.6159 29.4058 84.5848 28.7305C85.784 27.8945 86.82 26.9023 87.6153 25.7844C86.2219 31.8633 82.4419 36.6549 77.6456 38.4203ZM80.0086 30.9497C79.7048 32.0106 79.3561 32.9933 78.9703 33.8827C77.6399 36.949 75.9257 38.7824 74.1255 39.1035V31.9182C76.2113 31.8657 78.1989 31.5259 80.0086 30.9497ZM81.7207 28.779C82.5578 28.3943 83.3334 27.9529 84.0348 27.4637C86.4547 25.7773 87.9009 23.6047 88.1541 21.323H82.4852C82.4434 23.9667 82.1752 26.4858 81.7207 28.779ZM81.3444 21.323C81.297 24.2081 80.9696 26.9167 80.4268 29.3099C78.5389 29.9971 76.4018 30.4125 74.1255 30.4722V27.3516C74.9744 24.5952 76.7068 22.3992 78.8815 21.323H81.3444ZM82.4852 19.8772H88.1541C87.9009 17.5955 86.4547 15.4229 84.0348 13.7365C83.3334 13.2473 82.5578 12.8059 81.7207 12.4212C82.1752 14.7144 82.4434 17.2335 82.4852 19.8772ZM80.4268 11.8903C80.9696 14.2835 81.297 16.9921 81.3444 19.8772H78.8815C76.7068 18.801 74.9744 16.605 74.1255 13.8486V10.728C76.4018 10.7877 78.5389 11.2031 80.4268 11.8903ZM81.342 10.7309C82.5263 11.2092 83.6159 11.7944 84.5848 12.4697C85.784 13.3057 86.82 14.2979 87.6153 15.4158C86.2219 9.33689 82.4419 4.54533 77.6456 2.77987C78.5276 3.78805 79.3103 5.10069 79.9699 6.62075C80.5025 7.8485 80.9649 9.22968 81.342 10.7309ZM74.1255 2.09669C75.9257 2.41779 77.6399 4.25118 78.9703 7.3175C79.3561 8.20694 79.7048 9.18956 80.0086 10.2505C78.1989 9.67427 76.2113 9.33452 74.1255 9.28197V2.09669Z" fill="#0A0A0A"/>
</g>
<defs>
<clipPath id="clip0_8250_3231">
<rect width="172" height="40" fill="white" transform="translate(0 0.600098)"/>
</clipPath>
</defs>
</svg>
