<svg width="64" height="65" viewBox="0 0 64 65" fill="none" xmlns="http://www.w3.org/2000/svg">
<path fill-rule="evenodd" clip-rule="evenodd" d="M34.5554 4.42987C35.0453 4.93168 35.43 5.52633 35.6869 6.17889C35.9438 6.83145 36.0678 7.52888 36.0514 8.23V8.966C36.8988 8.58547 37.8397 8.46346 38.7562 8.61525C39.6726 8.76705 40.5239 9.18576 41.2034 9.81919C41.6942 10.3253 42.0792 10.9242 42.3361 11.5807C42.5929 12.2373 42.7164 12.9384 42.6994 13.6432V16.662C43.3175 16.3823 43.989 16.2403 44.6674 16.2459C45.8536 16.2353 46.9967 16.69 47.8514 17.5126C48.3413 18.0144 48.726 18.609 48.9829 19.2616C49.2398 19.9141 49.3638 20.6116 49.3474 21.3127V42.3207C49.4523 45.0144 49.0059 47.7012 48.0356 50.2163C47.0653 52.7315 45.5916 55.0219 43.7047 56.9473C40.3595 60.0842 35.9454 61.8301 31.3594 61.8301C26.7734 61.8301 22.3594 60.0842 19.0141 56.9473C17.1234 55.0235 15.6456 52.7339 14.6712 50.2188C13.6968 47.7036 13.2463 45.016 13.3474 42.3207V29.3526C13.3339 28.6499 13.4612 27.9518 13.7218 27.2992C13.9824 26.6465 14.371 26.0526 14.8647 25.5526C15.7195 24.7301 16.8626 24.2754 18.0487 24.286C18.7269 24.2798 19.3984 24.4207 20.0167 24.6992V13.6193C20.0004 12.9182 20.1243 12.2208 20.3812 11.5682C20.6381 10.9157 21.0228 10.321 21.5127 9.81919C22.1838 9.17144 23.0358 8.74308 23.9559 8.59068C24.876 8.43828 25.8207 8.56919 26.6647 8.966V8.23C26.6484 7.52888 26.7723 6.83145 27.0292 6.17889C27.2861 5.52633 27.6708 4.93168 28.1607 4.42987C29.0155 3.60733 30.1586 3.15265 31.3447 3.16327C32.5243 3.21004 33.6528 3.65667 34.5447 4.42987H34.5554ZM31.3554 6.10988C30.8515 6.0981 30.3621 6.27936 29.9874 6.61656C29.7817 6.82592 29.6237 7.07735 29.5242 7.35353C29.4248 7.62971 29.3863 7.9242 29.4114 8.21665V31.7339C29.4282 31.9237 29.4053 32.115 29.3442 32.2954C29.283 32.4759 29.185 32.6417 29.0564 32.7822C28.9277 32.9228 28.7712 33.0351 28.5968 33.1118C28.4224 33.1886 28.234 33.2282 28.0434 33.2282C27.8529 33.2282 27.6644 33.1886 27.49 33.1118C27.3156 33.0351 27.1591 32.9228 27.0305 32.7822C26.9018 32.6417 26.8038 32.4759 26.7427 32.2954C26.6815 32.115 26.6586 31.9237 26.6754 31.7339V13.7206C26.6766 13.0972 26.4743 12.4905 26.0994 11.9925C25.728 11.6471 25.2387 11.4564 24.7314 11.4593C24.456 11.4498 24.1818 11.4998 23.9276 11.606C23.6733 11.7122 23.445 11.872 23.2581 12.0746C23.0713 12.2771 22.9304 12.5175 22.845 12.7795C22.7596 13.0415 22.7318 13.3189 22.7634 13.5926V41.8779C22.7802 42.0677 22.7573 42.259 22.6962 42.4395C22.635 42.6199 22.537 42.7857 22.4084 42.9263C22.2797 43.0668 22.1232 43.1789 21.9488 43.2557C21.7744 43.3325 21.586 43.3722 21.3954 43.3722C21.2049 43.3722 21.0164 43.3325 20.842 43.2557C20.6676 43.1789 20.5111 43.0668 20.3825 42.9263C20.2538 42.7857 20.1558 42.6199 20.0947 42.4395C20.0335 42.259 20.0106 42.0677 20.0274 41.8779V29.4619C20.0328 28.8379 19.8301 28.2299 19.4514 27.7339C19.072 27.3875 18.5758 27.197 18.0621 27.2005C17.789 27.1952 17.5179 27.2476 17.2666 27.3543C17.0152 27.4611 16.7892 27.6199 16.6034 27.82C16.4176 28.0202 16.2762 28.2572 16.1884 28.5158C16.1006 28.7744 16.0685 29.0488 16.0941 29.3207V42.2886C15.9825 44.5772 16.3468 46.864 17.1638 49.0047C17.9808 51.1455 19.2328 53.0936 20.8407 54.7259C23.7008 57.3784 27.4574 58.8522 31.3581 58.8522C35.2588 58.8522 39.0154 57.3784 41.8754 54.7259C43.4834 53.0936 44.7354 51.1455 45.5524 49.0047C46.3694 46.864 46.7336 44.5772 46.6221 42.2886V21.2806C46.6541 20.8837 46.5653 20.4864 46.3673 20.141C46.1694 19.7955 45.8715 19.518 45.513 19.3449C45.1544 19.1718 44.7518 19.1113 44.3582 19.1712C43.9646 19.2312 43.5983 19.4087 43.3074 19.6807C43.0854 19.9104 42.9167 20.1863 42.8135 20.4886C42.7103 20.791 42.6749 21.1123 42.7101 21.4299V34.3526C42.7269 34.5424 42.704 34.7336 42.6428 34.9141C42.5817 35.0945 42.4837 35.2604 42.355 35.4009C42.2264 35.5414 42.0699 35.6537 41.8955 35.7305C41.7211 35.8073 41.5326 35.8469 41.3421 35.8469C41.1515 35.8469 40.9631 35.8073 40.7887 35.7305C40.6143 35.6537 40.4578 35.5414 40.3291 35.4009C40.2005 35.2604 40.1025 35.0945 40.0413 34.9141C39.9802 34.7336 39.9573 34.5424 39.9741 34.3526V13.6006C40.0016 13.3027 39.9644 13.0024 39.865 12.7202C39.7655 12.4381 39.6063 12.1808 39.3981 11.966C39.0191 11.6189 38.5226 11.4283 38.0088 11.4326C37.5012 11.4284 37.0115 11.6194 36.6408 11.966C36.4326 12.1808 36.2733 12.4381 36.1739 12.7202C36.0745 13.0024 36.0372 13.3027 36.0647 13.6006V31.9339C36.0815 32.1237 36.0586 32.315 35.9975 32.4955C35.9364 32.6759 35.8384 32.8417 35.7097 32.9823C35.581 33.1228 35.4245 33.2349 35.2501 33.3117C35.0757 33.3885 34.8873 33.4282 34.6968 33.4282C34.5062 33.4282 34.3178 33.3885 34.1434 33.3117C33.969 33.2349 33.8125 33.1228 33.6838 32.9823C33.5551 32.8417 33.4571 32.6759 33.396 32.4955C33.3349 32.315 33.312 32.1237 33.3287 31.9339C33.3287 24.0122 33.3287 16.0965 33.3287 8.18719C33.3509 7.89316 33.309 7.59788 33.2058 7.32163C33.1027 7.04539 32.9408 6.79484 32.7314 6.58726C32.3567 6.25007 31.8673 6.06881 31.3634 6.08059L31.3554 6.10988Z" fill="black"/>
</svg>
