<svg width="60" height="60" viewBox="0 0 60 60" fill="none" xmlns="http://www.w3.org/2000/svg">
<path d="M45.7838 59.0511C41.9531 57.4209 38.7665 54.5736 36.7172 50.9498H4.31717C3.34939 50.9483 2.42164 50.5633 1.73732 49.8789C1.05299 49.1946 0.667915 48.2669 0.666504 47.2991L0.666504 3.81375C0.66721 2.84575 1.05206 1.9176 1.73654 1.23312C2.42102 0.548642 3.34917 0.163792 4.31717 0.163086L45.8852 0.163086C46.8532 0.163792 47.7813 0.548642 48.4658 1.23312C49.1503 1.9176 49.5351 2.84575 49.5358 3.81375V31.4004L58.4718 36.0058C58.8812 36.2144 59.2264 36.5302 59.4706 36.9195C59.7148 37.3088 59.8488 37.757 59.8585 38.2164V38.2324C59.9371 41.5824 59.376 44.9167 58.2052 48.0564C57.3147 50.5016 55.9324 52.7384 54.1436 54.6285C52.3549 56.5186 50.1977 58.022 47.8052 59.0458C47.1578 59.2985 46.4392 59.2985 45.7918 59.0458L45.7838 59.0511ZM36.5038 38.4378C36.4299 42.005 37.1944 45.5399 38.7358 48.7578C38.7635 48.8154 38.7867 48.8752 38.8052 48.9364C38.8185 48.9738 38.8292 49.0004 38.8478 49.0431C40.593 52.3291 43.3943 54.9313 46.7998 56.4298C48.8406 55.5337 50.6766 54.2298 52.195 52.5982C53.7134 50.9665 54.882 49.0416 55.6292 46.9418C56.6231 44.2191 57.1146 41.3386 57.0798 38.4404L46.7972 33.1071L36.5038 38.4378ZM3.45584 3.81375V47.2991C3.45549 47.4124 3.47751 47.5247 3.52064 47.6295C3.56376 47.7343 3.62715 47.8296 3.70717 47.9099C3.78719 47.9901 3.88226 48.0538 3.98694 48.0973C4.09161 48.1407 4.20383 48.1631 4.31717 48.1631H4.58384V48.2191H35.3945C34.1869 45.0451 33.6169 41.6642 33.7172 38.2698C33.7408 37.8157 33.8801 37.3752 34.1218 36.9902C34.3636 36.6051 34.6998 36.2883 35.0985 36.0698L45.6478 30.5978C46.0005 30.4058 46.3987 30.3136 46.7998 30.3311V3.81375C46.7998 3.58531 46.7091 3.36623 46.5476 3.2047C46.386 3.04317 46.1669 2.95242 45.9385 2.95242H34.4185V18.3658C34.4189 18.7662 34.3019 19.1579 34.082 19.4925C33.862 19.8271 33.5489 20.0899 33.1812 20.2484C32.8157 20.4109 32.4098 20.4599 32.0161 20.389C31.6224 20.3182 31.2591 20.1308 30.9732 19.8511L29.0772 18.1098L26.5332 20.4884C26.1361 20.817 25.6379 20.9987 25.1225 21.0031C24.8606 21.0149 24.5991 20.9737 24.3535 20.8821C24.1079 20.7904 23.8833 20.6502 23.6932 20.4698L21.1732 18.1044L19.2692 19.8564C18.9062 20.2165 18.4151 20.4179 17.9038 20.4164C17.6159 20.4152 17.3312 20.3562 17.0665 20.2431C16.6931 20.0929 16.3746 19.832 16.1538 19.4954C15.9331 19.1589 15.8207 18.7628 15.8318 18.3604V2.95242H4.31717C4.08873 2.95242 3.86965 3.04317 3.70812 3.2047C3.54658 3.36623 3.45584 3.58531 3.45584 3.81375ZM22.5332 15.6298L25.1145 18.0004L27.6425 15.6324C28.0244 15.2871 28.5209 15.0958 29.0358 15.0958C29.5507 15.0958 30.0473 15.2871 30.4292 15.6324L31.6185 16.6991V2.95242H18.6292V16.6831L19.7598 15.6298C20.1412 15.2887 20.6349 15.1001 21.1465 15.1001C21.6581 15.1001 22.1518 15.2887 22.5332 15.6298ZM44.6132 48.8964L40.5518 44.8351C40.4194 44.7091 40.314 44.5574 40.242 44.3894C40.17 44.2214 40.1328 44.0405 40.1328 43.8578C40.1328 43.675 40.17 43.4941 40.242 43.3261C40.314 43.1581 40.4194 43.0065 40.5518 42.8804C40.6783 42.7483 40.8302 42.6431 40.9984 42.5713C41.1666 42.4995 41.3476 42.4624 41.5305 42.4624C41.7134 42.4624 41.8944 42.4995 42.0626 42.5713C42.2308 42.6431 42.3827 42.7483 42.5092 42.8804L45.5918 45.9631L50.9865 40.5684C51.1133 40.4374 51.2652 40.3332 51.4331 40.262C51.601 40.1908 51.7815 40.1542 51.9638 40.1542C52.1462 40.1542 52.3267 40.1908 52.4946 40.262C52.6625 40.3332 52.8144 40.4374 52.9412 40.5684C53.0736 40.6945 53.179 40.8461 53.251 41.0141C53.323 41.1821 53.3602 41.363 53.3602 41.5458C53.3602 41.7285 53.323 41.9094 53.251 42.0774C53.179 42.2454 53.0736 42.3971 52.9412 42.5231L46.5705 48.8964C46.4437 49.0279 46.2916 49.1324 46.1235 49.2038C45.9553 49.2753 45.7745 49.3121 45.5918 49.3121C45.4092 49.3121 45.2283 49.2753 45.0602 49.2038C44.8921 49.1324 44.74 49.0279 44.6132 48.8964ZM9.7865 44.6324C9.11767 44.6317 8.47643 44.3657 8.00349 43.8928C7.53055 43.4198 7.26454 42.7786 7.26384 42.1098V38.3311C7.26525 37.6625 7.53148 37.0216 8.00426 36.5489C8.47705 36.0761 9.11788 35.8098 9.7865 35.8084H20.5038C20.8361 35.8049 21.1657 35.8677 21.4734 35.9932C21.7811 36.1187 22.0606 36.3044 22.2956 36.5393C22.5306 36.7743 22.7162 37.0538 22.8417 37.3615C22.9673 37.6692 23.0301 37.9988 23.0265 38.3311V42.1098C23.0258 42.7786 22.7598 43.4198 22.2869 43.8928C21.8139 44.3657 21.1727 44.6317 20.5038 44.6324H9.7865ZM9.99984 41.7871H20.1812V38.5418H9.99984V41.7871Z" fill="black"/>
</svg>
