<svg width="64" height="65" viewBox="0 0 64 65" fill="none" xmlns="http://www.w3.org/2000/svg">
<path d="M2.9665 13.6393C2.9665 10.9406 4.03904 8.35177 5.94606 6.44265C7.85519 4.53562 10.444 3.46309 13.1427 3.46309H50.857C53.5556 3.46309 56.1444 4.53558 58.0535 6.44253C59.9606 8.35167 61.0332 10.9406 61.0332 13.6393V51.3536C61.0332 56.9728 56.4762 61.5298 50.857 61.5298V61.8298C50.857 61.5298 50.8569 61.5298 50.8566 61.5298H50.8556H50.8539H50.8516H50.8485H50.8448H50.8404H50.8354H50.8297H50.8234H50.8163H50.8087H50.8004H50.7914H50.7818H50.7715H50.7606H50.749H50.7369H50.724H50.7106H50.6965H50.6818H50.6664H50.6505H50.6339H50.6166H50.5988H50.5804H50.5613H50.5416H50.5214H50.5005H50.479H50.4569H50.4342H50.4109H50.387H50.3625H50.3375H50.3118H50.2856H50.2588H50.2313H50.2034H50.1748H50.1457H50.116H50.0857H50.0548H50.0234H49.9915H49.9589H49.9258H49.8922H49.858H49.8232H49.7879H49.7521H49.7157H49.6788H49.6413H49.6033H49.5647H49.5256H49.486H49.4459H49.4052H49.364H49.3223H49.2801H49.2374H49.1941H49.1503H49.106H49.0612H49.016H48.9702H48.9239H48.8771H48.8298H48.782H48.7337H48.6849H48.6357H48.5859H48.5357H48.485H48.4338H48.3822H48.33H48.2774H48.2244H48.1708H48.1168H48.0624H48.0075H47.9521H47.8963H47.84H47.7832H47.7261H47.6684H47.6104H47.5518H47.4929H47.4335H47.3737H47.3134H47.2528H47.1916H47.1301H47.0682H47.0058H46.943H46.8798H46.8161H46.7521H46.6877H46.6228H46.5576H46.4919H46.4258H46.3594H46.2925H46.2253H46.1577H46.0897H46.0212H45.9525H45.8833H45.8137H45.7438H45.6735H45.6028H45.5318H45.4604H45.3886H45.3165H45.244H45.1711H45.0979H45.0243H44.9504H44.8762H44.8016H44.7266H44.6513H44.5757H44.4997H44.4234H44.3467H44.2698H44.1925H44.1148H44.0369H43.9586H43.88H43.8011H43.7219H43.6423H43.5625H43.4823H43.4019H43.3211H43.24H43.1587H43.077H42.9951H42.9128H42.8303H42.7475H42.6644H42.581H42.4973H42.4134H42.3291H42.2446H42.1599H42.0748H41.9895H41.904H41.8181H41.7321H41.6457H41.5591H41.4723H41.3852H41.2978H41.2102H41.1224H41.0343H40.946H40.8575H40.7687H40.6796H40.5904H40.5009H40.4112H40.3213H40.2312H40.1408H40.0502H39.9594H39.8684H39.7772H39.6858H39.5942H39.5024H39.4103H39.3181H39.2257H39.1331H39.0403H38.9473H38.8541H38.7608H38.6672H38.5735H38.4796H38.3856H38.2913H38.1969H38.1023H38.0076H37.9127H37.8176H37.7224H37.627H37.5315H37.4358H37.34H37.244H37.1479H37.0516H36.9552H36.8587H36.762H36.6652H36.5682H36.4712H36.374H36.2766H36.1792H36.0816H35.984H35.8862H35.7883H35.6903H35.5921H35.4939H35.3956H35.2971H35.1986H35.1H35.0013H34.9025H34.8036H34.7046H34.6055H34.5063H34.4071H34.3078H34.2084H34.1089H34.0094H33.9098H33.8101H33.7104H33.6106H33.5107H33.4108H33.3109H33.2109H33.1108H33.0107H32.9105H32.8103H32.7101H32.6098H32.5095H32.4091H32.3087H32.2083H32.1079H32.0074H31.9069H31.8064H31.7059H31.6053H31.5047H31.4042H31.3036H31.203H31.1024H31.0018H30.9012H30.8007H30.7001H30.5995H30.4989H30.3984H30.2978H30.1973H30.0968H29.9963H29.8959H29.7954H29.695H29.5946H29.4943H29.394H29.2937H29.1935H29.0933H28.9931H28.893H28.793H28.693H28.593H28.4931H28.3933H28.2935H28.1938H28.0942H27.9946H27.8951H27.7956H27.6963H27.597H27.4978H27.3986H27.2996H27.2006H27.1017H27.003H26.9043H26.8057H26.7072H26.6088H26.5105H26.4123H26.3142H26.2162H26.1183H26.0206H25.9229H25.8254H25.728H25.6307H25.5335H25.4365H25.3396H25.2428H25.1462H25.0497H24.9533H24.8571H24.761H24.6651H24.5693H24.4737H24.3782H24.2828H24.1877H24.0927H23.9978H23.9031H23.8086H23.7142H23.62H23.526H23.4322H23.3385H23.245H23.1517H23.0586H22.9657H22.8729H22.7804H22.688H22.5959H22.5039H22.4122H22.3206H22.2292H22.1381H22.0472H21.9564H21.8659H21.7756H21.6855H21.5957H21.5061H21.4166H21.3275H21.2385H21.1498H21.0613H20.9731H20.8851H20.7973H20.7098H20.6225H20.5355H20.4487H20.3622H20.2759H20.1899H20.1042H20.0187H19.9335H19.8485H19.7638H19.6794H19.5953H19.5114H19.4278H19.3445H19.2615H19.1788H19.0963H19.0142H18.9323H18.8507H18.7695H18.6885H18.6078H18.5274H18.4474H18.3676H18.2882H18.2091H18.1302H18.0517H17.9736H17.8957H17.8182H17.741H17.6641H17.5875H17.5113H17.4355H17.3599H17.2847H17.2099H17.1354H17.0612H16.9874H16.9139H16.8408H16.7681H16.6957H16.6237H16.552H16.4807H16.4098H16.3392H16.269H16.1992H16.1298H16.0607H15.992H15.9237H15.8558H15.7883H15.7212H15.6545H15.5881H15.5222H15.4567H15.3915H15.3268H15.2625H15.1986H15.1351H15.072H15.0093H14.9471H14.8852H14.8238H14.7628H14.7023H14.6422H14.5825H14.5232H14.4644H14.406H14.3481H14.2906H14.2335H14.1769H14.1208H14.0651H14.0099H13.9551H13.9008H13.8469H13.7935H13.7406H13.6881H13.6361H13.5846H13.5336H13.483H13.4329H13.3833H13.3342H13.2856H13.2375H13.1898H13.1427C10.444 61.5298 7.85509 60.4572 5.94595 58.5501C4.039 56.641 2.9665 54.0522 2.9665 51.3536V13.6393ZM30.2046 53.145V52.9214L29.9903 52.8575C27.0862 51.9913 24.9665 49.2979 24.9665 46.1155C24.9665 42.933 27.0862 40.2397 29.9903 39.3734L30.2046 39.3095V39.0859V34.5917V34.2917H29.9046H23.6189C22.628 34.2917 21.8236 33.4873 21.8236 32.4964C21.8236 30.5959 20.2813 29.0536 18.3808 29.0536C16.4802 29.0536 14.9379 30.5959 14.9379 32.4964C14.9379 33.4873 14.1336 34.2917 13.1427 34.2917H6.85698H6.55698V34.5917V51.3536C6.55698 53.1008 7.25059 54.7758 8.48656 56.0097C9.72045 57.2457 11.3955 57.9393 13.1427 57.9393H29.9046H30.2046V57.6393V53.145ZM34.0951 34.2917H33.7951V34.5917V40.8774C33.7951 41.8683 32.9907 42.6726 31.9998 42.6726C30.0993 42.6726 28.557 44.2149 28.557 46.1155C28.557 48.016 30.0993 49.5583 31.9998 49.5583C32.9907 49.5583 33.7951 50.3627 33.7951 51.3536V57.6393V57.9393H34.0951H50.857C54.4945 57.9393 57.4427 54.9911 57.4427 51.3536V34.5917V34.2917H57.1427H52.6484H52.4248L52.3609 34.5059C51.4947 37.4101 48.8013 39.5298 45.6189 39.5298C42.4365 39.5298 39.7431 37.4101 38.8768 34.5059L38.8129 34.2917H38.5894H34.0951ZM57.1427 30.7012H57.4427V30.4012V13.6393C57.4427 11.892 56.7491 10.217 55.5131 8.98314C54.2792 7.74717 52.6042 7.05356 50.857 7.05356H34.0951H33.7951V7.35356V7.36488V7.3762V7.38755V7.3989V7.41027V7.42166V7.43306V7.44447V7.4559V7.46733V7.47879V7.49025V7.50173V7.51322V7.52472V7.53623V7.54776V7.5593V7.57085V7.58242V7.59399V7.60558V7.61717V7.62878V7.6404V7.65203V7.66368V7.67533V7.68699V7.69866V7.71035V7.72204V7.73375V7.74546V7.75718V7.76891V7.78066V7.79241V7.80417V7.81594V7.82772V7.8395V7.8513V7.8631V7.87491V7.88673V7.89856V7.9104V7.92224V7.93409V7.94595V7.95782V7.96969V7.98157V7.99345V8.00535V8.01725V8.02915V8.04107V8.05298V8.06491V8.07684V8.08877V8.10071V8.11266V8.12461V8.13657V8.14853V8.1605V8.17247V8.18445V8.19643V8.20841V8.2204V8.23239V8.24439V8.25639V8.26839V8.2804V8.29241V8.30442V8.31644V8.32846V8.34048V8.3525V8.36453V8.37656V8.38859V8.40062V8.41266V8.42469V8.43673V8.44877V8.46081V8.47285V8.48489V8.49694V8.50898V8.52103V8.53307V8.54511V8.55716V8.5692V8.58125V8.59329V8.60534V8.61738V8.62942V8.64147V8.65351V8.66555V8.67758V8.68962V8.70165V8.71369V8.72572V8.73775V8.74978V8.7618V8.77382V8.78584V8.79786V8.80987V8.82188V8.83389V8.84589V8.85789V8.86989V8.88189V8.89387V8.90586V8.91784V8.92982V8.94179V8.95376V8.96572V8.97768V8.98963V9.00158V9.01352V9.02546V9.03739V9.04931V9.06123V9.07315V9.08505V9.09696V9.10885V9.12074V9.13262V9.14449V9.15636V9.16822V9.18007V9.19192V9.20375V9.21558V9.2274V9.23922V9.25102V9.26282V9.27461V9.28639V9.29816V9.30992V9.32167V9.33342V9.34515V9.35688V9.36859V9.3803V9.39199V9.40368V9.41535V9.42702V9.43867V9.45032V9.46195V9.47357V9.48518V9.49678V9.50837V9.51995V9.53151V9.54307V9.55461V9.56614V9.57766V9.58916V9.60065V9.61213V9.6236V9.63505V9.6465V9.65792V9.66934V9.68074V9.69213V9.7035V9.71486V9.7262V9.73754V9.74885V9.76016V9.77144V9.78272V9.79397V9.80522V9.81644V9.82766V9.83885V9.85004V9.8612V9.87235V9.88348V9.8946V9.9057V9.91679V9.92785V9.9389V9.94994V9.96096V9.97196V9.98294V9.9939V10.0048V10.0158V10.0267V10.0376V10.0485V10.0593V10.0702V10.081V10.0918V10.1026V10.1133V10.1241V10.1348V10.1455V10.1562V10.1668V10.1775V10.1881V10.1987V10.2093V10.2199V10.2304V10.2409V10.2514V10.2619V10.2724V10.2828V10.2932V10.3036V10.314V10.3243V10.3347V10.345V10.3553V10.3655V10.3758V10.386V10.3962V10.4063V10.4165V10.4266V10.4367V10.4468V10.4569V10.4669V10.4769V10.4869V10.4968V10.5068V10.5167V10.5265V10.5364V10.5462V10.556V10.5658V10.5756V10.5853V10.595V10.6047V10.6143V10.624V10.6336V10.6431V10.6527V10.6622V10.6717V10.6812V10.6906V10.7V10.7094V10.7188V10.7281V10.7374V10.7467V10.7559V10.7651V10.7743V10.7835V10.7926V10.8017V10.8108V10.8198V10.8288V10.8378V10.8468V10.8557V10.8646V10.8734V10.8823V10.8911V10.8999V10.9086V10.9173V10.926V10.9346V10.9433V10.9518V10.9604V10.9689V10.9774V10.9859V10.9943V11.0027V11.0111V11.0194V11.0277V11.036V11.0442V11.0524V11.0606V11.0687V11.0768V11.0848V11.0929V11.1009V11.1088V11.1168V11.1247V11.1325V11.1404V11.1481V11.1559V11.1636V11.1713V11.179V11.1866V11.1941V11.2017V11.2092V11.2167V11.2241V11.2315V11.2389V11.2462V11.2535V11.2607V11.2679V11.2751V11.2823V11.2894V11.2964V11.3035V11.3104V11.3174V11.3243V11.3312V11.338V11.3448V11.3516V11.3583V11.365V11.3716V11.3782V11.3848V11.3913V11.3978V11.4042V11.4106V11.417V11.4233V11.4296V11.4358V11.442V11.4482V11.4543V11.4604V11.4664V11.4724V11.4784V11.4843V11.4901V11.496V11.5017V11.5075V11.5132V11.5188V11.5244V11.53V11.5355V11.541V11.5465V11.5519V11.5572V11.5625V11.5678V11.573V11.5782V11.5833V11.5884V11.5935V11.5985V11.6034V11.6083V11.6132V11.618V11.6228V11.6275V11.6322V11.6368V11.6414V11.6459V11.6504V11.6549V11.6593V11.6636V11.668V11.6722V11.6764V11.6806V11.6847V11.6888V11.6928V11.6968V11.7007V11.7046V11.7084V11.7122V11.7159V11.7196V11.7233V11.7269V11.7304V11.7339V11.7373V11.7407V11.744V11.7473V11.7506V11.7538V11.7569V11.76V11.763V11.766V11.769V11.7718V11.7747V11.7775V11.7802V11.7829V11.7855V11.7881V11.7906V11.7931V11.7955V11.7978V11.8002V11.8024V11.8046V11.8068V11.8089V11.8109V11.8129V11.8149V11.8167V11.8186V11.8204V11.8221V11.8237V11.8254V11.8269V11.8284V11.8299V11.8313V11.8326V11.8339V11.8351V11.8363V11.8374V11.8385V11.8395V11.8404V11.8413V11.8422V11.8429V11.8437V11.8443V11.8449V11.8455V11.846V11.8464V11.8468V11.8471V11.8474V11.8476V11.8477V11.8478V12.0714L34.0093 12.1353C36.9135 13.0016 39.0332 15.695 39.0332 18.8774C39.0332 22.0598 36.9135 24.7532 34.0093 25.6194L33.7951 25.6833V25.9069V30.4012V30.7012H34.0951H40.3808C41.3717 30.7012 42.176 31.5055 42.176 32.4964C42.176 34.397 43.7183 35.9393 45.6189 35.9393C47.5194 35.9393 49.0617 34.397 49.0617 32.4964C49.0617 31.5055 49.8661 30.7012 50.857 30.7012H57.1427ZM29.9046 30.7012H30.2046V30.4012V24.1155C30.2046 23.1246 31.0089 22.3202 31.9998 22.3202C33.9004 22.3202 35.4427 20.7779 35.4427 18.8774C35.4427 16.9768 33.9004 15.4345 31.9998 15.4345C31.0089 15.4345 30.2046 14.6302 30.2046 13.6393V7.35356V7.05356H29.9046H13.1427C11.3955 7.05356 9.72044 7.74717 8.48656 8.98314C7.25059 10.217 6.55698 11.892 6.55698 13.6393V30.4012V30.7012H6.85698H11.3513H11.5748L11.6387 30.4869C12.505 27.5828 15.1984 25.4631 18.3808 25.4631C21.5632 25.4631 24.2566 27.5828 25.1228 30.4869L25.1867 30.7012H25.4103H29.9046Z" fill="black" stroke="#F6F4F0" stroke-width="0.6"/>
</svg>
