<svg width="64" height="65" viewBox="0 0 64 65" fill="none" xmlns="http://www.w3.org/2000/svg">
<path d="M37.5104 60.7951H26.745C26.3815 60.7951 26.0329 60.6507 25.7758 60.3936C25.5188 60.1366 25.3744 59.7879 25.3744 59.4244V41.5818C25.3744 41.2182 25.5188 40.8696 25.7758 40.6125C26.0329 40.3555 26.3815 40.2111 26.745 40.2111H37.5104C37.8741 40.2111 38.2231 40.3554 38.4805 40.6124C38.738 40.8694 38.883 41.218 38.8837 41.5818V59.4298C38.8816 59.7926 38.736 60.1399 38.4787 60.3957C38.2213 60.6515 37.8732 60.7951 37.5104 60.7951ZM28.1157 42.9524V58.0564H36.1397V42.9524H28.1157ZM15.6064 60.7951H4.83838C4.47577 60.7951 4.12795 60.6514 3.87105 60.3955C3.61415 60.1396 3.46912 59.7924 3.46771 59.4298V29.3151C3.46771 28.9513 3.61203 28.6024 3.86901 28.3449C4.12598 28.0875 4.47461 27.9425 4.83838 27.9418H15.6064C15.9706 27.9418 16.3199 28.0864 16.5775 28.344C16.835 28.6015 16.9797 28.9509 16.9797 29.3151V59.4298C16.9776 59.7926 16.832 60.1399 16.5747 60.3957C16.3173 60.6515 15.9692 60.7951 15.6064 60.7951ZM6.21171 30.6858V58.0564H14.2357V30.6858H6.21171ZM59.4277 60.7898H48.6597C48.2962 60.7898 47.9476 60.6453 47.6905 60.3883C47.4335 60.1312 47.289 59.7826 47.289 59.4191V23.7391C47.289 23.3756 47.4335 23.0269 47.6905 22.7699C47.9476 22.5128 48.2962 22.3684 48.6597 22.3684H59.425C59.6055 22.3677 59.7843 22.4027 59.9512 22.4712C60.1181 22.5398 60.2699 22.6406 60.3977 22.768C60.5255 22.8953 60.627 23.0467 60.6962 23.2133C60.7654 23.38 60.801 23.5586 60.801 23.7391V59.4298C60.7982 59.7919 60.6522 60.1382 60.3949 60.393C60.1376 60.6478 59.7899 60.7905 59.4277 60.7898ZM50.0304 25.1151V58.0538H58.057V25.1151H50.0304ZM32.1317 27.1231C31.7788 27.128 31.4384 26.9928 31.185 26.7471L17.3637 13.5284L4.83038 24.1071C4.59951 24.2652 4.32621 24.3498 4.04638 24.3498C3.84651 24.3542 3.6481 24.3147 3.46517 24.2341C3.28224 24.1535 3.11924 24.0336 2.98771 23.8831C2.75497 23.6045 2.64127 23.2454 2.67121 22.8836C2.70116 22.5218 2.87233 22.1863 3.14771 21.9498L16.5344 10.6564C16.7827 10.4445 17.0986 10.3282 17.425 10.3284C17.7765 10.3284 18.1141 10.4651 18.3664 10.7098L32.209 23.9471L50.433 9.36309L47.6944 5.82976C47.5427 5.62898 47.4478 5.39109 47.4196 5.14102C47.3914 4.89094 47.4311 4.6379 47.5344 4.40842C47.6395 4.17831 47.8062 3.98177 48.0161 3.84057C48.226 3.69937 48.4709 3.61902 48.7237 3.60842L58.9904 3.16309H59.057C59.2709 3.16262 59.4819 3.2125 59.673 3.30872C59.864 3.40493 60.0297 3.54477 60.1567 3.71691C60.2837 3.88906 60.3683 4.08867 60.4038 4.29961C60.4393 4.51054 60.4247 4.72687 60.361 4.93109L57.3344 14.7551C57.2599 14.9955 57.1212 15.211 56.9332 15.3783C56.7452 15.5456 56.5151 15.6584 56.2677 15.7044C56.1848 15.7178 56.101 15.725 56.017 15.7258C55.8081 15.724 55.6022 15.6751 55.4148 15.5828C55.2273 15.4904 55.0631 15.357 54.9344 15.1924L52.1104 11.5204L32.9904 26.8218C32.7462 27.0159 32.4437 27.1221 32.1317 27.1231ZM57.1637 5.97909L51.4677 6.22176L55.497 11.4298L57.1664 5.98976L57.1637 5.97909Z" fill="black"/>
</svg>
