<svg width="541" height="76" viewBox="0 0 541 76" fill="none" xmlns="http://www.w3.org/2000/svg">
<path d="M89.3356 25.6H97.263V53.6H89.3356V25.6Z" fill="#F13223"/>
<path d="M125.645 25.6V53.6H119.118L106.749 38.678V53.6H98.9852V25.6H105.512L117.881 40.5219V25.6H125.645Z" fill="#F13223"/>
<path d="M127.319 25.6H140.57C149.858 25.6 156.22 31.0019 156.22 39.6C156.22 48.198 149.858 53.6 140.57 53.6H127.319V25.6ZM140.249 47.2829C145.012 47.2829 148.217 44.4419 148.217 39.6C148.217 34.758 145.012 31.917 140.249 31.917H135.247V47.2761H140.249V47.2829Z" fill="#F13223"/>
<path d="M155.017 39.6C155.017 31.2 161.626 25.04 170.592 25.04C179.558 25.04 186.167 31.2 186.167 39.6C186.167 48 179.558 54.16 170.592 54.16C161.626 54.16 155.017 48 155.017 39.6ZM178.157 39.6C178.157 34.7581 174.836 31.6029 170.592 31.6029C166.348 31.6029 163.027 34.7649 163.027 39.6C163.027 44.4351 166.348 47.6039 170.592 47.6039C174.836 47.6039 178.157 44.442 178.157 39.6Z" fill="#F13223"/>
<path d="M217.549 56.8439C215.669 59.1249 212.908 60.361 209.703 60.361C205.138 60.361 202.138 58.8039 197.457 53.921C190.09 52.6781 184.964 47.0029 184.964 39.6C184.964 31.2 191.573 25.04 200.539 25.04C209.505 25.04 216.114 31.2 216.114 39.6C216.114 45.9581 212.314 51.039 206.587 53.122C207.708 54.3239 208.671 54.72 209.867 54.72C211.391 54.72 212.867 54.0371 214.111 52.76L217.556 56.8439H217.549ZM200.532 47.6039C204.776 47.6039 208.097 44.442 208.097 39.6C208.097 34.7581 204.776 31.6029 200.532 31.6029C196.288 31.6029 192.967 34.7649 192.967 39.6C192.967 44.4351 196.288 47.6039 200.532 47.6039Z" fill="#F13223"/>
<path d="M235.119 48.1639H223.269L221.068 53.6068H212.984L225.353 25.6068H233.158L245.568 53.6068H237.32L235.119 48.1639ZM232.795 42.318L229.194 33.358L225.592 42.318H232.795Z" fill="#F13223"/>
<path d="M249.846 31.8761H241.242V25.5932H266.344V31.8761H257.774V53.6H249.846V31.8761Z" fill="#F13223"/>
<path d="M122.146 65.4488L119.699 72.7083H118.893L116.767 66.521L114.628 72.7083H113.829L111.382 65.4488H112.168L114.266 71.6908L116.432 65.4488H117.15L119.289 71.7249L121.414 65.4488H122.153H122.146Z" fill="white"/>
<path d="M129.239 69.0819C129.239 66.9649 130.859 65.3873 133.06 65.3873C135.26 65.3873 136.866 66.9512 136.866 69.0819C136.866 71.2127 135.24 72.7697 133.06 72.7697C130.88 72.7697 129.239 71.1922 129.239 69.0819ZM136.101 69.0819C136.101 67.3473 134.802 66.077 133.06 66.077C131.317 66.077 129.998 67.3541 129.998 69.0819C129.998 70.8097 131.303 72.0868 133.06 72.0868C134.816 72.0868 136.101 70.8097 136.101 69.0819Z" fill="white"/>
<path d="M149.735 72.7083L148.074 70.3727C147.889 70.3932 147.698 70.4069 147.493 70.4069H145.545V72.7083H144.78V65.4488H147.5C149.345 65.4488 150.466 66.3844 150.466 67.9347C150.466 69.0752 149.865 69.8742 148.805 70.2156L150.582 72.7015H149.742L149.735 72.7083ZM149.694 67.9347C149.694 66.7737 148.928 66.1112 147.473 66.1112H145.545V69.7512H147.473C148.928 69.7512 149.694 69.0752 149.694 67.9347Z" fill="white"/>
<path d="M159.227 65.4488V72.0459H163.293V72.7083H158.455V65.4488H159.227Z" fill="white"/>
<path d="M170.763 65.4488H173.722C176.046 65.4488 177.611 66.9444 177.611 69.0751C177.611 71.2059 176.046 72.7015 173.722 72.7015H170.763V65.442V65.4488ZM173.681 72.0459C175.608 72.0459 176.859 70.8234 176.859 69.082C176.859 67.3405 175.615 66.1181 173.681 66.1181H171.535V72.0459H173.681Z" fill="white"/>
<path d="M204.4 65.4488L201.953 72.7083H201.147L199.022 66.521L196.883 72.7083H196.083L193.636 65.4488H194.422L196.52 71.6908L198.687 65.4488H199.404L201.543 71.7249L203.669 65.4488H204.407H204.4Z" fill="white"/>
<path d="M212.143 65.4488H212.908V72.7083H212.143V65.4488Z" fill="white"/>
<path d="M221.465 65.4488H224.424C226.747 65.4488 228.312 66.9444 228.312 69.0751C228.312 71.2059 226.747 72.7015 224.424 72.7015H221.465V65.442V65.4488ZM224.383 72.0459C226.31 72.0459 227.561 70.8234 227.561 69.082C227.561 67.3405 226.317 66.1181 224.383 66.1181H222.237V72.0459H224.383Z" fill="white"/>
<path d="M241.358 72.0459V72.7083H236.219V65.4488H241.201V66.1112H236.992V68.6927H240.75V69.3483H236.992V72.0459H241.358Z" fill="white"/>
<path d="M79.2882 20.0023L79.3759 76L80.8272 75.9977L80.7396 20L79.2882 20.0023Z" fill="#F13223"/>
<path d="M76.3968 60.3159C75.6683 60.5979 74.9446 60.874 74.2292 61.1415C74.1988 61.9953 74.1896 63.1366 74.1835 63.9934C74.8372 64.4025 75.6772 64.9112 76.4047 65.3506L76.3968 60.3159Z" fill="#F13223"/>
<path d="M76.4058 66.0539C75.5986 65.5813 74.5578 64.9575 73.7719 64.4831C72.8816 64.8104 72.0096 65.1195 71.1619 65.4163C71.2534 66.1538 71.4211 67.1299 71.5522 67.8612C72.3876 68.2958 73.5127 68.8527 74.3573 69.2658C75.0249 69.0306 75.7119 68.7881 76.4097 68.534L76.4058 66.0539Z" fill="#F13223"/>
<path d="M76.4157 72.3635C76.0457 72.2424 75.6848 72.1228 75.3665 72.0167C74.7415 72.2248 74.1378 72.4206 73.5584 72.6042C73.9091 73.0296 74.4274 73.5467 74.8238 73.9261C75.2972 74.0353 75.8636 74.1544 76.4187 74.2671L76.4157 72.3635Z" fill="#F13223"/>
<path d="M76.419 74.4659C75.8495 74.3563 75.2664 74.2381 74.7781 74.1373C74.5704 74.1987 74.3679 74.2572 74.1704 74.3131C73.9156 74.3853 73.6691 74.4529 73.4304 74.5167C73.967 74.7982 74.7171 75.1103 75.2811 75.3337C75.6267 75.3735 76.0186 75.4118 76.4206 75.4474L76.419 74.4659Z" fill="#F13223"/>
<path d="M76.4207 75.5531C76.0912 75.5275 75.7727 75.5014 75.4854 75.4776C75.4397 75.4867 75.397 75.499 75.3543 75.5081C75.086 75.5694 74.8482 75.6214 74.6317 75.6581C75.1595 75.7546 75.8202 75.8379 76.4213 75.9057L76.4207 75.5531Z" fill="#F13223"/>
<path d="M76.4215 75.9671C75.6867 75.8937 74.711 75.7346 73.9823 75.6091C73.0584 75.4684 71.8357 75.2297 70.921 75.0461C70.6802 75.0736 70.482 75.0828 70.3204 75.0767C70.8829 75.2318 71.6097 75.389 72.233 75.5239L72.237 75.5247L72.4854 75.5785L72.598 75.603L74.3268 75.8509L75.6928 75.9702L75.9946 75.9885C76.0693 75.9925 76.1555 75.9901 76.253 75.9829C76.3058 75.9791 76.362 75.9735 76.4215 75.9671Z" fill="#F13223"/>
<path d="M48.708 48.2161L48.7485 49.027C48.7809 49.49 48.8469 50.0515 48.909 50.5798L48.9092 50.582C48.9406 50.849 48.971 51.1074 48.9955 51.3404L49.2028 52.5337C49.2394 52.6347 49.34 52.7112 49.5047 52.7602C49.4254 51.8789 49.3949 50.6947 49.3766 49.8104C49.2211 48.8984 49.087 47.6744 48.9955 46.7564C48.843 46.7075 48.7485 46.6371 48.712 46.5422L48.7073 47.7817L48.708 48.2161Z" fill="#F13223"/>
<path d="M48.7485 45.6366C48.7849 45.7278 48.8784 45.7979 49.0262 45.8437C49.1603 44.9656 49.3981 43.8064 49.584 42.9376C49.648 42.0503 49.8004 40.8752 49.9255 39.9939C49.7913 39.9542 49.709 39.893 49.6785 39.8103C49.459 40.609 49.2272 41.6891 49.0595 42.5001L49.0412 42.6255C48.9163 43.5221 48.8187 44.7308 48.7485 45.6366Z" fill="#F13223"/>
<path d="M51.7006 59.574L51.703 59.5748V59.5809L51.7006 59.574Z" fill="#F13223"/>
<path d="M51.7006 59.574C51.5434 59.5251 51.4436 59.4519 51.4012 59.3606L50.8463 58.0877C50.4133 56.8911 49.8767 55.2785 49.5291 54.0545L49.3888 53.4517C49.4285 53.5527 49.5291 53.6292 49.6937 53.6812C50.0139 54.5992 50.4499 55.8202 50.831 56.7167C51.0712 57.5804 51.3994 58.7271 51.7006 59.574Z" fill="#F13223"/>
<path d="M55.1698 65.3918C55.2216 65.456 55.3039 65.505 55.4229 65.5417V65.5387C54.9441 64.8471 54.3679 63.8802 53.9441 63.1519C53.3617 62.3594 52.6482 61.2608 52.1207 60.4316C51.9739 60.3853 51.8788 60.3227 51.8301 60.2386L52.5415 61.5607C53.3114 62.9029 53.3548 62.9611 55.0989 65.2998L55.1515 65.3704L55.1698 65.3918Z" fill="#F13223"/>
<path d="M65.2681 21.0893L65.2864 21.0648L66.5404 20.5413L65.2681 21.0893Z" fill="#F13223"/>
<path d="M66.6166 20.5096L66.5781 20.5244L66.5671 20.5298L66.562 20.5312L66.5404 20.5413L66.4832 20.568L64.7559 21.3372C63.9327 21.7625 62.8624 22.3899 62.0636 22.8672C62.0697 22.8855 62.088 22.9008 62.1185 22.91C62.9112 22.4235 63.9906 21.8207 64.8016 21.3709L65.3342 21.1179L65.3392 21.1176C65.3455 21.1172 65.3522 21.1169 65.3596 21.1169V21.1138L66.2733 20.6718L66.6166 20.5096Z" fill="#F13223"/>
<path fill-rule="evenodd" clip-rule="evenodd" d="M66.6166 20.5096L66.6185 20.5079L66.6212 20.5066L66.4725 20.8567C66.4525 20.9015 66.4339 20.9509 66.4158 21.0028C66.4 21.0483 66.3846 21.0959 66.3689 21.1442L66.3682 21.1467C66.2959 21.3695 66.2185 21.6086 66.0731 21.7442L66.0762 21.7472C65.8932 21.8207 65.7103 21.888 65.5304 21.9553C65.6584 21.6646 65.8475 21.279 66.0365 21.025L66.5928 20.5307L66.1615 20.8782V20.8812L66.1189 20.8964C66.0889 20.9072 66.0596 20.9178 66.0305 20.9273L65.7407 21.1322C65.5805 21.2656 65.4114 21.4283 65.2372 21.5959L65.1524 21.6775C65.3203 21.5231 65.4846 21.3752 65.634 21.2454C65.6712 21.2325 65.7091 21.2189 65.7473 21.2052C65.7906 21.1898 65.8343 21.1743 65.878 21.1597C65.695 21.4412 65.4572 21.8299 65.3383 22.145C65.2425 22.2887 65.1501 22.4608 65.0545 22.6386C64.8614 22.9984 64.6551 23.3826 64.3839 23.6016V23.5985L64.0181 23.7299C63.8561 23.7881 63.6967 23.8453 63.5394 23.9015C63.7284 23.4822 63.9906 22.9223 64.2406 22.5367C64.4098 22.3745 64.6025 22.1906 64.8008 22.0044C64.6248 22.1601 64.4471 22.3013 64.2711 22.4051C64.2325 22.4177 64.194 22.4304 64.1558 22.443L64.0381 22.4817C63.9605 22.5072 63.8845 22.5319 63.8107 22.555C64.265 22.148 64.8779 21.6095 65.3718 21.2515L66.5646 20.5425L66.4114 20.6262L65.6828 21.0404L65.6691 21.0445L65.6538 21.0489L65.6431 21.052L65.6208 21.058L65.1431 21.3189C65.0666 21.3673 64.9882 21.4194 64.9084 21.474C64.9466 21.4639 64.9875 21.4524 65.0293 21.4406L65.0913 21.4229C64.6035 21.8115 63.954 22.3378 63.5089 22.7723C63.3167 22.9484 63.1163 23.1625 62.9096 23.3834C62.5127 23.8076 62.0922 24.2569 61.6611 24.5103H61.6642C61.4355 24.5777 61.2221 24.6389 61.0178 24.694C61.4965 24.1738 62.149 23.4853 62.6704 23.011C62.8104 22.9112 62.9606 22.8046 63.1168 22.6944C63.0269 22.7434 62.9379 22.788 62.8503 22.8274H62.8472C62.832 22.8305 62.8167 22.8335 62.8015 22.8397C62.71 22.861 62.6247 22.8763 62.5515 22.8917C63.2467 22.4173 64.1796 21.7931 64.9053 21.3678L66.5021 20.5707L66.6166 20.5096ZM66.6166 20.5096L66.5584 20.5427L66.5959 20.524L66.6073 20.5172L66.6095 20.5159L66.6166 20.5096Z" fill="#F13223"/>
<path d="M56.8254 27.3745C56.7583 27.3531 56.7156 27.3225 56.7004 27.2796C57.3376 26.634 58.1975 25.7772 58.8713 25.1683C59.5847 24.6205 60.5421 23.8953 61.2831 23.3843C61.2878 23.3954 61.2958 23.4048 61.3071 23.413L61.3104 23.4154C61.315 23.4185 61.3201 23.4214 61.3257 23.4242C61.3292 23.4259 61.333 23.4276 61.3369 23.4293L61.342 23.4313L61.3471 23.4333C60.6489 23.981 59.725 24.7215 59.0634 25.3121C58.3834 25.921 57.4779 26.7349 56.8254 27.3715V27.3745Z" fill="#F13223"/>
<path d="M52.6147 32.7295C52.6276 32.7618 52.6516 32.7908 52.6863 32.8155C52.7171 32.8374 52.7563 32.8558 52.8037 32.8702C53.3038 32.1144 54.0081 31.1383 54.5416 30.4069C55.0112 29.6787 55.6972 28.7454 56.2156 28.0508C56.1424 28.0293 56.0997 27.9957 56.0814 27.9498C55.499 28.5954 54.7643 29.4889 54.2154 30.1652C53.7062 30.9149 53.0781 31.9492 52.6147 32.7295Z" fill="#F13223"/>
<path d="M50.1663 39.1219C50.0352 39.0821 49.9559 39.0208 49.9255 38.9413C50.1999 38.0692 50.578 36.9034 50.9042 36.0496C51.2701 35.2815 51.7671 34.2626 52.1756 33.519C52.2 33.5832 52.2671 33.6322 52.3708 33.6659C52.0445 34.4737 51.6177 35.5509 51.3433 36.3801C50.9743 37.1971 50.4895 38.2895 50.1663 39.1249V39.1219Z" fill="#F13223"/>
<path d="M60.1397 70.1929C60.1824 70.2266 60.2434 70.2542 60.3135 70.2756C59.6945 69.7523 58.917 69.0026 58.3377 68.4335C57.6151 67.8031 56.6943 66.9157 56.0113 66.2425C55.9036 66.2095 55.8224 66.1617 55.7704 66.105C56.4898 66.9002 57.5033 67.9081 58.2737 68.6538C58.6659 69.0031 59.1728 69.4117 59.6354 69.7846L59.6401 69.7884C59.7369 69.8664 59.8316 69.9427 59.923 70.0167L60.0052 70.0833C60.0511 70.1207 60.096 70.1572 60.1397 70.1929Z" fill="#F13223"/>
<path d="M59.6886 24.9594C59.7282 24.9567 59.7706 24.9528 59.8165 24.948L59.8135 24.951C59.8384 24.9405 59.8633 24.9294 59.8882 24.9179C59.9185 24.9038 59.9488 24.889 59.979 24.8735C60.0017 24.8618 60.0244 24.8498 60.047 24.8374C60.0607 24.8299 60.0744 24.8223 60.0881 24.8145L60.1152 24.799C59.9039 24.9722 59.7009 25.1397 59.5146 25.2938C58.975 25.8751 58.3103 26.7013 57.8163 27.3256C57.9871 27.295 58.1792 27.2552 58.3926 27.2063C58.4076 27.2022 58.4226 27.1987 58.4379 27.1952L58.4498 27.1925L58.4535 27.1916C58.462 27.1898 58.4706 27.1879 58.4794 27.1858L58.4963 27.1818H58.4993C59.0045 26.8897 59.4668 26.3342 59.9023 25.8111L59.9034 25.8097C60.1243 25.5442 60.339 25.2864 60.5482 25.0765C61.0148 24.5288 61.6947 23.8463 62.2069 23.3384C62.1978 23.34 62.1887 23.3422 62.1795 23.3445L62.1654 23.3479C62.161 23.3489 62.1565 23.3499 62.152 23.3507L62.0888 23.3647C62.0572 23.3717 62.0265 23.3783 61.9969 23.3845C61.9474 23.3949 61.9007 23.4041 61.8563 23.4118C61.7845 23.4665 61.7105 23.5232 61.6348 23.5818C61.829 23.4102 62.0182 23.2483 62.2008 23.112C62.8869 22.6132 63.8412 22.0012 64.5577 21.5513C64.5242 21.5544 64.4968 21.5544 64.4754 21.5544C63.6674 22.0012 62.6124 22.6438 61.8258 23.1303C61.1154 23.6505 60.2037 24.3972 59.5268 24.9633C59.544 24.964 59.5617 24.9642 59.5804 24.964C59.5967 24.9639 59.6136 24.9634 59.6311 24.9627C59.6495 24.9619 59.6687 24.9607 59.6886 24.9594Z" fill="#F13223"/>
<path d="M55.4503 29.9541C55.249 29.9786 55.0813 29.9847 54.9472 29.9816C55.4381 29.2748 56.0967 28.3354 56.6333 27.6653C57.2889 27.0257 58.167 26.1781 58.8469 25.5691C58.9322 25.5722 59.039 25.5691 59.164 25.5508C58.6365 26.1566 57.9383 26.9737 57.4596 27.6193C57.2537 27.8516 57.0507 28.1412 56.841 28.4402C56.7517 28.5675 56.6613 28.6964 56.5689 28.8235C56.8144 28.5294 57.055 28.2458 57.2736 27.9957C57.4566 27.962 57.6639 27.9192 57.8926 27.8671C57.9291 27.8579 57.9657 27.8488 58.0054 27.8427C57.6974 28.4822 57.298 29.339 57.051 30.0031C57.0009 30.0757 56.9515 30.1528 56.9024 30.2333C56.8682 30.2895 56.8342 30.3474 56.8002 30.4066C56.7122 30.5601 56.6246 30.7225 56.5355 30.8877C56.1874 31.5335 55.8165 32.2216 55.307 32.5796H55.3039L55.1484 32.6162C54.9621 32.6594 54.7852 32.6973 54.619 32.7305C54.5024 32.7538 54.3911 32.7748 54.2856 32.7937C54.5692 32.0594 54.9594 31.0801 55.3009 30.3703C55.5051 30.118 55.7338 29.8365 55.9708 29.5471C55.806 29.7122 55.6324 29.8528 55.4472 29.9541H55.4503Z" fill="#F13223"/>
<path d="M52.0076 35.8878C52.1165 35.8815 52.2355 35.8712 52.3647 35.8568V35.8599C52.8159 35.0337 53.4562 33.9565 53.938 33.1517C54.2063 32.399 54.6362 31.4229 54.9655 30.6946C54.752 30.7191 54.5752 30.7282 54.435 30.7221C53.8983 31.4535 53.2184 32.4602 52.7123 33.2161C52.3677 34.0055 51.9683 35.0826 51.6786 35.8935C51.7755 35.8968 51.8851 35.8949 52.0076 35.8878Z" fill="#F13223"/>
<path d="M50.6603 42.3746C50.328 42.4143 50.0505 42.4266 49.8279 42.4174C49.9102 41.5423 50.0322 40.3703 50.1755 39.5012C50.5139 38.6628 50.9682 37.549 51.3463 36.7289C51.4243 36.7315 51.5106 36.7314 51.6049 36.728C51.7394 36.7233 51.8902 36.712 52.0568 36.6922C51.9348 37.5061 51.7854 38.5985 51.7274 39.4187C51.3951 40.2999 50.956 41.478 50.6633 42.3746H50.6603Z" fill="#F13223"/>
<path d="M49.5108 49.2779C49.7608 49.2871 50.0718 49.2718 50.4469 49.2289L50.4438 49.2259C50.5597 48.2987 50.77 47.0717 50.9317 46.1506C50.7761 45.2938 50.639 44.1371 50.5444 43.2711C50.2029 43.311 49.9224 43.3262 49.6937 43.3171C49.4925 44.1891 49.2852 45.3642 49.1358 46.2485C49.2089 47.1604 49.3767 48.3722 49.5108 49.2779Z" fill="#F13223"/>
<path d="M51.825 56.1385C51.4317 56.1843 51.1054 56.1997 50.8432 56.1905C50.4835 55.2909 50.0139 54.0882 49.7181 53.1672C49.6602 52.2767 49.5931 51.0895 49.5931 50.1959C49.8462 50.2051 50.1602 50.1898 50.5383 50.147C50.8524 51.0282 51.2853 52.2033 51.6573 53.0632C51.6878 53.9873 51.7366 55.2174 51.828 56.1354L51.825 56.1385Z" fill="#F13223"/>
<path d="M53.8313 62.7021C54.0904 62.7113 54.4136 62.6959 54.8039 62.6501C54.5173 61.8238 54.2032 60.7008 53.9776 59.8563C53.3891 59.0362 52.6665 57.901 52.1299 57.0441C51.7366 57.09 51.4073 57.1084 51.1451 57.0961C51.3646 57.9683 51.7274 59.1096 52.0079 59.9634C52.5202 60.8079 53.2672 61.8943 53.8313 62.7021Z" fill="#F13223"/>
<path d="M59.0268 68.0295C58.6639 68.0724 58.3651 68.0877 58.1243 68.0754C57.4108 67.4267 56.4656 66.5546 55.7918 65.8631C55.3344 65.1623 54.7338 64.2199 54.3343 63.4854C54.5935 63.4946 54.9137 63.4793 55.3009 63.4334C55.9991 64.1464 56.9382 65.0889 57.6761 65.7621C58.0633 66.4537 58.5877 67.3717 59.0298 68.0295H59.0268Z" fill="#F13223"/>
<path d="M64.213 72.1181L64.2162 72.1177V72.1208L64.213 72.1181Z" fill="#F13223"/>
<path d="M62.4143 70.4378C62.9377 70.957 63.6464 71.6438 64.213 72.1181C63.9004 72.1545 63.6393 72.1666 63.4296 72.1605C62.6094 71.6862 61.5179 71.0467 60.7251 70.5265C60.1275 69.994 59.3317 69.275 58.7768 68.6997C59.0146 68.7089 59.3104 68.6935 59.6671 68.6538C60.4812 69.2046 61.5728 69.9298 62.4143 70.4378Z" fill="#F13223"/>
<path d="M70.1009 74.8013C69.8509 74.8288 69.6435 74.841 69.4758 74.835C68.5886 74.5504 67.4055 74.1617 66.5335 73.8282C65.8231 73.4763 64.8779 72.999 64.1949 72.5981C64.3992 72.6073 64.6553 72.592 64.9633 72.5583C65.8505 72.9316 67.0335 73.4243 67.9361 73.7548C68.5764 74.0883 69.4362 74.5228 70.1039 74.8013H70.1009Z" fill="#F13223"/>
<path d="M53.1574 38.7975L53.2036 38.7865L53.2384 38.7784C53.277 38.7695 53.3163 38.7605 53.3556 38.7516C53.752 37.8672 54.31 36.7014 54.7307 35.8293C54.7612 35.0857 54.8801 34.1004 54.9746 33.3629C54.9228 33.3752 54.8679 33.3874 54.8131 33.3997C54.6248 33.4413 54.4472 33.4789 54.2799 33.5127C54.1519 33.5385 54.0299 33.562 53.9136 33.5832C53.4288 34.3942 52.822 35.4957 52.3708 36.325C52.2366 37.1298 52.1299 38.213 52.0567 39.0239C52.383 38.9658 52.7519 38.8893 53.1574 38.7975Z" fill="#F13223"/>
<path d="M52.7336 45.4131L52.6472 45.4332C52.5983 45.4446 52.5501 45.4555 52.5019 45.4651C52.0293 45.5723 51.6054 45.661 51.2243 45.7283C51.081 44.8746 50.9011 43.7332 50.8219 42.8733C51.1207 41.9737 51.5262 40.7773 51.8646 39.8898C52.2 39.8287 52.5781 39.7522 52.9928 39.6573C53.0598 39.642 53.1269 39.6267 53.1971 39.6083C53.316 40.4101 53.4836 41.4811 53.6635 42.2736C53.3739 43.21 52.9928 44.4615 52.7336 45.4101V45.4131Z" fill="#F13223"/>
<path d="M53.3934 52.3224C53.415 52.3174 53.4367 52.3123 53.4586 52.3071C53.479 52.3022 53.4995 52.2971 53.5202 52.292C53.6117 51.322 53.7885 50.0368 53.9227 49.0729C53.5385 48.262 53.0873 47.1543 52.755 46.3189C52.7077 46.3299 52.6605 46.3408 52.6139 46.3518C52.5823 46.3592 52.551 46.3666 52.5202 46.374C52.0445 46.4811 51.6116 46.5729 51.2243 46.6402C51.0505 47.5643 50.8798 48.8067 50.7548 49.7369C51.0536 50.6212 51.5231 51.7718 51.8829 52.6347C52.2976 52.5613 52.758 52.4664 53.2702 52.3502C53.3112 52.3411 53.3521 52.3319 53.3934 52.3224Z" fill="#F13223"/>
<path d="M55.7948 59.1005C55.7094 59.1219 55.6241 59.1403 55.5387 59.1586C55.0173 59.278 54.5478 59.3759 54.127 59.4493C53.5538 58.617 52.7946 57.5031 52.2732 56.6372C52.197 55.7131 52.1055 54.4799 52.0903 53.5527C52.5049 53.4793 52.9714 53.3844 53.4836 53.2651C53.5149 53.2582 53.5465 53.2508 53.5785 53.2432L53.5846 53.2418C53.6349 53.2298 53.6858 53.2179 53.7367 53.207C54.2764 54.0393 55.0051 55.1408 55.5905 55.9426C55.6363 56.8911 55.7033 58.155 55.7979 59.1005H55.7948Z" fill="#F13223"/>
<path d="M59.2038 65.119L59.207 65.1183C59.2523 65.1072 59.2981 65.096 59.3439 65.0858L59.35 65.0889C59.1 64.2903 58.8286 63.2101 58.6304 62.3992C57.8804 61.6923 56.923 60.704 56.2095 59.9603C56.1241 59.9787 56.0388 60.0001 55.9534 60.0185C55.432 60.1378 54.9625 60.2358 54.5417 60.3092C54.749 61.1538 55.0936 62.2584 55.3619 63.0846C56.0509 63.8098 57.0175 64.7339 57.7462 65.4224C58.1487 65.3521 58.6 65.2572 59.1 65.144C59.1341 65.1361 59.1688 65.1276 59.2038 65.119Z" fill="#F13223"/>
<path d="M63.7318 69.8918L63.7234 69.8936L63.6832 69.9028C63.6626 69.9076 63.642 69.9125 63.6217 69.9175C63.1704 70.0216 62.7649 70.1042 62.4021 70.1685C61.5666 69.6422 60.4568 68.9353 59.6488 68.3692C59.228 67.7082 58.6731 66.8209 58.3072 66.1262C58.7067 66.0559 59.1549 65.9641 59.6488 65.8508L59.6893 65.8415C59.7559 65.8261 59.8243 65.8105 59.8927 65.7927C60.719 66.3863 61.8228 67.1758 62.6704 67.7327C63.0027 68.3814 63.457 69.2474 63.8443 69.8655C63.8073 69.8748 63.7696 69.8833 63.7318 69.8918Z" fill="#F13223"/>
<path d="M68.866 73.3631C68.9239 73.3509 68.988 73.3356 69.049 73.3203V73.3172C68.552 72.8949 67.9361 72.2737 67.4818 71.8025C66.5762 71.4047 65.3871 70.8325 64.4998 70.401C64.4266 70.4163 64.3535 70.4347 64.2833 70.45C63.8443 70.551 63.4449 70.6336 63.0881 70.6978C63.5943 71.2242 64.3199 71.8729 64.8687 72.3533C65.7499 72.745 66.9482 73.2223 67.8476 73.5712C67.9986 73.5454 68.1578 73.5152 68.3256 73.4808C68.4967 73.4457 68.6767 73.4063 68.866 73.3631Z" fill="#F13223"/>
<path d="M74.714 75.3307C74.6941 75.336 74.6742 75.3408 74.6543 75.3452L74.6224 75.352L74.5822 75.3601L74.5768 75.3613C74.2963 75.4255 74.0433 75.4775 73.8176 75.5173C72.8968 75.3551 71.6681 75.1318 70.7564 74.9267C70.107 74.6422 69.2411 74.2536 68.616 73.9139C68.9087 73.8619 69.238 73.7946 69.6039 73.7119C69.6618 73.6997 69.7228 73.6844 69.7838 73.6691C70.6924 73.9292 71.9028 74.2689 72.8206 74.4922C73.3816 74.7615 74.1347 75.1134 74.7171 75.3276L74.714 75.3307Z" fill="#F13223"/>
<path d="M58.6731 29.1921C58.2767 29.3084 57.9017 29.4155 57.548 29.5104C57.8102 28.8678 58.1731 28.0141 58.4963 27.399C59.0878 26.7533 59.8836 25.8935 60.4964 25.2692C60.719 25.2111 60.9568 25.1438 61.2099 25.0673C60.9294 25.5997 60.5635 26.3158 60.344 26.8788C60.1757 27.1077 60.0115 27.3845 59.8418 27.6707C59.501 28.2453 59.1382 28.8571 58.6761 29.1921H58.6731Z" fill="#F13223"/>
<path d="M55.2277 35.2509C55.7094 35.1224 56.2217 34.9786 56.7644 34.8164H56.7675C57.1852 33.9811 57.7645 32.8794 58.2005 32.0532C58.2066 31.4014 58.2889 30.5355 58.3591 29.8898C57.9414 30.0122 57.545 30.1254 57.173 30.2234C56.6455 30.9945 55.9686 32.0379 55.4655 32.8244C55.3527 33.5465 55.2765 34.5227 55.2277 35.2509Z" fill="#F13223"/>
<path d="M55.9991 41.1139C55.3436 41.3097 54.7185 41.4842 54.1331 41.6402C53.9715 40.8538 53.7642 39.8042 53.6636 39.0086C54.0569 38.1212 54.5874 36.94 55.0082 36.0649C55.5052 35.9334 56.0357 35.7834 56.5937 35.6182C56.7309 36.3464 56.926 37.3165 57.1242 38.0325C56.7766 38.9535 56.3193 40.1837 55.9961 41.1139H55.9991Z" fill="#F13223"/>
<path d="M55.9199 55.2725C56.6089 55.0888 57.3437 54.8808 58.1182 54.6513C58.1761 53.6537 58.3042 52.3257 58.4017 51.3312C57.8316 50.5663 57.115 49.5136 56.5815 48.7211C55.8375 48.9414 55.1301 49.1402 54.4685 49.3178C54.3252 50.2847 54.1788 51.5791 54.0752 52.5522C54.5996 53.3876 55.3527 54.4677 55.9199 55.2725Z" fill="#F13223"/>
<path d="M61.0269 61.1813C60.2616 61.4077 59.5329 61.6157 58.853 61.7963C58.1151 61.0711 57.1364 60.098 56.4382 59.3391C56.3589 58.3936 56.2644 57.1298 56.2369 56.1781C56.9291 55.9946 57.6639 55.7865 58.4414 55.557C59.1488 56.3311 60.097 57.3563 60.8379 58.0998C60.8836 59.027 60.9476 60.2602 61.033 61.1843L61.0269 61.1813Z" fill="#F13223"/>
<path d="M62.7954 67.237C63.4296 67.0687 64.1034 66.8759 64.8169 66.6647V66.6617C64.6065 65.8967 64.3839 64.8594 64.2223 64.0821C63.3869 63.4701 62.3014 62.6164 61.4873 61.9738C60.7251 62.2003 60.0025 62.4053 59.3256 62.5858C59.5024 63.3997 59.7951 64.4707 60.0238 65.2694C60.8379 65.8845 61.9538 66.6587 62.7954 67.237Z" fill="#F13223"/>
<path d="M69.2502 70.9304C68.6312 71.114 68.0428 71.2823 67.4909 71.4261C66.5945 71.0069 65.3993 70.4439 64.5181 69.9879C64.1583 69.3606 63.6857 68.5191 63.3778 67.8643C64.0028 67.699 64.6705 67.5094 65.3718 67.3012C66.2408 67.797 67.3994 68.4579 68.2836 68.9261C68.555 69.535 68.927 70.3459 69.2502 70.9304Z" fill="#F13223"/>
<path d="M72.7108 74.2505C73.1499 74.1342 73.6164 74.0026 74.1103 73.8557V73.8527C73.6896 73.4794 73.1834 72.9225 72.8114 72.5002C71.9242 72.1881 70.7534 71.7352 69.8752 71.3955C69.2715 71.5761 68.6983 71.7383 68.1586 71.8821C68.5886 72.3625 69.2136 72.95 69.6862 73.3845C70.5856 73.666 71.7992 74.0026 72.7108 74.2505Z" fill="#F13223"/>
<path d="M61.7679 26.2118C61.402 26.3341 61.0483 26.4504 60.7099 26.5575C60.9416 26.0159 61.2617 25.2998 61.5544 24.7888L61.5892 24.7535C62.1156 24.2191 62.8043 23.52 63.3442 23.014C63.4222 22.9893 63.502 22.964 63.5831 22.9378C63.6302 22.9226 63.6777 22.9071 63.7255 22.8912C63.779 22.8734 63.8328 22.8553 63.8869 22.8366C63.6491 23.2527 63.3381 23.8188 63.1643 24.2656C63.024 24.4581 62.8863 24.6893 62.7441 24.9279C62.4569 25.4101 62.1513 25.9232 61.7679 26.2118Z" fill="#F13223"/>
<path d="M58.6152 31.6493C59.1244 31.4871 59.6519 31.3157 60.2007 31.1322V31.1291C60.6279 30.7581 60.885 30.0925 61.1257 29.4693L61.1573 29.3874C61.1725 29.3481 61.1877 29.309 61.2029 29.2703C61.2336 29.1919 61.2643 29.1148 61.2954 29.0397C61.3106 29.0027 61.326 28.9661 61.3415 28.9301C61.3868 28.8252 61.433 28.7251 61.4813 28.6321C61.4447 28.0845 61.4721 27.3531 61.5026 26.8053C61.1123 26.937 60.7342 27.0624 60.3714 27.1756C59.8744 27.8733 59.2341 28.8158 58.7554 29.5226C58.6701 30.1561 58.6335 31.0097 58.6152 31.6493Z" fill="#F13223"/>
<path d="M58.6291 37.224C58.2715 37.3404 57.9212 37.4525 57.5785 37.5612C57.3956 36.8513 57.1578 35.9027 57.0328 35.1805C57.4413 34.3421 57.9932 33.2222 58.4201 32.3929C58.6759 32.3128 58.9375 32.229 59.2038 32.1424C59.4865 32.0504 59.7745 31.9552 60.0665 31.8574C60.2403 32.5 60.4842 33.3568 60.7129 33.9841C60.3745 34.8592 59.9263 36.0251 59.6 36.9064L59.597 36.9034C59.2689 37.0141 58.9462 37.1208 58.6291 37.224Z" fill="#F13223"/>
<path d="M57.6364 44.0331C58.3865 43.7944 59.1701 43.5404 59.9811 43.2681H59.9842C60.2372 42.3011 60.594 41.0159 60.8623 40.0551C60.4568 39.3697 59.9598 38.4302 59.5939 37.7203C58.8774 37.959 58.1853 38.1854 57.5236 38.3935C57.1821 39.3207 56.7522 40.563 56.4321 41.4963C56.7613 42.2736 57.2583 43.2803 57.6364 44.0331Z" fill="#F13223"/>
<path d="M61.3776 49.9695C60.4995 50.2632 59.6488 50.5417 58.8347 50.7957C58.2737 50.0276 57.5328 48.9994 57.0083 48.2039C57.2157 47.2155 57.4931 45.8997 57.7279 44.9205C58.4902 44.6818 59.2859 44.4217 60.1062 44.1463C60.6489 44.8899 61.3745 45.8783 61.9477 46.5974C61.7679 47.6072 61.5331 48.9566 61.3745 49.9695H61.3776Z" fill="#F13223"/>
<path d="M61.213 57.5735C62.0423 57.3103 62.9082 57.0288 63.8046 56.729C63.8412 55.713 63.9235 54.3605 63.9906 53.3477C63.271 52.6194 62.3381 51.6219 61.6398 50.8691C60.7556 51.1659 59.9019 51.4444 59.0817 51.7014C58.978 52.699 58.8865 54.03 58.8195 55.0307C59.5177 55.814 60.4842 56.8208 61.213 57.5735Z" fill="#F13223"/>
<path d="M70.7534 67.8215C69.9789 68.0815 69.2319 68.3233 68.5184 68.5497C67.6434 68.0662 66.4756 67.4145 65.6158 66.9035C65.4237 66.1415 65.1797 65.1195 65.0334 64.3453C65.82 64.0974 66.6433 63.8313 67.4909 63.5436C68.3355 64.0974 69.4667 64.8349 70.3265 65.3674C70.4393 66.1048 70.5979 67.0901 70.7534 67.8184V67.8215Z" fill="#F13223"/>
<path d="M72.9486 72.2217C73.5462 72.032 74.1713 71.83 74.8146 71.6128C74.5677 71.0712 74.2963 70.3245 74.0981 69.7615C73.2444 69.3637 72.1193 68.8129 71.2747 68.3967C70.5185 68.6507 69.7868 68.8894 69.0825 69.1097C69.3325 69.7187 69.7227 70.502 70.0246 71.0865C70.8966 71.4445 72.0675 71.8912 72.9486 72.2217Z" fill="#F13223"/>
<path d="M61.9417 28.1273C62.4204 27.9589 62.9113 27.7845 63.4144 27.6009H63.4113C63.5538 27.2827 63.7209 26.9119 63.8878 26.5413C64.0532 26.1744 64.2185 25.8078 64.3596 25.4926C64.2742 25.0703 64.2284 24.492 64.2071 24.0605C63.9987 24.1369 63.7917 24.2108 63.5885 24.2827L63.2741 24.3941C62.9094 24.913 62.45 25.5978 62.0736 26.1589L62.0685 26.1665L62.0675 26.1681L61.9417 26.3555C61.899 26.8849 61.9203 27.5979 61.9417 28.1273Z" fill="#F13223"/>
<path d="M63.2528 32.7968C62.5667 33.0477 61.8959 33.2864 61.2404 33.5159C61.0239 32.8978 60.7404 32.0686 60.5788 31.4351C60.9446 30.6793 61.4325 29.6726 61.8075 28.9229C62.3106 28.7454 62.8289 28.5618 63.3595 28.369C63.582 28.9137 63.89 29.6359 64.1583 30.1561L63.6951 31.508C63.5406 31.9595 63.3869 32.4096 63.2558 32.7968H63.2528Z" fill="#F13223"/>
<path d="M62.4966 45.8385C63.3869 45.5294 64.2986 45.202 65.2316 44.8624H65.2346C65.4267 43.8648 65.695 42.5368 65.8962 41.5423C65.3078 40.8844 64.5547 39.9787 63.9906 39.2993C63.143 39.6083 62.3106 39.9052 61.5026 40.1867C61.2374 41.1537 60.9019 42.445 60.6519 43.415C61.1855 44.1586 61.9325 45.1194 62.4966 45.8385Z" fill="#F13223"/>
<path d="M70.1862 58.109C69.2166 58.464 68.2653 58.8036 67.3415 59.125C66.5244 58.4518 65.4419 57.5522 64.6462 56.8545C64.6919 55.8385 64.759 54.486 64.8321 53.4732C65.7682 53.1457 66.7317 52.803 67.7165 52.445C68.5154 53.158 69.5825 54.1066 70.3997 54.8012C70.3295 55.7927 70.2381 57.1176 70.1862 58.1121V58.109Z" fill="#F13223"/>
<path d="M70.6893 64.7492C71.5491 64.4494 72.4333 64.1342 73.3359 63.8037L73.3389 63.8067C73.3298 62.9439 73.348 61.7964 73.3633 60.9335C72.5248 60.3398 71.418 59.5289 70.5917 58.92C69.6252 59.2719 68.6831 59.6085 67.7622 59.9298C67.7745 60.8202 67.8232 62.0044 67.8659 62.8949C68.7044 63.4641 69.8386 64.2015 70.6893 64.7492Z" fill="#F13223"/>
<path d="M65.9176 24.7001C65.4968 24.8653 65.076 25.0245 64.6644 25.1775C64.5882 24.7643 64.4937 24.2136 64.4815 23.7943C64.7468 23.3476 65.1005 22.7509 65.3749 22.3042C65.5852 22.2246 65.8017 22.142 66.0182 22.0594C66.1097 22.3684 66.2469 22.7753 66.3902 23.0661C66.253 23.5557 66.067 24.2105 65.9206 24.7001H65.9176Z" fill="#F13223"/>
<path d="M64.5394 29.5838C65.1553 29.3543 65.7834 29.1126 66.4146 28.8678V28.8708C66.5792 28.1915 66.7865 27.2858 66.942 26.6065C66.6219 26.1995 66.2316 25.6242 65.945 25.1927C65.4938 25.3671 65.0456 25.5385 64.6065 25.7038C64.4796 26.0063 64.3329 26.3575 64.1851 26.7111L63.7131 27.8396C63.9296 28.3751 64.2772 29.0667 64.5394 29.5838Z" fill="#F13223"/>
<path d="M67.5214 34.0147C66.7164 34.3299 65.9176 34.6328 65.1309 34.9296C64.698 34.3299 64.1217 33.5312 63.7223 32.9069C63.9784 32.1083 64.3229 31.0434 64.579 30.2447C64.9297 30.1124 65.2839 29.9782 65.6403 29.8417C65.9348 29.7289 66.2308 29.6144 66.5274 29.4981C66.9847 30.0275 67.5976 30.7313 68.0763 31.2423C67.9116 32.0746 67.6921 33.1854 67.5183 34.0147H67.5214Z" fill="#F13223"/>
<path d="M66.4085 40.9761C67.3202 40.6334 68.247 40.2785 69.1831 39.9143C69.2546 39.5108 69.3351 39.0494 69.4166 38.5792C69.4691 38.2765 69.522 37.9702 69.5732 37.6735C69.629 37.3509 69.6827 37.0396 69.7319 36.7564C69.116 36.1689 68.3111 35.3672 67.7104 34.7613C66.8841 35.0826 66.067 35.3947 65.2621 35.6977C65.0273 36.6157 64.7193 37.8397 64.4876 38.7607C65.0486 39.44 65.8231 40.3183 66.4085 40.9761Z" fill="#F13223"/>
<path d="M73.9731 53.0234C72.9395 53.4242 71.915 53.8159 70.9058 54.1954C70.0978 53.4946 69.0184 52.5552 68.2227 51.8392C68.3446 50.7987 68.5092 49.4096 68.6495 48.3691C69.6435 47.9958 70.6558 47.6103 71.6772 47.2124L71.807 47.3244C72.5887 47.9981 73.583 48.8551 74.3451 49.4982C74.2323 50.5571 74.0798 51.9646 73.9731 53.0234Z" fill="#F13223"/>
<path d="M66.7134 20.664C66.686 20.6747 66.6593 20.6862 66.6326 20.6976C66.6059 20.7091 66.5792 20.7206 66.5518 20.7313L66.6249 20.5049L66.7134 20.664Z" fill="#F13223"/>
<path d="M66.6249 20.5049L67.143 20.438L66.6378 20.5006L66.6449 20.4979L66.6479 20.4972L66.6492 20.4965L66.6539 20.4953L66.659 20.4931L67.9513 20.1989C68.5093 20.1499 69.2563 20.0887 69.8173 20.107L69.8142 20.1101L69.695 20.1689C69.5811 20.2252 69.4624 20.2839 69.3386 20.3427L69.2261 20.344C68.7085 20.3498 68.0611 20.357 67.5671 20.3855L67.2683 20.4222C67.2473 20.4321 67.2255 20.4419 67.2045 20.4512L67.1962 20.455L67.1896 20.4579C67.164 20.4692 67.1384 20.4806 67.1128 20.4926L66.6249 20.5049Z" fill="#F13223"/>
<path d="M66.6249 20.5049L67.25 20.5324C67.4909 20.6334 67.811 20.7833 68.0153 20.9455C67.8324 21.025 67.6464 21.1046 67.4573 21.1842L67.3712 21.1258C67.2891 21.0703 67.1999 21.0099 67.1119 20.9487C67.0019 20.872 66.8939 20.7939 66.8048 20.7221L66.6249 20.5049Z" fill="#F13223"/>
<path d="M67.6098 20.2539C67.6494 20.2355 67.686 20.2142 67.7196 20.1958L67.7226 20.1927L66.6696 20.4901L67.9177 20.0765C67.9361 20.0642 67.9665 20.0397 67.9665 20.0397L66.6696 20.4901L67.6098 20.2539Z" fill="#F13223"/>
<path d="M67.1443 22.5306C67.271 22.4792 67.3977 22.4274 67.5244 22.3745H67.5275C67.5122 22.0563 67.4543 21.6371 67.4024 21.325C67.2073 21.1812 66.9634 20.97 66.7866 20.8047C66.6951 20.8445 66.6067 20.8782 66.5183 20.9149C66.4782 21.0339 66.4307 21.1693 66.3817 21.3065C66.3337 21.4408 66.2843 21.5768 66.2393 21.7009L66.1981 21.8145C66.2835 22.1083 66.4634 22.4786 66.6005 22.7509C66.7023 22.7095 66.8041 22.6683 66.9059 22.6271C66.9854 22.595 67.0649 22.5629 67.1443 22.5306Z" fill="#F13223"/>
<path d="M70.7198 29.7308C69.985 30.0337 69.2502 30.3336 68.5215 30.6243C68.0427 30.1255 67.4055 29.4553 66.9481 28.9321C67.0945 28.2528 67.2835 27.344 67.4177 26.6585C67.7117 26.5421 68.0057 26.4232 68.3001 26.303C68.5706 26.1927 68.8414 26.0813 69.1129 25.97C69.6313 26.3861 70.3264 26.94 70.86 27.344C70.8265 28.06 70.7808 29.0147 70.7228 29.7308H70.7198Z" fill="#F13223"/>
<path d="M70.2533 36.0312C71.1375 35.6763 72.0278 35.3152 72.9182 34.948V34.951C73.0035 34.0881 73.098 32.9345 73.1651 32.0686C72.5454 31.5993 71.7421 30.9672 71.1083 30.4688L71.1059 30.4668L71.0905 30.4547L71.087 30.4518L70.9912 30.3764C70.2319 30.6885 69.4758 30.9976 68.7227 31.2974C68.6836 31.5207 68.6401 31.7635 68.5944 32.0156L68.5417 32.3055L68.5032 32.5157C68.413 33.0072 68.3199 33.507 68.2386 33.9438L68.2135 34.0789C68.7633 34.6252 69.4997 35.3201 70.0928 35.8797L70.1022 35.8886L70.2533 36.0312Z" fill="#F13223"/>
<path d="M69.0886 23.4149C69.5154 23.2313 69.9423 23.0477 70.3661 22.8641L70.3631 22.861C70.2197 22.4816 69.9697 21.9981 69.7746 21.6432L69.5757 21.5728C69.465 21.5335 69.3487 21.492 69.2304 21.4498L68.9947 21.3656L68.7767 21.2874C68.6095 21.2275 68.4478 21.1694 68.3019 21.1169C68.0854 21.2117 67.8659 21.3066 67.6464 21.3983C67.7279 21.7024 67.7816 22.1152 67.8235 22.437L67.8293 22.4816C68.1983 22.7753 68.7074 23.1426 69.0886 23.4149Z" fill="#F13223"/>
<path d="M73.0737 26.1169C72.6965 26.2807 72.3182 26.4445 71.9389 26.6076C71.6804 26.7188 71.4214 26.8297 71.1619 26.94C70.6253 26.5483 69.9088 26.022 69.3843 25.612C69.3843 25.0703 69.3752 24.3513 69.3386 23.8097C69.796 23.6168 70.2533 23.421 70.7046 23.2222C71.2961 23.5159 72.0827 23.9076 72.6773 24.1952C72.8114 24.7674 72.9822 25.5355 73.0737 26.1169Z" fill="#F13223"/>
<path d="M70.6668 20.998C70.3163 20.7847 69.8097 20.5746 69.427 20.4253C68.9056 20.4069 68.2135 20.4039 67.6951 20.4069C67.6128 20.4467 67.5275 20.4834 67.4421 20.5232C67.7104 20.6058 68.0427 20.7986 68.2806 20.9485C68.7318 21.0801 69.3355 21.2637 69.7868 21.4014C69.8642 21.3665 69.9413 21.3316 70.0179 21.2967C70.2367 21.1972 70.4526 21.0976 70.6668 20.998Z" fill="#F13223"/>
</svg>
