<svg width="40" height="52" viewBox="0 0 40 52" fill="none" xmlns="http://www.w3.org/2000/svg">
<path d="M7.56537 0.333008H35.92C36.8388 0.333626 37.7198 0.698886 38.3695 1.34857C39.0192 1.99824 39.3844 2.87922 39.385 3.79801V48.2013C39.3844 49.1201 39.0192 50.0011 38.3695 50.6508C37.7198 51.3005 36.8388 51.6657 35.92 51.6663H7.56537C5.64697 51.6663 3.80714 50.9043 2.45062 49.5478C1.09411 48.1912 0.332031 46.3514 0.332031 44.433V7.56634C0.332031 5.64794 1.09411 3.80811 2.45062 2.4516C3.80714 1.09509 5.64697 0.333008 7.56537 0.333008ZM35.92 48.5163C36.0036 48.5163 36.0837 48.4832 36.1428 48.4241C36.2018 48.365 36.235 48.2849 36.235 48.2013V3.79801C36.235 3.71446 36.2018 3.63434 36.1428 3.57527C36.0837 3.5162 36.0036 3.48301 35.92 3.48301H7.56537C6.48372 3.48731 5.44761 3.9189 4.68276 4.68374C3.91792 5.44858 3.48633 6.4847 3.48203 7.56634V44.433C3.48633 45.5147 3.91792 46.5508 4.68276 47.3156C5.44761 48.0805 6.48372 48.512 7.56537 48.5163H35.92Z" fill="#150E25"/>
<path d="M32.14 51.6669H7.56537C5.64697 51.6669 3.80714 50.9048 2.45062 49.5483C1.09411 48.1918 0.332031 46.352 0.332031 44.4336V44.0976C0.332031 42.1792 1.09411 40.3394 2.45062 38.9828C3.80714 37.6263 5.64697 36.8643 7.56537 36.8643H39.3827V43.7569H36.2327V40.0236H7.56537C6.48533 40.0279 5.45061 40.4582 4.68603 41.221C3.92145 41.9838 3.48879 43.0176 3.48203 44.0976V44.4126C3.48079 45.4979 3.90993 46.5394 4.67537 47.3088C5.44081 48.0781 6.48009 48.5126 7.56537 48.5169H32.14V51.6669Z" fill="#150E25"/>
<path d="M9.13672 0.333008H23.0061V15.5277C23.011 15.8339 22.9511 16.1376 22.8305 16.4191C22.7099 16.7006 22.5312 16.9534 22.3061 17.161C21.896 17.5369 21.3597 17.7451 20.8034 17.7443C20.4369 17.7441 20.0763 17.6519 19.7547 17.4762C19.4331 17.3005 19.1607 17.0469 18.9624 16.7387L16.1484 12.4033L13.3181 16.7643C13.1196 17.0729 12.8468 17.3267 12.5247 17.5024C12.2026 17.6781 11.8416 17.7701 11.4747 17.77C10.9218 17.771 10.3884 17.5654 9.97905 17.1937C9.75405 16.9897 9.57427 16.7408 9.4513 16.4631C9.32832 16.1854 9.26488 15.885 9.26505 15.5813L9.13672 0.333008ZM19.8561 3.48301H12.3101L12.3777 12.3987L13.7591 10.2707C14.0164 9.87439 14.3687 9.54871 14.784 9.32324C15.1992 9.09777 15.6642 8.97967 16.1367 8.97967C16.6092 8.97967 17.0742 9.09777 17.4895 9.32324C17.9047 9.54871 18.2571 9.87439 18.5144 10.2707L19.8561 12.338V3.48301Z" fill="#7F2E8C"/>
<path d="M36.5458 45.6837H21.4305C21.2236 45.6837 21.0188 45.643 20.8277 45.5638C20.6367 45.4847 20.463 45.3686 20.3168 45.2224C20.1705 45.0761 20.0545 44.9025 19.9754 44.7114C19.8962 44.5203 19.8555 44.3155 19.8555 44.1087C19.8555 43.9019 19.8962 43.697 19.9754 43.506C20.0545 43.3149 20.1705 43.1412 20.3168 42.995C20.463 42.8487 20.6367 42.7327 20.8277 42.6536C21.0188 42.5744 21.2236 42.5337 21.4305 42.5337H36.5481C36.755 42.5337 36.9598 42.5744 37.1509 42.6536C37.342 42.7327 37.5156 42.8487 37.6618 42.995C37.8081 43.1412 37.9241 43.3149 38.0032 43.506C38.0824 43.697 38.1231 43.9019 38.1231 44.1087C38.1231 44.3155 38.0824 44.5203 38.0032 44.7114C37.9241 44.9025 37.8081 45.0761 37.6618 45.2224C37.5156 45.3686 37.342 45.4847 37.1509 45.5638C36.9598 45.643 36.7526 45.6837 36.5458 45.6837Z" fill="#150E25"/>
</svg>
