<svg width="52" height="52" viewBox="0 0 52 52" fill="none" xmlns="http://www.w3.org/2000/svg">
<path d="M14.332 25.638C14.3325 23.4013 14.9963 21.215 16.2394 19.3557C17.4826 17.4963 19.2493 16.0474 21.316 15.1922C23.3827 14.337 25.6567 14.1139 27.8502 14.5512C30.0437 14.9886 32.0582 16.0666 33.639 17.649C35.2197 19.2314 36.2957 21.247 36.7307 23.441C37.1658 25.6349 36.9404 27.9086 36.0831 29.9745C35.2258 32.0403 33.775 33.8055 31.9143 35.0467C30.0537 36.288 27.8667 36.9495 25.63 36.9477C22.6335 36.9415 19.7616 35.7476 17.6438 33.6276C15.5261 31.5077 14.3351 28.6346 14.332 25.638ZM17.6967 25.638C17.6967 27.2071 18.162 28.7409 19.0337 30.0455C19.9054 31.3502 21.1445 32.367 22.5941 32.9675C24.0437 33.5679 25.6388 33.725 27.1777 33.4189C28.7167 33.1128 30.1303 32.3572 31.2397 31.2477C32.3492 30.1382 33.1048 28.7246 33.4109 27.1857C33.717 25.6468 33.5599 24.0517 32.9595 22.6021C32.359 21.1524 31.3422 19.9134 30.0376 19.0417C28.7329 18.17 27.1991 17.7047 25.63 17.7047C23.526 17.7047 21.5081 18.5405 20.0203 20.0283C18.5325 21.5161 17.6967 23.534 17.6967 25.638Z" fill="#7F2E8C"/>
<path d="M22.1674 51.6663C21.7606 51.6634 21.3683 51.515 21.0614 51.2479C20.7546 50.9809 20.5534 50.6128 20.4944 50.2103L19.8224 45.3663C18.7356 45.02 17.6797 44.5837 16.6654 44.062L12.771 47.016C12.4455 47.2614 12.0423 47.3812 11.6356 47.3533C11.2288 47.3255 10.8458 47.1519 10.5567 46.8643L5.13637 41.4393C4.84886 41.1503 4.67524 40.7672 4.64738 40.3605C4.61952 39.9537 4.73929 39.5506 4.98471 39.225L7.93638 35.333C7.41291 34.3195 6.97657 33.2634 6.63204 32.176L1.78804 31.4993C1.38475 31.4441 1.0151 31.2447 0.747438 30.938C0.479781 30.6313 0.332221 30.2381 0.332041 29.831V22.1637C0.330575 21.7407 0.488476 21.3327 0.774297 21.021C1.06012 20.7092 1.45289 20.5165 1.87437 20.4813L6.63204 19.821C6.97687 18.7341 7.41402 17.6787 7.93871 16.6663L4.99871 12.7673C4.75329 12.4418 4.63352 12.0386 4.66138 11.6319C4.68924 11.2251 4.86286 10.8421 5.15037 10.553L10.5614 5.14434C10.8508 4.85866 11.2334 4.68679 11.6392 4.66023C12.0451 4.63366 12.4468 4.75416 12.771 4.99967L16.6654 7.93734C17.6803 7.4136 18.738 6.97724 19.827 6.63301L20.4804 1.91734L20.4944 1.78667C20.5521 1.38382 20.753 1.01521 21.0602 0.748279C21.3674 0.481348 21.7604 0.333936 22.1674 0.333008L29.8347 0.333008C30.2406 0.33513 30.6322 0.483129 30.9381 0.749995C31.2439 1.01686 31.4436 1.3848 31.5007 1.78667L32.1774 6.63067C33.2647 6.97339 34.3202 7.4098 35.332 7.93501L39.2334 4.99967C39.5267 4.77927 39.8838 4.6605 40.2507 4.66134C40.4722 4.66015 40.6917 4.70308 40.8964 4.78761C41.1011 4.87213 41.2869 4.99658 41.443 5.15367L46.854 10.553C47.1393 10.8427 47.3109 11.2253 47.3374 11.6309C47.364 12.0366 47.2438 12.4383 46.9987 12.7627L44.061 16.6663C44.5829 17.6797 45.0192 18.735 45.3654 19.821L50.2047 20.493C50.6082 20.5496 50.9779 20.7496 51.2461 21.0564C51.5143 21.3631 51.6632 21.7562 51.6654 22.1637V29.831C51.6627 30.2371 51.5142 30.6288 51.2469 30.9346C50.9797 31.2404 50.6115 31.44 50.2094 31.497L45.37 32.1737C45.0246 33.2622 44.5866 34.3191 44.061 35.333L46.9987 39.2297C47.2429 39.5549 47.3619 39.957 47.334 40.3627C47.3062 40.7684 47.1333 41.1506 46.847 41.4393L41.436 46.862C41.1179 47.1781 40.6875 47.3551 40.239 47.3543C39.8724 47.3556 39.5157 47.2358 39.224 47.0137L35.332 44.062C34.3165 44.5857 33.2589 45.0235 32.1704 45.371L31.5147 50.1217C31.5121 50.3357 31.4657 50.5469 31.3785 50.7424C31.2912 50.9378 31.165 51.1134 31.0074 51.2583C30.8499 51.4031 30.6644 51.5143 30.4623 51.5849C30.2602 51.6554 30.0459 51.684 29.8324 51.6687L22.1674 51.6663ZM17.391 40.611C18.7595 41.4212 20.2366 42.0317 21.7777 42.424C22.1027 42.5051 22.3959 42.6819 22.6193 42.9315C22.8427 43.1811 22.986 43.492 23.0307 43.824L23.6537 48.3017H28.3857L29.0087 43.824C29.0534 43.492 29.1967 43.1811 29.4201 42.9315C29.6435 42.6819 29.9367 42.5051 30.2617 42.424C31.8014 42.0341 33.2771 41.4251 34.6437 40.6157C34.9304 40.4463 35.261 40.3661 35.5934 40.3852C35.9258 40.4043 36.245 40.5219 36.5104 40.723L40.1037 43.446L43.4404 40.1023L40.7267 36.4997C40.526 36.2341 40.4088 35.9147 40.3901 35.5823C40.3714 35.2499 40.452 34.9195 40.6217 34.633C41.4308 33.2668 42.0405 31.792 42.4324 30.2533C42.5134 29.928 42.6901 29.6345 42.9396 29.4107C43.1892 29.1869 43.5002 29.0432 43.8324 28.998L48.31 28.3773V23.6407L43.8324 23.02C43.5002 22.9748 43.1892 22.8311 42.9396 22.6073C42.6901 22.3835 42.5134 22.09 42.4324 21.7647C42.0405 20.2252 41.4308 18.7497 40.6217 17.3827C40.4505 17.0967 40.369 16.766 40.3877 16.4332C40.4064 16.1005 40.5245 15.781 40.7267 15.516L43.4427 11.9157L40.1084 8.57901L36.4987 11.2997C36.2329 11.5001 35.9134 11.6168 35.581 11.6351C35.2486 11.6534 34.9183 11.5724 34.632 11.4023C33.2657 10.5942 31.7909 9.98529 30.2524 9.59401C29.9271 9.51303 29.6336 9.33632 29.4098 9.08674C29.186 8.83715 29.0422 8.52617 28.997 8.19401L28.374 3.71634H23.642L23.026 8.19634C22.9806 8.52839 22.8367 8.83922 22.613 9.08875C22.3892 9.33827 22.0959 9.51507 21.7707 9.59634C20.2305 9.99143 18.7538 10.6018 17.384 11.4093C17.1257 11.5628 16.8306 11.6435 16.53 11.6427C16.1635 11.6412 15.8074 11.5208 15.515 11.2997L11.917 8.57668L8.57338 11.9133L11.2987 15.4997C11.5011 15.7644 11.6196 16.0836 11.6392 16.4162C11.6587 16.7489 11.5783 17.0797 11.4084 17.3663C10.5943 18.737 9.98362 20.2185 9.59538 21.7647C9.51497 22.0903 9.33844 22.3841 9.08875 22.608C8.83906 22.8319 8.52777 22.9755 8.19537 23.02L3.71537 23.6407V28.375L8.19071 28.9957C8.5231 29.0402 8.8344 29.1838 9.08409 29.4077C9.33378 29.6316 9.51031 29.9254 9.59071 30.251C9.98589 31.7904 10.5979 33.2659 11.4084 34.633C11.5774 34.9199 11.6572 35.2506 11.6377 35.583C11.6182 35.9155 11.5002 36.2345 11.2987 36.4997L8.57338 40.1047L11.917 43.4483L15.515 40.7207C15.7804 40.5196 16.0996 40.402 16.432 40.3829C16.7645 40.3637 17.095 40.444 17.3817 40.6133L17.391 40.611Z" fill="#150E25"/>
</svg>
