<svg width="56" height="56" viewBox="0 0 56 56" fill="none" xmlns="http://www.w3.org/2000/svg">
<path d="M8.89803 37.6022C7.56254 37.9746 6.35307 38.7022 5.39853 39.7077C4.44399 40.7132 3.78013 41.9589 3.4777 43.3119C2.79173 46.1917 2.40777 49.1352 2.33203 52.0946C2.33265 52.5053 2.49608 52.899 2.7865 53.1894C3.07692 53.4799 3.47065 53.6433 3.88136 53.6439C6.84168 53.5682 9.786 53.1834 12.6664 52.4959C14.0197 52.1933 15.2655 51.5291 16.271 50.5741C17.2766 49.6191 18.0041 48.4092 18.376 47.0732C18.7512 45.7585 18.7681 44.3675 18.425 43.044C18.0819 41.7206 17.3913 40.513 16.4247 39.5461C15.4581 38.5792 14.2506 37.8883 12.9272 37.5449C11.6039 37.2015 10.2128 37.2181 8.89803 37.5929V37.6022ZM15.3964 46.2356C15.1716 47.0364 14.734 47.7614 14.13 48.3333C13.526 48.9053 12.7783 49.3028 11.9664 49.4836C9.84378 49.9753 7.68709 50.306 5.5147 50.4729C5.68082 48.2997 6.01154 46.1421 6.50403 44.0189C6.68456 43.2065 7.08226 42.4583 7.6547 41.8543C8.22714 41.2502 8.95284 40.8128 9.75437 40.5889C10.1693 40.4695 10.5989 40.4082 11.0307 40.4069C11.736 40.4127 12.4304 40.5813 13.0599 40.8995C13.6893 41.2178 14.2367 41.6771 14.6595 42.2417C15.0823 42.8063 15.3689 43.4609 15.4971 44.1544C15.6254 44.848 15.5917 45.5618 15.3987 46.2402L15.3964 46.2356Z" fill="#7F2E8C"/>
<path d="M39.2197 52.4795C38.6937 52.4695 38.18 52.3183 37.7325 52.0416C37.2851 51.7649 36.9203 51.373 36.6763 50.9068L32.033 42.0401C30.9993 42.6375 29.933 43.2231 28.7943 43.7925C28.1369 44.1228 27.4114 44.2946 26.6757 44.2941C26.0393 44.2928 25.4094 44.1659 24.822 43.9209C24.2347 43.6759 23.7014 43.3175 23.2527 42.8661L13.112 32.7255C12.3933 32.0169 11.9162 31.0997 11.7487 30.1044C11.5811 29.1091 11.7316 28.0863 12.1787 27.1815C12.748 26.0428 13.3453 24.9765 13.931 23.9405L5.06201 19.2995C4.59552 19.0554 4.20333 18.6902 3.92662 18.2423C3.6499 17.7944 3.49886 17.2802 3.48934 16.7538C3.47752 16.236 3.60514 15.7245 3.85883 15.273C4.11252 14.8214 4.48295 14.4464 4.93134 14.1871C10.396 11.0628 18.8893 8.87648 25.0797 10.4911C32.1477 4.60579 41.2369 1.71759 50.4057 2.44347C51.2089 2.5251 51.9592 2.88191 52.5295 3.45343C53.0997 4.02496 53.4548 4.77607 53.5347 5.57947C54.2616 14.7459 51.3741 23.833 45.4893 30.8985C47.104 37.0748 44.92 45.5798 41.784 51.0445C41.5309 51.4839 41.1663 51.8488 40.7272 52.1023C40.288 52.3559 39.7898 52.4892 39.2827 52.4888L39.2197 52.4795ZM34.6883 40.4185L39.2687 49.1778C41.8124 44.4851 43.0425 39.193 42.8293 33.8595C40.3624 36.3365 37.6334 38.5381 34.6907 40.4255L34.6883 40.4185ZM14.9577 28.5675C14.8011 28.8902 14.7505 29.2541 14.8129 29.6073C14.8753 29.9605 15.0477 30.285 15.3053 30.5345L25.446 40.6751C25.6959 40.9322 26.0204 41.1041 26.3734 41.1665C26.7264 41.2289 27.0901 41.1786 27.413 41.0228C50.835 29.3071 50.9797 11.1561 50.4547 5.87581C50.4468 5.78687 50.4079 5.70353 50.3448 5.64039C50.2816 5.57726 50.1983 5.53834 50.1093 5.53047C49.4467 5.46747 48.5857 5.41147 47.5637 5.41147C40.3863 5.41147 25.2103 8.07381 14.9577 28.5675ZM6.70934 16.7538L15.548 21.2968C17.4363 18.3513 19.6394 15.62 22.1187 13.1511C21.5991 13.1045 21.0671 13.0811 20.5227 13.0811C15.6933 13.2011 10.9605 14.4594 6.70934 16.7538Z" fill="#150E25"/>
<path d="M32.2586 22.8692C31.184 21.7972 30.5146 20.3857 30.3643 18.8753C30.214 17.3649 30.5922 15.8492 31.4344 14.5865C32.2765 13.3237 33.5306 12.3922 34.9828 11.9506C36.4349 11.509 37.9953 11.5847 39.3979 12.1648C40.8005 12.7449 41.9585 13.7935 42.6745 15.1319C43.3904 16.4702 43.6201 18.0154 43.3243 19.5042C43.0285 20.9929 42.2255 22.3329 41.0522 23.2959C39.879 24.2588 38.4081 24.785 36.8902 24.7848C35.1536 24.7846 33.488 24.0957 32.2586 22.8692ZM34.4519 15.7968C33.8861 16.3618 33.5337 17.1054 33.4548 17.9011C33.3759 18.6967 33.5753 19.4951 34.0191 20.1602C34.4629 20.8253 35.1235 21.3159 35.8885 21.5484C36.6535 21.781 37.4754 21.7411 38.2143 21.4355C38.9531 21.13 39.5631 20.5777 39.9404 19.8727C40.3177 19.1678 40.4388 18.3538 40.2832 17.5696C40.1276 16.7853 39.7048 16.0793 39.087 15.5718C38.4691 15.0643 37.6944 14.7868 36.8949 14.7865C35.9781 14.7858 35.1008 15.1492 34.4519 15.7968Z" fill="#7F2E8C"/>
</svg>
