<svg width="72" height="73" viewBox="0 0 72 73" fill="none" xmlns="http://www.w3.org/2000/svg">
<path fill-rule="evenodd" clip-rule="evenodd" d="M54.4067 30.1452C62.4733 30.1452 69 36.7452 69 44.8118C69 52.8785 62.4 59.4785 54.3333 59.4785C46.2667 59.4785 39.6667 52.8785 39.6667 44.8118C39.6667 28.6052 52.7933 15.4785 69 15.4785C69 15.4785 59.3933 19.0718 54.4067 30.1452ZM32.3333 44.8118C32.3333 52.8785 25.7333 59.4785 17.6667 59.4785C9.6 59.4785 3 52.8785 3 44.8118C3 28.6052 16.1267 15.4785 32.3333 15.4785C32.3333 15.4785 22.7267 19.0718 17.74 30.1452C25.8067 30.1452 32.3333 36.7452 32.3333 44.8118Z" fill="#7F2E8C"/>
</svg>
