<svg width="36" height="37" viewBox="0 0 36 37" fill="none" xmlns="http://www.w3.org/2000/svg">
<g clip-path="url(#clip0_2955_3700)">
<path d="M18.369 36.5945C18.2371 36.5906 18.1065 36.5663 17.982 36.5225C8.7405 33.434 3 24.5945 3 13.436V8.82051C3.00528 8.0154 3.32428 7.24407 3.88924 6.67043C4.45419 6.0968 5.22056 5.76606 6.0255 5.74851C14.8755 5.58501 16.1775 4.17651 17.4255 2.81601C17.5526 2.68338 17.7053 2.57784 17.8742 2.50575C18.0432 2.43365 18.225 2.39648 18.4088 2.39648C18.5925 2.39648 18.7743 2.43365 18.9433 2.50575C19.1122 2.57784 19.2649 2.68338 19.392 2.81601C20.649 4.18101 21.942 5.58951 30.792 5.75151C31.597 5.76755 32.3639 6.09764 32.9289 6.67133C33.4939 7.24501 33.8123 8.01683 33.816 8.82201V13.436C33.816 24.593 28.0725 33.437 18.8295 36.5225C18.7764 36.5403 18.7223 36.5548 18.6675 36.566H18.6585C18.5839 36.5814 18.5081 36.5899 18.432 36.5915L18.369 36.5945ZM6.075 8.42451C5.9702 8.42567 5.86999 8.46772 5.79574 8.54169C5.72148 8.61566 5.67906 8.71571 5.6775 8.82051V13.436C5.57631 17.9975 6.76993 22.4942 9.12 26.405C11.2972 29.8564 14.5733 32.474 18.42 33.836C22.2664 32.475 25.5424 29.8584 27.72 26.408C30.0697 22.4966 31.2628 17.9993 31.161 13.4375V8.81751C31.158 8.71398 31.1154 8.61555 31.042 8.54245C30.9686 8.46936 30.87 8.42715 30.7665 8.42451C23.238 8.28651 20.295 7.25751 18.423 5.62101C16.548 7.25901 13.6065 8.28801 6.075 8.42451ZM15.798 22.2905L11.58 18.074C11.3392 17.8207 11.207 17.4833 11.2115 17.1339C11.216 16.7845 11.3569 16.4506 11.6041 16.2036C11.8513 15.9566 12.1852 15.816 12.5347 15.8117C12.8841 15.8075 13.2214 15.94 13.4745 16.181L17.4405 20.147L23.649 13.9445H23.7C23.9773 13.762 24.3125 13.689 24.6405 13.7398C24.9686 13.7906 25.2661 13.9616 25.4751 14.2194C25.6842 14.4773 25.7899 14.8037 25.7718 15.1351C25.7536 15.4666 25.6129 15.7795 25.377 16.013L19.0935 22.2965C18.6566 22.7302 18.0659 22.9736 17.4503 22.9736C16.8346 22.9736 16.2439 22.7302 15.807 22.2965L15.798 22.2905Z" fill="white"/>
</g>
<defs>
<clipPath id="clip0_2955_3700">
<rect width="36" height="36" fill="white" transform="translate(0 0.896484)"/>
</clipPath>
</defs>
</svg>
