<svg width="41" height="67" viewBox="0 0 41 67" fill="none" xmlns="http://www.w3.org/2000/svg">
<path fill-rule="evenodd" clip-rule="evenodd" d="M23.8747 2.32162C24.4258 2.88615 24.8586 3.55514 25.1476 4.28927C25.4366 5.0234 25.576 5.80801 25.5577 6.59676V7.42477C26.511 6.99667 27.5695 6.8594 28.6005 7.03017C29.6315 7.20094 30.5892 7.67199 31.3537 8.3846C31.9058 8.95402 32.3389 9.62774 32.6279 10.3664C32.9168 11.105 33.0558 11.8938 33.0367 12.6867V16.0827C33.732 15.7681 34.4875 15.6084 35.2507 15.6147C36.5851 15.6028 37.8711 16.1143 38.8327 17.0396C39.3838 17.6042 39.8166 18.2732 40.1056 19.0073C40.3946 19.7414 40.534 20.526 40.5157 21.3148V44.9488C40.6336 47.9792 40.1314 51.0019 39.0399 53.8314C37.9483 56.6609 36.2904 59.2376 34.1677 61.4037C30.4042 64.9328 25.4384 66.8969 20.2792 66.8969C15.1199 66.8969 10.1541 64.9328 6.39066 61.4037C4.26368 59.2395 2.60113 56.6637 1.50492 53.8341C0.408704 51.0046 -0.0980721 47.9811 0.0156578 44.9488V30.3596C0.000426042 29.5692 0.143617 28.7838 0.436789 28.0496C0.729961 27.3154 1.16718 26.6472 1.72266 26.0847C2.68423 25.1593 3.97021 24.6478 5.30466 24.6598C6.06761 24.6528 6.82298 24.8113 7.51866 25.1247V12.6598C7.50027 11.871 7.63968 11.0864 7.92869 10.3523C8.21771 9.61813 8.6505 8.94914 9.20166 8.3846C9.95654 7.65589 10.9151 7.17397 11.9502 7.00252C12.9853 6.83108 14.0481 6.97835 14.9977 7.42477V6.59676C14.9793 5.80801 15.1187 5.0234 15.4077 4.28927C15.6967 3.55514 16.1295 2.88615 16.6807 2.32162C17.6422 1.39626 18.9282 0.884748 20.2627 0.896689C21.5896 0.949304 22.8592 1.45177 23.8627 2.32162H23.8747ZM20.2747 4.21163C19.7077 4.19838 19.1572 4.4023 18.7357 4.78164C18.5042 5.01717 18.3264 5.30004 18.2146 5.61074C18.1027 5.92144 18.0594 6.25273 18.0877 6.58175V33.0387C18.1065 33.2522 18.0808 33.4673 18.012 33.6704C17.9432 33.8734 17.833 34.0599 17.6882 34.218C17.5435 34.3761 17.3674 34.5025 17.1712 34.5888C16.975 34.6752 16.763 34.7197 16.5487 34.7197C16.3343 34.7197 16.1223 34.6752 15.9261 34.5888C15.7299 34.5025 15.5538 34.3761 15.4091 34.218C15.2644 34.0599 15.1541 33.8734 15.0853 33.6704C15.0166 33.4673 14.9908 33.2522 15.0097 33.0387V12.7736C15.011 12.0724 14.7835 11.3898 14.3617 10.8296C13.9438 10.4409 13.3933 10.2265 12.8227 10.2298C12.5128 10.2191 12.2044 10.2753 11.9183 10.3947C11.6323 10.5142 11.3754 10.694 11.1652 10.9219C10.955 11.1497 10.7965 11.4202 10.7004 11.7149C10.6044 12.0097 10.5731 12.3218 10.6087 12.6297V44.4507C10.6275 44.6642 10.6018 44.8794 10.533 45.0824C10.4642 45.2854 10.354 45.472 10.2092 45.6301C10.0645 45.7882 9.8884 45.9143 9.69221 46.0007C9.49603 46.0871 9.28402 46.1318 9.06966 46.1318C8.8553 46.1318 8.64328 46.0871 8.4471 46.0007C8.25091 45.9143 8.07485 45.7882 7.9301 45.6301C7.78535 45.472 7.67509 45.2854 7.60632 45.0824C7.53755 44.8794 7.51178 44.6642 7.53065 44.4507V30.4827C7.53666 29.7807 7.30866 29.0967 6.88266 28.5387C6.4558 28.149 5.89762 27.9347 5.31966 27.9386C5.01248 27.9326 4.7075 27.9916 4.42469 28.1117C4.14189 28.2317 3.88765 28.4103 3.67862 28.6355C3.46959 28.8607 3.3105 29.1274 3.21176 29.4183C3.11302 29.7092 3.07686 30.0179 3.10566 30.3238V44.9127C2.98018 47.4874 3.38993 50.06 4.30906 52.4683C5.22818 54.8767 6.63669 57.0683 8.44566 58.9047C11.6632 61.8887 15.8894 63.5468 20.2777 63.5468C24.6659 63.5468 28.8921 61.8887 32.1097 58.9047C33.9186 57.0683 35.3271 54.8767 36.2463 52.4683C37.1654 50.06 37.5751 47.4874 37.4497 44.9127V21.2787C37.4857 20.8322 37.3857 20.3853 37.163 19.9966C36.9403 19.6079 36.6053 19.2958 36.2019 19.101C35.7985 18.9063 35.3456 18.8383 34.9028 18.9057C34.4599 18.9731 34.0479 19.1729 33.7207 19.4788C33.4709 19.7373 33.2812 20.0476 33.165 20.3877C33.0489 20.7279 33.0091 21.0894 33.0487 21.4466V35.9846C33.0675 36.1982 33.0418 36.4133 32.973 36.6164C32.9042 36.8194 32.794 37.0059 32.6492 37.164C32.5045 37.3221 32.3284 37.4484 32.1322 37.5348C31.936 37.6212 31.724 37.6657 31.5097 37.6657C31.2953 37.6657 31.0833 37.6212 30.8871 37.5348C30.6909 37.4484 30.5149 37.3221 30.3701 37.164C30.2254 37.0059 30.1151 36.8194 30.0463 36.6164C29.9775 36.4133 29.9518 36.1982 29.9707 35.9846V12.6387C30.0016 12.3036 29.9597 11.9657 29.8479 11.6483C29.736 11.3309 29.5569 11.0415 29.3227 10.7998C28.8963 10.4093 28.3378 10.1949 27.7597 10.1997C27.1887 10.1949 26.6377 10.4098 26.2207 10.7998C25.9864 11.0415 25.8073 11.3309 25.6954 11.6483C25.5836 11.9657 25.5417 12.3036 25.5727 12.6387V33.2637C25.5915 33.4772 25.5658 33.6924 25.497 33.8954C25.4282 34.0984 25.318 34.285 25.1732 34.4431C25.0285 34.6012 24.8524 34.7273 24.6562 34.8137C24.46 34.9001 24.248 34.9448 24.0337 34.9448C23.8193 34.9448 23.6073 34.9001 23.4111 34.8137C23.2149 34.7273 23.0388 34.6012 22.8941 34.4431C22.7493 34.285 22.6391 34.0984 22.5703 33.8954C22.5016 33.6924 22.4758 33.4772 22.4947 33.2637C22.4947 24.3517 22.4947 15.4466 22.4947 6.54861C22.5196 6.21782 22.4724 5.88562 22.3564 5.57485C22.2404 5.26408 22.0583 4.98221 21.8227 4.74868C21.4011 4.36934 20.8506 4.16542 20.2837 4.17867L20.2747 4.21163Z" fill="black"/>
</svg>
