<svg width="25" height="34" viewBox="0 0 25 34" fill="none" xmlns="http://www.w3.org/2000/svg">
<path d="M9.69782 29.051H15.6616C15.3702 30.4341 14.1472 31.4795 12.6792 31.4795V31.6295L9.69782 29.051ZM16.9638 11.4301L16.9636 11.4298C16.547 10.9964 15.864 10.9861 15.4331 11.398L15.4328 11.3983L12.6826 14.0397L9.93262 11.3985C9.93259 11.3985 9.93256 11.3985 9.93253 11.3984C9.5045 10.9853 8.81768 10.9989 8.40185 11.4296L8.4016 11.4298C7.98484 11.8635 8.0025 12.5447 8.43288 12.9604L8.43308 12.9605L11.6 16.0072V21.3943H9.75514C5.85443 20.1517 3.01875 16.4926 3.01875 12.1824V12.0324H3.01626C3.09668 6.77106 7.40039 2.5167 12.6808 2.5167C18.0112 2.5167 22.3464 6.85188 22.3464 12.1824C22.3464 16.489 19.5109 20.1482 15.61 21.3943H13.7651V16.0072L16.9315 12.9611C16.9316 12.961 16.9317 12.9609 16.9318 12.9608C17.366 12.5475 17.3753 11.8606 16.9638 11.4301ZM9.63261 23.6102C10.6037 23.8695 11.6268 24.0108 12.6808 24.0113H12.6865C13.7392 24.0108 14.7593 23.8694 15.7346 23.6099V26.8914H9.63261V23.6102ZM7.46185 28.4311C7.46185 31.3061 9.8039 33.65 12.6808 33.65C15.5558 33.65 17.8997 31.3079 17.8997 28.4311V22.7984C21.8161 20.8688 24.5115 16.8334 24.5115 12.1808C24.5115 5.65909 19.2043 0.35 12.6808 0.35C6.15909 0.35 0.85 5.65719 0.85 12.1808C0.85 16.8335 3.55075 20.8692 7.46185 22.7984V28.4311Z" fill="#FEFDF9" stroke="white" stroke-width="0.3"/>
</svg>
