<svg width="72" height="73" viewBox="0 0 72 73" fill="none" xmlns="http://www.w3.org/2000/svg">
<path d="M53.757 70.1455C49.4475 68.3115 45.8625 65.1083 43.557 61.0315H7.107C6.01824 61.0299 4.97453 60.5967 4.20467 59.8268C3.4348 59.057 3.00159 58.0132 3 56.9245V8.00348C3.00079 6.91448 3.43375 5.87031 4.20379 5.10027C4.97383 4.33023 6.018 3.89728 7.107 3.89648H53.871C54.96 3.89728 56.0042 4.33023 56.7742 5.10027C57.5443 5.87031 57.9772 6.91448 57.978 8.00348V39.0385L68.031 44.2195C68.4916 44.4543 68.8799 44.8095 69.1546 45.2475C69.4293 45.6854 69.5801 46.1896 69.591 46.7065V46.7245C69.6795 50.4933 69.0482 54.2443 67.731 57.7765C66.7292 60.5274 65.1741 63.0437 63.1618 65.1701C61.1494 67.2964 58.7226 68.9877 56.031 70.1395C55.3028 70.4238 54.4942 70.4238 53.766 70.1395L53.757 70.1455ZM43.317 46.9555C43.2338 50.9687 44.0939 54.9453 45.828 58.5655C45.8591 58.6304 45.8852 58.6976 45.906 58.7665C45.921 58.8085 45.933 58.8385 45.954 58.8865C47.9173 62.5832 51.0688 65.5107 54.9 67.1965C57.1959 66.1885 59.2614 64.7216 60.9696 62.886C62.6777 61.0504 63.9925 58.8849 64.833 56.5225C65.9511 53.4595 66.5041 50.219 66.465 46.9585L54.897 40.9585L43.317 46.9555ZM6.138 8.00348V56.9245C6.13761 57.052 6.16238 57.1783 6.2109 57.2962C6.25942 57.4141 6.33073 57.5213 6.42075 57.6116C6.51077 57.7019 6.61773 57.7736 6.73549 57.8224C6.85325 57.8713 6.9795 57.8965 7.107 57.8965H7.407V57.9595H42.069C40.7105 54.3888 40.0692 50.5852 40.182 46.7665C40.2086 46.2557 40.3653 45.7602 40.6373 45.327C40.9092 44.8938 41.2875 44.5373 41.736 44.2915L53.604 38.1355C54.0007 37.9195 54.4488 37.8158 54.9 37.8355V8.00348C54.9 7.74649 54.7979 7.50002 54.6162 7.3183C54.4345 7.13658 54.188 7.03448 53.931 7.03448H40.971V24.3745C40.9714 24.8249 40.8398 25.2656 40.5924 25.6421C40.345 26.0185 39.9927 26.3142 39.579 26.4925C39.1678 26.6753 38.7112 26.7304 38.2683 26.6507C37.8254 26.571 37.4167 26.3602 37.095 26.0455L34.962 24.0865L32.1 26.7625C31.6533 27.1321 31.0928 27.3366 30.513 27.3415C30.2184 27.3547 29.9242 27.3084 29.6479 27.2053C29.3716 27.1022 29.1189 26.9445 28.905 26.7415L26.07 24.0805L23.928 26.0515C23.5196 26.4566 22.9672 26.6832 22.392 26.6815C22.0681 26.6801 21.7478 26.6138 21.45 26.4865C21.0299 26.3175 20.6716 26.024 20.4233 25.6454C20.1749 25.2667 20.0485 24.8211 20.061 24.3685V7.03448H7.107C6.85001 7.03448 6.60354 7.13658 6.42181 7.3183C6.24009 7.50002 6.138 7.74649 6.138 8.00348ZM27.6 21.2965L30.504 23.9635L33.348 21.2995C33.7776 20.911 34.3362 20.6958 34.9155 20.6958C35.4948 20.6958 36.0534 20.911 36.483 21.2995L37.821 22.4995V7.03448H23.208V22.4815L24.48 21.2965C24.909 20.9128 25.4644 20.7006 26.04 20.7006C26.6156 20.7006 27.171 20.9128 27.6 21.2965ZM52.44 58.7215L47.871 54.1525C47.7221 54.0107 47.6035 53.8401 47.5224 53.6511C47.4414 53.4621 47.3996 53.2586 47.3996 53.053C47.3996 52.8473 47.4414 52.6438 47.5224 52.4548C47.6035 52.2658 47.7221 52.0953 47.871 51.9535C48.0133 51.8048 48.1842 51.6865 48.3734 51.6057C48.5626 51.5249 48.7662 51.4832 48.972 51.4832C49.1778 51.4832 49.3814 51.5249 49.5706 51.6057C49.7598 51.6865 49.9307 51.8048 50.073 51.9535L53.541 55.4215L59.61 49.3525C59.7527 49.2051 59.9235 49.0878 60.1124 49.0078C60.3013 48.9277 60.5044 48.8864 60.7095 48.8864C60.9147 48.8864 61.1177 48.9277 61.3066 49.0078C61.4955 49.0878 61.6663 49.2051 61.809 49.3525C61.958 49.4943 62.0765 49.6648 62.1576 49.8538C62.2386 50.0429 62.2804 50.2463 62.2804 50.452C62.2804 50.6576 62.2386 50.8611 62.1576 51.0501C62.0765 51.2391 61.958 51.4097 61.809 51.5515L54.642 58.7215C54.4993 58.8694 54.3283 58.987 54.1391 59.0673C53.9499 59.1477 53.7465 59.1891 53.541 59.1891C53.3355 59.1891 53.1321 59.1477 52.9429 59.0673C52.7537 58.987 52.5827 58.8694 52.44 58.7215ZM13.26 53.9245C12.5076 53.9237 11.7862 53.6244 11.2541 53.0924C10.7221 52.5603 10.4228 51.8389 10.422 51.0865V46.8355C10.4236 46.0833 10.7231 45.3624 11.255 44.8305C11.7869 44.2986 12.5078 43.9991 13.26 43.9975H25.317C25.6908 43.9935 26.0617 44.0641 26.4078 44.2053C26.7539 44.3465 27.0684 44.5554 27.3327 44.8198C27.5971 45.0841 27.806 45.3986 27.9472 45.7447C28.0884 46.0908 28.159 46.4617 28.155 46.8355V51.0865C28.1542 51.8389 27.8549 52.5603 27.3229 53.0924C26.7908 53.6244 26.0694 53.9237 25.317 53.9245H13.26ZM13.5 50.7235H24.954V47.0725H13.5V50.7235Z" fill="black"/>
</svg>
