<svg width="36" height="37" viewBox="0 0 36 37" fill="none" xmlns="http://www.w3.org/2000/svg">
<path fill-rule="evenodd" clip-rule="evenodd" d="M28.6071 35.3965C28.6071 35.3965 11.895 35.3965 7.39286 35.3965C5.83007 35.3965 4.33093 34.7754 3.22543 33.6711C2.12111 32.5656 1.5 31.0664 1.5 29.5036V8.28934C1.5 6.72656 2.12111 5.22741 3.22543 4.12191C4.33093 3.01759 5.83007 2.39648 7.39286 2.39648H28.6071C30.1699 2.39648 31.6691 3.01759 32.7746 4.12191C33.8789 5.22741 34.5 6.72656 34.5 8.28934V29.5036C34.5 32.7577 31.8612 35.3965 28.6071 35.3965ZM16.8214 30.5113V33.0393H7.39286C6.45471 33.0393 5.55547 32.6669 4.89311 32.0034C4.22957 31.341 3.85714 30.4418 3.85714 29.5036V20.0751H7.39286C8.04343 20.0751 8.57143 19.5471 8.57143 18.8965C8.57143 17.9206 9.36343 17.1286 10.3393 17.1286C11.3151 17.1286 12.1071 17.9206 12.1071 18.8965C12.1071 19.5471 12.6351 20.0751 13.2857 20.0751H16.8214V22.6031C15.1184 23.1111 13.875 24.6903 13.875 26.5572C13.875 28.4241 15.1184 30.0033 16.8214 30.5113ZM19.1786 20.0751H21.7066C22.2146 21.7781 23.7939 23.0215 25.6607 23.0215C27.5276 23.0215 29.1069 21.7781 29.6148 20.0751H32.1429V29.5036C32.1429 31.4565 30.56 33.0393 28.6071 33.0393H19.1786V29.5036C19.1786 28.8531 18.6506 28.3251 18 28.3251C17.0241 28.3251 16.2321 27.5331 16.2321 26.5572C16.2321 25.5813 17.0241 24.7893 18 24.7893C18.6506 24.7893 19.1786 24.2613 19.1786 23.6108V20.0751ZM32.1429 17.7179H28.6071C27.9566 17.7179 27.4286 18.2459 27.4286 18.8965C27.4286 19.8723 26.6366 20.6643 25.6607 20.6643C24.6849 20.6643 23.8929 19.8723 23.8929 18.8965C23.8929 18.2459 23.3649 17.7179 22.7143 17.7179H19.1786V15.1899C20.8816 14.6819 22.125 13.1026 22.125 11.2358C22.125 9.36891 20.8816 7.78963 19.1786 7.28166C19.1786 7.28166 19.1786 5.83909 19.1786 4.75363H28.6071C29.5453 4.75363 30.4445 5.12606 31.1069 5.78959C31.7704 6.45195 32.1429 7.3512 32.1429 8.28934V17.7179ZM16.8214 17.7179V14.1822C16.8214 13.5316 17.3494 13.0036 18 13.0036C18.9759 13.0036 19.7679 12.2116 19.7679 11.2358C19.7679 10.2599 18.9759 9.46791 18 9.46791C17.3494 9.46791 16.8214 8.93991 16.8214 8.28934V4.75363H7.39286C6.45471 4.75363 5.55547 5.12606 4.89311 5.78959C4.22957 6.45195 3.85714 7.3512 3.85714 8.28934V17.7179H6.38518C6.89314 16.0149 8.47243 14.7715 10.3393 14.7715C12.2061 14.7715 13.7854 16.0149 14.2934 17.7179H16.8214Z" fill="white"/>
</svg>
