<svg width="36" height="37" viewBox="0 0 36 37" fill="none" xmlns="http://www.w3.org/2000/svg">
<path d="M1.5 18.8965C1.5 15.6331 2.46771 12.443 4.28075 9.72958C6.09379 7.01617 8.67074 4.90133 11.6857 3.65248C14.7007 2.40363 18.0183 2.07688 21.219 2.71353C24.4197 3.35019 27.3597 4.92166 29.6673 7.22923C31.9748 9.5368 33.5463 12.4768 34.183 15.6775C34.8196 18.8782 34.4929 22.1958 33.244 25.2108C31.9952 28.2257 29.8803 30.8027 27.1669 32.6157C24.4535 34.4288 21.2634 35.3965 18 35.3965C13.6253 35.3919 9.43119 33.652 6.33784 30.5587C3.24449 27.4653 1.50462 23.2711 1.5 18.8965ZM3.65881 18.8965C3.65881 21.7329 4.49991 24.5056 6.07574 26.864C7.65157 29.2224 9.89135 31.0606 12.5119 32.146C15.1324 33.2315 18.0159 33.5155 20.7978 32.9621C23.5797 32.4088 26.1351 31.0429 28.1408 29.0372C30.1464 27.0316 31.5123 24.4762 32.0656 21.6943C32.619 18.9124 32.335 16.0289 31.2495 13.4084C30.1641 10.7878 28.3259 8.54806 25.9675 6.97223C23.6091 5.3964 20.8364 4.5553 18 4.5553C14.1978 4.55953 10.5525 6.07184 7.86392 8.76041C5.17534 11.449 3.66304 15.0943 3.65881 18.8965ZM24.5375 29.6542C24.0456 29.8267 23.507 29.8096 23.027 29.6062L17.7819 27.3675L12.5223 29.6048C12.1921 29.7441 11.8315 29.7957 11.4755 29.7547C11.1195 29.7137 10.7802 29.5814 10.4903 29.3707C10.2005 29.1599 9.96996 28.8779 9.82115 28.5519C9.67235 28.2259 9.61028 27.867 9.64097 27.5099L10.1454 21.8243L6.3904 17.5154C6.15413 17.2446 5.99214 16.917 5.92023 16.5649C5.84832 16.2127 5.86895 15.8479 5.98011 15.5061C6.09126 15.1643 6.28915 14.8571 6.55445 14.6146C6.81974 14.3721 7.14339 14.2025 7.49379 14.1224L13.0573 12.8475L15.9909 7.95125C16.1755 7.6429 16.4368 7.38766 16.7495 7.21043C17.0621 7.03321 17.4153 6.94005 17.7747 6.94005C18.134 6.94005 18.4873 7.03321 18.7999 7.21043C19.1125 7.38766 19.3739 7.6429 19.5584 7.95125L22.4935 12.8475L28.0585 14.1253C28.3667 14.1967 28.6547 14.3374 28.9005 14.5366C29.1463 14.7358 29.3436 14.9884 29.4773 15.2752C29.512 15.3501 29.5425 15.4267 29.5689 15.5049C29.6789 15.8472 29.6991 16.212 29.6276 16.5643C29.5561 16.9166 29.3952 17.2446 29.1604 17.5169L25.4097 21.8214L25.9142 27.5085C25.9451 27.8502 25.8908 28.1944 25.7561 28.51C25.6214 28.8256 25.4105 29.1029 25.1422 29.3169L24.5782 29.769L24.5375 29.6542ZM18.1977 25.2028L23.751 27.5681L23.2189 21.5539C23.2057 21.409 23.2221 21.2628 23.2671 21.1244C23.3121 20.9859 23.3847 20.8581 23.4806 20.7486L27.445 16.1998L21.5617 14.8493C21.42 14.817 21.2864 14.7565 21.1687 14.6713C21.0511 14.5861 20.9518 14.478 20.877 14.3535L17.7819 9.17385L14.6738 14.3521C14.5991 14.4771 14.4997 14.5856 14.3818 14.6711C14.2638 14.7565 14.1297 14.8172 13.9877 14.8493L8.10581 16.2071L12.0716 20.7573C12.1664 20.8666 12.2384 20.9938 12.2833 21.1314C12.3283 21.2689 12.3453 21.4141 12.3333 21.5583L11.8012 27.5739L17.356 25.2101C17.4894 25.1536 17.6327 25.1246 17.7776 25.1246C17.9224 25.1246 18.0658 25.1536 18.1992 25.2101L18.1977 25.2028Z" fill="white"/>
</svg>
