<svg width="72" height="73" viewBox="0 0 72 73" fill="none" xmlns="http://www.w3.org/2000/svg">
<path d="M42.1994 68.7325H30.0884C29.6794 68.7325 29.2872 68.57 28.998 68.2809C28.7088 67.9917 28.5464 67.5995 28.5464 67.1905V47.1175C28.5464 46.7085 28.7088 46.3163 28.998 46.0271C29.2872 45.738 29.6794 45.5755 30.0884 45.5755H42.1994C42.6086 45.5755 43.0011 45.7379 43.2908 46.027C43.5804 46.316 43.7436 46.7083 43.7444 47.1175V67.1965C43.742 67.6047 43.5782 67.9954 43.2887 68.2832C42.9992 68.571 42.6076 68.7325 42.1994 68.7325ZM31.6304 48.6595V65.6515H40.6574V48.6595H31.6304ZM17.5574 68.7325H5.44336C5.03543 68.7325 4.64412 68.5709 4.35511 68.283C4.0661 67.9951 3.90294 67.6044 3.90136 67.1965V33.3175C3.90136 32.9083 4.06372 32.5157 4.35281 32.2261C4.64191 31.9364 5.03412 31.7733 5.44336 31.7725H17.5574C17.9671 31.7725 18.3601 31.9353 18.6498 32.225C18.9396 32.5148 19.1024 32.9077 19.1024 33.3175V67.1965C19.1 67.6047 18.9362 67.9954 18.6467 68.2832C18.3572 68.571 17.9656 68.7325 17.5574 68.7325ZM6.98836 34.8595V65.6515H16.0154V34.8595H6.98836ZM66.8564 68.7265H54.7424C54.3334 68.7265 53.9412 68.564 53.652 68.2749C53.3628 67.9857 53.2004 67.5935 53.2004 67.1845V27.0445C53.2004 26.6355 53.3628 26.2433 53.652 25.9541C53.9412 25.665 54.3334 25.5025 54.7424 25.5025H66.8534C67.0564 25.5017 67.2575 25.541 67.4453 25.6181C67.6331 25.6953 67.8038 25.8087 67.9476 25.952C68.0914 26.0953 68.2055 26.2655 68.2834 26.453C68.3613 26.6405 68.4014 26.8415 68.4014 27.0445V67.1965C68.3982 67.6039 68.2339 67.9935 67.9444 68.2802C67.6549 68.5668 67.2638 68.7273 66.8564 68.7265ZM56.2844 28.5925V65.6485H65.3144V28.5925H56.2844ZM36.1484 30.8515C35.7514 30.857 35.3684 30.7049 35.0834 30.4285L19.5344 15.5575L5.43436 27.4585C5.17464 27.6364 4.86717 27.7316 4.55236 27.7315C4.32751 27.7365 4.1043 27.6921 3.8985 27.6014C3.6927 27.5107 3.50933 27.3759 3.36136 27.2065C3.09952 26.893 2.97161 26.4891 3.0053 26.0821C3.03898 25.675 3.23155 25.2976 3.54136 25.0315L18.6014 12.3265C18.8808 12.0881 19.2361 11.9572 19.6034 11.9575C19.9987 11.9574 20.3785 12.1113 20.6624 12.3865L36.2354 27.2785L56.7374 10.8715L53.6564 6.89649C53.4857 6.67062 53.3789 6.40299 53.3472 6.12166C53.3156 5.84032 53.3602 5.55565 53.4764 5.29749C53.5946 5.03861 53.7822 4.8175 54.0183 4.65865C54.2545 4.49981 54.53 4.40941 54.8144 4.39749L66.3644 3.89649H66.4394C66.68 3.89596 66.9174 3.95208 67.1323 4.06032C67.3472 4.16856 67.5336 4.32588 67.6765 4.51954C67.8193 4.7132 67.9146 4.93777 67.9545 5.17507C67.9944 5.41237 67.9779 5.65574 67.9064 5.88549L64.5014 16.9375C64.4176 17.2079 64.2616 17.4504 64.0501 17.6386C63.8386 17.8268 63.5797 17.9537 63.3014 18.0055C63.2081 18.0206 63.1138 18.0286 63.0194 18.0295C62.7843 18.0275 62.5527 17.9725 62.3418 17.8687C62.1309 17.7648 61.9462 17.6147 61.8014 17.4295L58.6244 13.2985L37.1144 30.5125C36.8397 30.7309 36.4993 30.8504 36.1484 30.8515ZM64.3094 7.06449L57.9014 7.33749L62.4344 13.1965L64.3124 7.07649L64.3094 7.06449Z" fill="black"/>
</svg>
