<svg width="36" height="37" viewBox="0 0 36 37" fill="none" xmlns="http://www.w3.org/2000/svg">
<path d="M22.5001 11.0215C22.5001 13.5068 20.4854 15.5215 18.0001 15.5215C15.5148 15.5215 13.5001 13.5068 13.5001 11.0215C13.5001 8.5362 15.5148 6.52148 18.0001 6.52148C20.4854 6.52148 22.5001 8.5362 22.5001 11.0215Z" fill="#A29566"/>
<path d="M31.5001 15.5215C31.5001 17.3854 29.9891 18.8965 28.1251 18.8965C26.2612 18.8965 24.7501 17.3854 24.7501 15.5215C24.7501 13.6575 26.2612 12.1465 28.1251 12.1465C29.9891 12.1465 31.5001 13.6575 31.5001 15.5215Z" fill="#A29566"/>
<path d="M11.2501 15.5215C11.2501 17.3854 9.73908 18.8965 7.87512 18.8965C6.01116 18.8965 4.50012 17.3854 4.50012 15.5215C4.50012 13.6575 6.01116 12.1465 7.87512 12.1465C9.73908 12.1465 11.2501 13.6575 11.2501 15.5215Z" fill="#A29566"/>
<path d="M9.05488 30.02C9.0187 29.6921 9.00012 29.359 9.00012 29.0215C9.00012 29.0061 9.00016 28.9907 9.00024 28.9754C9.0091 27.2101 9.52618 25.565 10.4127 24.1789C12.0116 21.6789 14.8123 20.0215 18.0001 20.0215C21.1883 20.0215 23.9893 21.6793 25.5882 24.1798C26.4743 25.5657 26.9911 27.2104 27 28.9752C27.0001 28.9906 27.0001 29.006 27.0001 29.0215C27.0001 29.359 26.9815 29.6921 26.9454 30.02C24.3102 31.532 21.2561 32.3965 18.0001 32.3965C14.7441 32.3965 11.69 31.532 9.05488 30.02Z" fill="#A29566"/>
<path d="M27 28.9752C27.3713 29.0059 27.7468 29.0215 28.126 29.0215C29.6985 29.0215 31.2082 28.7526 32.6116 28.2584C32.6211 28.139 32.626 28.0183 32.626 27.8965C32.626 25.4112 30.6113 23.3965 28.126 23.3965C27.1846 23.3965 26.3106 23.6856 25.5882 24.1798M27 28.9752C27.0001 28.9906 27.0001 29.006 27.0001 29.0215C27.0001 29.359 26.9815 29.6921 26.9454 30.02C24.3102 31.532 21.2561 32.3965 18.0001 32.3965C14.7441 32.3965 11.69 31.532 9.05488 30.02C9.0187 29.6921 9.00012 29.359 9.00012 29.0215C9.00012 29.0061 9.00016 28.9907 9.00024 28.9754M27 28.9752C26.9911 27.2104 26.4743 25.5657 25.5882 24.1798M25.5882 24.1798C23.9893 21.6793 21.1883 20.0215 18.0001 20.0215C14.8123 20.0215 12.0116 21.6789 10.4127 24.1789M10.4127 24.1789C9.69047 23.6852 8.81706 23.3965 7.87622 23.3965C5.39094 23.3965 3.37622 25.4112 3.37622 27.8965C3.37622 28.0183 3.38106 28.139 3.39056 28.2584C4.79401 28.7526 6.30372 29.0215 7.87622 29.0215C8.25473 29.0215 8.62961 29.0059 9.00024 28.9754M10.4127 24.1789C9.52618 25.565 9.0091 27.2101 9.00024 28.9754M22.5001 11.0215C22.5001 13.5068 20.4854 15.5215 18.0001 15.5215C15.5148 15.5215 13.5001 13.5068 13.5001 11.0215C13.5001 8.5362 15.5148 6.52148 18.0001 6.52148C20.4854 6.52148 22.5001 8.5362 22.5001 11.0215ZM31.5001 15.5215C31.5001 17.3854 29.9891 18.8965 28.1251 18.8965C26.2612 18.8965 24.7501 17.3854 24.7501 15.5215C24.7501 13.6575 26.2612 12.1465 28.1251 12.1465C29.9891 12.1465 31.5001 13.6575 31.5001 15.5215ZM11.2501 15.5215C11.2501 17.3854 9.73908 18.8965 7.87512 18.8965C6.01116 18.8965 4.50012 17.3854 4.50012 15.5215C4.50012 13.6575 6.01116 12.1465 7.87512 12.1465C9.73908 12.1465 11.2501 13.6575 11.2501 15.5215Z" stroke="white" stroke-width="2.5" stroke-linecap="round" stroke-linejoin="round"/>
</svg>
