<svg width="40" height="40" viewBox="0 0 40 40" fill="none" xmlns="http://www.w3.org/2000/svg">
<path d="M13.753 35.088V32.5613C14.028 32.6997 14.3496 32.883 14.6713 33.0213C15.8242 33.4878 17.0577 33.7223 18.3013 33.7113H31.5796C32.011 33.7144 32.4388 33.6325 32.8385 33.4702C33.2383 33.308 33.6021 33.0686 33.9093 32.7657C34.2165 32.4628 34.4611 32.1024 34.629 31.705C34.7969 31.3076 34.8849 30.8811 34.888 30.4497C34.8768 29.8685 34.7185 29.2997 34.428 28.7963C34.9084 28.6195 35.3412 28.3333 35.692 27.9604C36.0428 27.5875 36.302 27.1381 36.4491 26.6477C36.5962 26.1573 36.6272 25.6394 36.5397 25.135C36.4521 24.6306 36.2484 24.1534 35.9446 23.7413C36.3243 23.4977 36.65 23.1787 36.9015 22.8042C37.153 22.4297 37.325 22.0075 37.4068 21.5639C37.4887 21.1202 37.4787 20.6645 37.3774 20.2249C37.2761 19.7853 37.0857 19.3711 36.818 19.008C37.4185 18.6277 37.8785 18.0617 38.1279 17.396C38.3773 16.7303 38.4025 16.0014 38.1998 15.3201C37.997 14.6388 37.5773 14.0423 37.0045 13.6214C36.4317 13.2004 35.7371 12.978 35.0263 12.988H25.6063C26.4796 9.77133 26.4396 7.28966 25.3763 5.49799C25.094 4.9914 24.7123 4.54705 24.2541 4.19163C23.7958 3.83621 23.2705 3.57703 22.7096 3.42966C22.3675 3.32678 22.0059 3.30653 21.6545 3.37056C21.303 3.43459 20.9718 3.58108 20.688 3.79799C20.1698 4.27691 19.7742 4.87322 19.5343 5.53678C19.2945 6.20035 19.2174 6.91179 19.3096 7.61133C19.3096 10.138 15.4046 12.6663 13.2446 13.723C13.1126 13.6706 12.9731 13.6397 12.8313 13.6313H2.5863C2.34301 13.6322 2.10994 13.7292 1.93791 13.9013C1.76588 14.0733 1.66885 14.3064 1.66797 14.5497V32.3313C1.67061 33.3056 2.05882 34.2393 2.74775 34.9282C3.43669 35.6171 4.37033 36.0054 5.34463 36.008H12.8346C13.0782 36.0071 13.3115 35.9099 13.4836 35.7375C13.6557 35.5651 13.7525 35.3316 13.753 35.088ZM21.1963 7.65632C21.1963 6.00299 21.6096 5.48966 21.793 5.35966C21.9306 5.27551 22.0936 5.24302 22.253 5.26799C22.2996 5.26799 22.3446 5.31466 22.3913 5.31466C23.0198 5.50343 23.5482 5.93297 23.8613 6.50966C24.458 7.52133 24.918 9.63466 23.5396 13.6763C23.492 13.8158 23.4797 13.965 23.5039 14.1104C23.528 14.2558 23.5878 14.393 23.678 14.5097C23.7656 14.6217 23.8769 14.7128 24.004 14.7765C24.1312 14.8402 24.2708 14.8749 24.413 14.878H35.0796C35.2708 14.8715 35.4612 14.9035 35.6397 14.9721C35.8182 15.0407 35.9811 15.1446 36.1186 15.2775C36.2561 15.4103 36.3655 15.5696 36.4402 15.7456C36.5149 15.9216 36.5534 16.1109 36.5534 16.3022C36.5534 16.4934 36.5149 16.6827 36.4402 16.8587C36.3655 17.0348 36.2561 17.194 36.1186 17.3269C35.9811 17.4598 35.8182 17.5636 35.6397 17.6322C35.4612 17.7009 35.2708 17.7329 35.0796 17.7263H31.0296C30.9046 17.7188 30.7794 17.7369 30.6616 17.7796C30.5438 17.8222 30.436 17.8885 30.3448 17.9744C30.2536 18.0602 30.181 18.1638 30.1313 18.2788C30.0816 18.3938 30.056 18.5177 30.056 18.643C30.056 18.7682 30.0816 18.8922 30.1313 19.0072C30.181 19.1221 30.2536 19.2258 30.3448 19.3116C30.436 19.3975 30.5438 19.4638 30.6616 19.5064C30.7794 19.5491 30.9046 19.5672 31.0296 19.5597H34.1963C34.3874 19.5531 34.5779 19.5851 34.7564 19.6537C34.9349 19.7224 35.0978 19.8262 35.2353 19.9591C35.3728 20.092 35.4822 20.2512 35.5568 20.4273C35.6315 20.6033 35.67 20.7926 35.67 20.9838C35.67 21.1751 35.6315 21.3643 35.5568 21.5404C35.4822 21.7164 35.3728 21.8756 35.2353 22.0085C35.0978 22.1414 34.9349 22.2453 34.7564 22.3139C34.5779 22.3825 34.3874 22.4145 34.1963 22.408H30.5696C30.4446 22.4004 30.3194 22.4186 30.2016 22.4612C30.0838 22.5039 29.976 22.5702 29.8848 22.656C29.7936 22.7419 29.721 22.8455 29.6713 22.9605C29.6216 23.0755 29.596 23.1994 29.596 23.3247C29.596 23.4499 29.6216 23.5738 29.6713 23.6888C29.721 23.8038 29.7936 23.9074 29.8848 23.9933C29.976 24.0791 30.0838 24.1454 30.2016 24.1881C30.3194 24.2308 30.4446 24.2489 30.5696 24.2413H33.3263C33.5174 24.2348 33.7079 24.2668 33.8864 24.3354C34.0649 24.404 34.2278 24.5079 34.3653 24.6408C34.5028 24.7737 34.6122 24.9329 34.6868 25.1089C34.7615 25.285 34.8 25.4743 34.8 25.6655C34.8 25.8567 34.7615 26.046 34.6868 26.2221C34.6122 26.3981 34.5028 26.5573 34.3653 26.6902C34.2278 26.8231 34.0649 26.9269 33.8864 26.9956C33.7079 27.0642 33.5174 27.0962 33.3263 27.0897H30.1596C30.0346 27.0821 29.9094 27.1002 29.7916 27.1429C29.6738 27.1855 29.566 27.2518 29.4748 27.3377C29.3836 27.4236 29.311 27.5272 29.2613 27.6422C29.2116 27.7571 29.186 27.8811 29.186 28.0063C29.186 28.1316 29.2116 28.2555 29.2613 28.3705C29.311 28.4855 29.3836 28.5891 29.4748 28.6749C29.566 28.7608 29.6738 28.8271 29.7916 28.8698C29.9094 28.9124 30.0346 28.9305 30.1596 28.923H31.6296C31.8208 28.9165 32.0112 28.9485 32.1897 29.0171C32.3682 29.0857 32.5311 29.1896 32.6686 29.3225C32.8061 29.4553 32.9155 29.6146 32.9902 29.7906C33.0649 29.9666 33.1034 30.1559 33.1034 30.3472C33.1034 30.5384 33.0649 30.7277 32.9902 30.9037C32.9155 31.0798 32.8061 31.239 32.6686 31.3719C32.5311 31.5048 32.3682 31.6086 32.1897 31.6772C32.0112 31.7459 31.8208 31.7779 31.6296 31.7713H18.3013C17.2945 31.7835 16.2952 31.596 15.3613 31.2197C14.258 30.7597 13.8913 30.3463 13.7996 30.163C13.7999 30.1568 13.7988 30.1506 13.7966 30.1449C13.7943 30.1391 13.7909 30.1339 13.7865 30.1295C13.7821 30.1251 13.7769 30.1217 13.7711 30.1194C13.7653 30.1171 13.7592 30.1161 13.753 30.1163V15.5597C15.453 14.733 21.1963 11.6997 21.1963 7.65632ZM11.9146 34.1697H5.34463C4.85921 34.167 4.39442 33.973 4.05117 33.6298C3.70792 33.2865 3.51393 32.8217 3.5113 32.3363V15.468H11.9196L11.9146 34.1697Z" fill="black"/>
</svg>
